Perun-Bold.ufo
<glyph name="exclam" format="2">
  <advance width="230"/>
  <unicode hex="0021"/>
  <outline>
    <contour>
      <point x="190" y="722" type="line"/>
      <point x="164" y="191" type="line"/>
      <point x="66" y="191" type="line"/>
      <point x="40" y="722" type="line"/>
    </contour>
    <contour>
      <point x="185" y="0" type="line"/>
      <point x="55" y="0" type="line"/>
      <point x="55" y="115" type="line"/>
      <point x="185" y="115" type="line"/>
    </contour>
  </outline>
</glyph>
<glyph name="quotedbl" format="2">
  <advance width="460"/>
  <unicode hex="0022"/>
  <outline>
    <contour>
      <point x="66" y="432" type="line"/>
      <point x="164" y="432" type="line"/>
      <point x="190" y="722" type="line"/>
      <point x="40" y="722" type="line"/>
    </contour>
    <contour>
      <point x="296" y="432" type="line"/>
      <point x="394" y="432" type="line"/>
      <point x="420" y="722" type="line"/>
      <point x="270" y="722" type="line"/>
    </contour>
  </outline>
</glyph>
<glyph name="numbersign" format="2">
  <advance width="716"/>
  <unicode hex="0023"/>
  <outline>
    <contour>
      <point x="88" y="0" type="line"/>
      <point x="188" y="0" type="line"/>
      <point x="401" y="722" type="line"/>
      <point x="301" y="722" type="line"/>
    </contour>
    <contour>
      <point x="310" y="0" type="line"/>
      <point x="410" y="0" type="line"/>
      <point x="623" y="722" type="line"/>
      <point x="523" y="722" type="line"/>
    </contour>
    <contour>
      <point x="127" y="539" type="line"/>
      <point x="100" y="459" type="line"/>
      <point x="665" y="459" type="line"/>
      <point x="692" y="539" type="line"/>
    </contour>
    <contour>
      <point x="40.9375" y="284" type="line"/>
      <point x="13.9375" y="204" type="line"/>
      <point x="578.938" y="204" type="line"/>
      <point x="605.938" y="284" type="line"/>
    </contour>
  </outline>
  <guideline angle="253.563" x="301" y="722"/>
  <guideline angle="73.5632" x="188" y="0"/>
  <guideline angle="0" x="0" y="284"/>
  <guideline angle="0" x="0" y="204"/>
  <guideline angle="251.35" x="147" y="539"/>
  <guideline angle="71.3505" x="645" y="459"/>
  <guideline angle="0" x="0" y="539"/>
  <guideline angle="0" x="0" y="493"/>
</glyph>
<glyph name="dollar" format="2">
  <advance width="684"/>
  <unicode hex="0024"/>
  <outline>
    <component base="S"/>
    <contour>
      <point x="282.106" y="330" type="line"/>
      <point x="282.106" y="90" type="line"/>
      <point x="401.941" y="90" type="line"/>
      <point x="401.941" y="330" type="line"/>
    </contour>
    <contour>
      <point x="282.106" y="641" type="line"/>
      <point x="282.106" y="410" type="line"/>
      <point x="401.941" y="410" type="line"/>
      <point x="401.941" y="641" type="line"/>
    </contour>
    <contour>
      <point x="282.106" y="10" type="line"/>
      <point x="282.106" y="-76" type="line"/>
      <point x="401.941" y="-76" type="line"/>
      <point x="401.941" y="10" type="line"/>
    </contour>
    <contour>
      <point x="401.941" y="720" type="line"/>
      <point x="401.941" y="800" type="line"/>
      <point x="282.106" y="800" type="line"/>
      <point x="282.106" y="720" type="line"/>
    </contour>
  </outline>
  <guideline angle="90" x="342" y="0"/>
</glyph>
<glyph name="percent" format="2">
  <advance width="990"/>
  <unicode hex="0025"/>
  <outline>
    <contour>
      <point x="238" y="-14" type="line"/>
      <point x="663" y="736" type="line"/>
      <point x="763" y="736" type="line"/>
      <point x="336" y="-14" type="line"/>
    </contour>
    <contour>
      <point x="560" y="195" type="curve" smooth="yes"/>
      <point x="560" y="313"/>
      <point x="640" y="401"/>
      <point x="760" y="401" type="curve" smooth="yes"/>
      <point x="879" y="401"/>
      <point x="958" y="313"/>
      <point x="958" y="196" type="curve" smooth="yes"/>
      <point x="958" y="79"/>
      <point x="878" y="-7"/>
      <point x="758" y="-7" type="curve" smooth="yes"/>
      <point x="638" y="-7"/>
      <point x="560" y="78"/>
    </contour>
    <contour>
      <point x="663" y="197" type="curve" smooth="yes"/>
      <point x="663" y="122"/>
      <point x="689" y="60"/>
      <point x="758" y="60" type="curve" smooth="yes"/>
      <point x="827" y="60"/>
      <point x="852" y="122"/>
      <point x="852" y="197" type="curve" smooth="yes"/>
      <point x="852" y="272"/>
      <point x="827" y="334"/>
      <point x="758" y="334" type="curve" smooth="yes"/>
      <point x="689" y="334"/>
      <point x="663" y="272"/>
    </contour>
    <contour>
      <point x="35" y="523" type="curve" smooth="yes"/>
      <point x="35" y="641"/>
      <point x="115" y="729"/>
      <point x="235" y="729" type="curve" smooth="yes"/>
      <point x="354" y="729"/>
      <point x="433" y="641"/>
      <point x="433" y="524" type="curve" smooth="yes"/>
      <point x="433" y="407"/>
      <point x="353" y="321"/>
      <point x="233" y="321" type="curve" smooth="yes"/>
      <point x="113" y="321"/>
      <point x="35" y="406"/>
    </contour>
    <contour>
      <point x="138" y="525" type="curve" smooth="yes"/>
      <point x="138" y="450"/>
      <point x="164" y="388"/>
      <point x="233" y="388" type="curve" smooth="yes"/>
      <point x="302" y="388"/>
      <point x="327" y="450"/>
      <point x="327" y="525" type="curve" smooth="yes"/>
      <point x="327" y="600"/>
      <point x="302" y="662"/>
      <point x="233" y="662" type="curve" smooth="yes"/>
      <point x="164" y="662"/>
      <point x="138" y="600"/>
    </contour>
  </outline>
</glyph>
<glyph name="ampersand" format="2">
  <advance width="789"/>
  <unicode hex="0026"/>
  <outline>
    <contour>
      <point x="174.009" y="421.095" type="curve" smooth="yes"/>
      <point x="580.519" y="-1" type="line"/>
      <point x="749" y="-1" type="line"/>
      <point x="352" y="409.565" type="line" smooth="yes"/>
      <point x="260.586" y="504.103"/>
      <point x="242" y="526.606"/>
      <point x="242" y="560.162" type="curve" smooth="yes"/>
      <point x="242" y="610"/>
      <point x="283" y="635"/>
      <point x="323.975" y="635" type="curve" smooth="yes"/>
      <point x="368.709" y="635"/>
      <point x="398" y="603.496"/>
      <point x="398" y="560.554" type="curve" smooth="yes"/>
      <point x="398" y="529.584"/>
      <point x="382.706" y="503.836"/>
      <point x="353.333" y="485.354" type="curve" smooth="yes"/>
      <point x="290.268" y="445.674" type="line"/>
      <point x="351" y="374.802" type="line"/>
      <point x="387.78" y="398.45" type="line" smooth="yes"/>
      <point x="472.419" y="452.871"/>
      <point x="522" y="500"/>
      <point x="522" y="573.658" type="curve" smooth="yes"/>
      <point x="522" y="683.371"/>
      <point x="412" y="735"/>
      <point x="325" y="735" type="curve" smooth="yes"/>
      <point x="195.498" y="735"/>
      <point x="109" y="666.919"/>
      <point x="109" y="558.442" type="curve" smooth="yes"/>
      <point x="109" y="507.679"/>
      <point x="127.037" y="469.572"/>
    </contour>
    <contour>
      <point x="484.163" y="144.267" type="line"/>
      <point x="451.066" y="108.782"/>
      <point x="389.507" y="85"/>
      <point x="330.754" y="85" type="curve" smooth="yes"/>
      <point x="248.424" y="85"/>
      <point x="194" y="129.738"/>
      <point x="194" y="199.183" type="curve" smooth="yes"/>
      <point x="194" y="248.607"/>
      <point x="221.567" y="302.225"/>
      <point x="259.985" y="325.757" type="curve" smooth="yes"/>
      <point x="290.171" y="344.247" type="line"/>
      <point x="215.795" y="420.828" type="line"/>
      <point x="168.179" y="391.309" type="line" smooth="yes"/>
      <point x="91.9225" y="344.036"/>
      <point x="54" y="280.897"/>
      <point x="54" y="201.206" type="curve" smooth="yes"/>
      <point x="54" y="67.2167"/>
      <point x="160.219" y="-15"/>
      <point x="333.324" y="-15" type="curve" smooth="yes"/>
      <point x="428.795" y="-15"/>
      <point x="502.807" y="9.99643"/>
      <point x="561.066" y="61.9166" type="curve"/>
    </contour>
    <contour>
      <point x="607.674" y="112.303" type="line"/>
      <point x="664.278" y="166.308"/>
      <point x="693" y="256.757"/>
      <point x="693" y="381" type="curve"/>
      <point x="554.892" y="380.739" type="line"/>
      <point x="553.582" y="379.261" type="line"/>
      <point x="555.418" y="369.174"/>
      <point x="557" y="349.16"/>
      <point x="557" y="336.015" type="curve" smooth="yes"/>
      <point x="557" y="293.611"/>
      <point x="543.351" y="244.441"/>
      <point x="520.495" y="204.505" type="curve"/>
    </contour>
  </outline>
  <guideline angle="211.675" x="215" y="420"/>
  <guideline angle="211.675" x="215" y="400"/>
  <guideline angle="211.675" x="215" y="298"/>
  <guideline angle="211.675" x="215" y="291"/>
  <guideline angle="134.007" x="719" y="-1"/>
  <guideline angle="314.104" x="215.955" y="421"/>
</glyph>
<glyph name="parenleft" format="2">
  <advance width="320"/>
  <unicode hex="0028"/>
  <outline>
    <contour>
      <point x="150" y="-132" type="line"/>
      <point x="87" y="7"/>
      <point x="56" y="152"/>
      <point x="56" y="303" type="curve" smooth="yes"/>
      <point x="56" y="455"/>
      <point x="87" y="600"/>
      <point x="150" y="737" type="curve"/>
      <point x="260" y="737" type="line"/>
      <point x="205" y="583"/>
      <point x="178" y="438"/>
      <point x="178" y="303" type="curve" smooth="yes"/>
      <point x="178" y="170"/>
      <point x="205" y="25"/>
      <point x="260" y="-132" type="curve"/>
    </contour>
  </outline>
</glyph>
<glyph name="plus" format="2">
  <advance width="720"/>
  <unicode hex="002B"/>
  <outline>
    <contour>
      <point x="60" y="244" type="line"/>
      <point x="300" y="244" type="line"/>
      <point x="300" y="4" type="line"/>
      <point x="420" y="4" type="line"/>
      <point x="420" y="244" type="line"/>
      <point x="660" y="244" type="line"/>
      <point x="660" y="364" type="line"/>
      <point x="420" y="364" type="line"/>
      <point x="420" y="604" type="line"/>
      <point x="300" y="604" type="line"/>
      <point x="300" y="364" type="line"/>
      <point x="60" y="364" type="line"/>
    </contour>
  </outline>
  <guideline angle="0" x="0" y="304"/>
  <guideline angle="90" x="360" y="0"/>
</glyph>
<glyph name="hyphen" format="2">
  <advance width="337"/>
  <unicode hex="002D"/>
  <outline>
    <contour>
      <point x="40" y="190" type="line"/>
      <point x="297" y="190" type="line"/>
      <point x="297" y="321" type="line"/>
      <point x="40" y="321" type="line"/>
    </contour>
  </outline>
</glyph>
<glyph name="slash" format="2">
  <advance width="426"/>
  <unicode hex="002F"/>
  <outline>
    <contour>
      <point x="46" y="-52" type="line"/>
      <point x="282" y="736" type="line"/>
      <point x="381" y="736" type="line"/>
      <point x="145" y="-52" type="line"/>
    </contour>
  </outline>
</glyph>
<glyph name="one" format="2">
  <advance width="573"/>
  <unicode hex="0031"/>
  <outline>
    <contour>
      <point x="271" y="0" type="line"/>
      <point x="406" y="0" type="line"/>
      <point x="406" y="722" type="line"/>
      <point x="281" y="722" type="line"/>
      <point x="231" y="672"/>
      <point x="165" y="635"/>
      <point x="100" y="610" type="curve"/>
      <point x="100" y="487" type="line"/>
      <point x="162" y="508"/>
      <point x="220" y="537"/>
      <point x="271" y="579" type="curve"/>
    </contour>
  </outline>
</glyph>
<glyph name="three" format="2">
  <advance width="573"/>
  <unicode hex="0033"/>
  <outline>
    <contour>
      <point x="46" y="203" type="curve"/>
      <point x="189" y="203" type="line"/>
      <point x="189" y="135.463"/>
      <point x="223.683" y="96"/>
      <point x="283.042" y="96" type="curve" smooth="yes"/>
      <point x="345.795" y="96"/>
      <point x="384" y="141.542"/>
      <point x="384" y="216.346" type="curve" smooth="yes"/>
      <point x="384" y="292.583"/>
      <point x="344.085" y="321"/>
      <point x="237" y="321" type="curve" smooth="yes"/>
      <point x="219" y="321" type="line"/>
      <point x="219" y="431" type="line"/>
      <point x="236" y="431" type="line" smooth="yes"/>
      <point x="321.178" y="431"/>
      <point x="368" y="468.792"/>
      <point x="368" y="537.542" type="curve" smooth="yes"/>
      <point x="368" y="594.457"/>
      <point x="337.178" y="626"/>
      <point x="281.564" y="626" type="curve" smooth="yes"/>
      <point x="222.46" y="626"/>
      <point x="187" y="590.751"/>
      <point x="187" y="532" type="curve"/>
      <point x="47" y="532" type="line"/>
      <point x="47" y="658.226"/>
      <point x="141.549" y="736"/>
      <point x="295" y="736" type="curve" smooth="yes"/>
      <point x="420.692" y="736"/>
      <point x="508" y="658.733"/>
      <point x="508" y="547.497" type="curve" smooth="yes"/>
      <point x="508" y="472.149"/>
      <point x="468.541" y="417.632"/>
      <point x="398.437" y="396.124" type="curve"/>
      <point x="398.437" y="400.124" type="line"/>
      <point x="482.919" y="377.62"/>
      <point x="527" y="314.283"/>
      <point x="527" y="215.403" type="curve" smooth="yes"/>
      <point x="527" y="74.0632"/>
      <point x="437.556" y="-14"/>
      <point x="294" y="-14" type="curve" smooth="yes"/>
      <point x="127.143" y="-14"/>
      <point x="46" y="57"/>
    </contour>
  </outline>
</glyph>
<glyph name="four" format="2">
  <advance width="573"/>
  <unicode hex="0034"/>
  <outline>
    <contour>
      <point x="133" y="273" type="line"/>
      <point x="139.025" y="262.593" type="line"/>
      <point x="332.975" y="600.407" type="line"/>
      <point x="327" y="602" type="line"/>
      <point x="327" y="0" type="line"/>
      <point x="462" y="0" type="line"/>
      <point x="462" y="722" type="line"/>
      <point x="287" y="722" type="line"/>
      <point x="22" y="288" type="line"/>
      <point x="22" y="158" type="line"/>
      <point x="342" y="158" type="line"/>
      <point x="342" y="273" type="line"/>
    </contour>
    <contour>
      <point x="447" y="158" type="line"/>
      <point x="447" y="273" type="line"/>
      <point x="552" y="273" type="line"/>
      <point x="552" y="158" type="line"/>
    </contour>
  </outline>
  <guideline angle="300.964" x="133" y="273"/>
  <guideline angle="0" x="0" y="705"/>
</glyph>
<glyph name="five" format="2">
  <advance width="573"/>
  <unicode hex="0035"/>
  <outline>
    <contour>
      <point x="326.86" y="491" type="curve" smooth="yes"/>
      <point x="264.147" y="491"/>
      <point x="212.533" y="467.8"/>
      <point x="182.575" y="432.644" type="curve"/>
      <point x="188.295" y="428.021" type="line"/>
      <point x="187.726" y="618.083" type="line"/>
      <point x="175.929" y="606" type="line"/>
      <point x="475" y="606" type="line"/>
      <point x="475" y="722" type="line"/>
      <point x="49" y="722" type="line"/>
      <point x="49" y="312" type="line"/>
      <point x="177.786" y="312" type="line"/>
      <point x="198" y="357"/>
      <point x="237" y="389"/>
      <point x="289.086" y="389" type="curve" smooth="yes"/>
      <point x="361" y="389"/>
      <point x="396" y="328"/>
      <point x="396" y="247" type="curve" smooth="yes"/>
      <point x="396" y="165"/>
      <point x="360" y="96"/>
      <point x="272" y="96" type="curve" smooth="yes"/>
      <point x="213" y="96"/>
      <point x="175" y="127"/>
      <point x="175" y="184" type="curve"/>
      <point x="39" y="184" type="line"/>
      <point x="46" y="53"/>
      <point x="135.688" y="-14"/>
      <point x="261" y="-14" type="curve" smooth="yes"/>
      <point x="430" y="-14"/>
      <point x="536" y="107"/>
      <point x="536" y="259" type="curve" smooth="yes"/>
      <point x="536" y="388"/>
      <point x="459" y="491"/>
    </contour>
  </outline>
</glyph>
<glyph name="eight" format="2">
  <advance width="573"/>
  <unicode hex="0038"/>
  <outline>
    <contour>
      <point x="183" y="211" type="curve" smooth="yes"/>
      <point x="183" y="140"/>
      <point x="223" y="95"/>
      <point x="287" y="95" type="curve" smooth="yes"/>
      <point x="351" y="95"/>
      <point x="393" y="141"/>
      <point x="393" y="211" type="curve" smooth="yes"/>
      <point x="393" y="282"/>
      <point x="352" y="327"/>
      <point x="287" y="327" type="curve" smooth="yes"/>
      <point x="223" y="327"/>
      <point x="183" y="282"/>
    </contour>
    <contour>
      <point x="287" y="439" type="curve" smooth="yes"/>
      <point x="343" y="439"/>
      <point x="378" y="474"/>
      <point x="378" y="531" type="curve" smooth="yes"/>
      <point x="378" y="587"/>
      <point x="342" y="624"/>
      <point x="287" y="624" type="curve" smooth="yes"/>
      <point x="231" y="624"/>
      <point x="195" y="587"/>
      <point x="195" y="531" type="curve" smooth="yes"/>
      <point x="195" y="475"/>
      <point x="231" y="439"/>
    </contour>
    <contour>
      <point x="540" y="194" type="curve" smooth="yes"/>
      <point x="540" y="65"/>
      <point x="445" y="-14"/>
      <point x="288" y="-14" type="curve" smooth="yes"/>
      <point x="131" y="-14"/>
      <point x="36" y="65"/>
      <point x="36" y="197" type="curve" smooth="yes"/>
      <point x="36" y="292"/>
      <point x="85" y="356"/>
      <point x="184" y="388" type="curve"/>
      <point x="96" y="413"/>
      <point x="48" y="470"/>
      <point x="48" y="550" type="curve" smooth="yes"/>
      <point x="48" y="663"/>
      <point x="142" y="736"/>
      <point x="289" y="736" type="curve" smooth="yes"/>
      <point x="434" y="736"/>
      <point x="525" y="664"/>
      <point x="525" y="553" type="curve" smooth="yes"/>
      <point x="525" y="469"/>
      <point x="472" y="409"/>
      <point x="382" y="388" type="curve"/>
      <point x="484" y="362"/>
      <point x="540" y="294"/>
    </contour>
  </outline>
  <guideline angle="0" x="0" y="383"/>
</glyph>
<glyph name="nine" format="2">
  <advance width="573"/>
  <unicode hex="0039"/>
  <outline>
    <contour>
      <point x="278" y="357" type="curve" smooth="yes"/>
      <point x="207" y="357"/>
      <point x="179" y="417"/>
      <point x="179" y="491" type="curve" smooth="yes"/>
      <point x="179" y="565"/>
      <point x="207" y="624"/>
      <point x="278" y="624" type="curve" smooth="yes"/>
      <point x="349" y="624"/>
      <point x="377" y="565"/>
      <point x="377" y="491" type="curve" smooth="yes"/>
      <point x="377" y="417"/>
      <point x="349" y="357"/>
    </contour>
    <contour>
      <point x="187" y="180" type="curve"/>
      <point x="47" y="180" type="line"/>
      <point x="47" y="67"/>
      <point x="135" y="-14"/>
      <point x="268" y="-14" type="curve" smooth="yes"/>
      <point x="471" y="-14"/>
      <point x="540" y="177"/>
      <point x="540" y="393" type="curve" smooth="yes"/>
      <point x="540" y="560"/>
      <point x="487" y="736"/>
      <point x="291" y="736" type="curve" smooth="yes"/>
      <point x="136" y="736"/>
      <point x="34" y="627"/>
      <point x="34" y="485" type="curve" smooth="yes"/>
      <point x="34" y="364"/>
      <point x="109" y="257"/>
      <point x="233" y="257" type="curve" smooth="yes"/>
      <point x="304" y="257"/>
      <point x="367" y="292"/>
      <point x="400" y="343" type="curve"/>
      <point x="400" y="242"/>
      <point x="383" y="93"/>
      <point x="275" y="93" type="curve" smooth="yes"/>
      <point x="220" y="93"/>
      <point x="187" y="132"/>
    </contour>
  </outline>
</glyph>
<glyph name="less" format="2">
  <advance width="720"/>
  <unicode hex="003C"/>
  <outline>
    <contour>
      <point x="30" y="209" type="line"/>
      <point x="30" y="391" type="line"/>
      <point x="690" y="621" type="line"/>
      <point x="690" y="499" type="line"/>
      <point x="142.75" y="295.823" type="line"/>
      <point x="142.75" y="304.177" type="line"/>
      <point x="690" y="101" type="line"/>
      <point x="690" y="-21" type="line"/>
    </contour>
  </outline>
  <guideline angle="19.2127" x="30" y="391"/>
  <guideline angle="200.361" x="690" y="499"/>
  <guideline angle="339.639" x="143" y="304"/>
  <guideline angle="160.787" x="690" y="-21"/>
  <guideline angle="90" x="690" y="0"/>
  <guideline angle="90" x="30" y="0"/>
  <guideline angle="90" x="-40" y="0"/>
</glyph>
<glyph name="greater" format="2">
  <advance width="1000"/>
  <unicode hex="003E"/>
  <outline>
    <contour>
      <point x="200" y="-21" type="line"/>
      <point x="200" y="101" type="line"/>
      <point x="736" y="300" type="line"/>
      <point x="200" y="499" type="line"/>
      <point x="200" y="621" type="line"/>
      <point x="860" y="391" type="line"/>
      <point x="860" y="209" type="line"/>
    </contour>
  </outline>
</glyph>
<glyph name="question" format="2">
  <advance width="539"/>
  <unicode hex="003F"/>
  <outline>
    <component base="period" xOffset="123" yOffset="5.11591e-13"/>
    <contour>
      <point x="341" y="548" type="curve" smooth="yes"/>
      <point x="341" y="601"/>
      <point x="303" y="632"/>
      <point x="247" y="632" type="curve" smooth="yes"/>
      <point x="186" y="632"/>
      <point x="152" y="596"/>
      <point x="116" y="532" type="curve"/>
      <point x="23" y="593" type="line"/>
      <point x="72" y="686"/>
      <point x="168" y="734"/>
      <point x="270" y="734" type="curve" smooth="yes"/>
      <point x="386" y="734"/>
      <point x="482" y="674"/>
      <point x="482" y="560" type="curve" smooth="yes"/>
      <point x="482" y="345.724"/>
      <point x="300" y="428.323"/>
      <point x="300" y="261" type="curve" smooth="yes"/>
      <point x="300" y="211" type="line"/>
      <point x="164" y="211" type="line"/>
      <point x="164" y="276" type="line" smooth="yes"/>
      <point x="164" y="435.974"/>
      <point x="341" y="386.468"/>
    </contour>
  </outline>
  <guideline angle="146.739" x="116" y="532"/>
  <guideline angle="0" x="0" y="734"/>
  <guideline angle="0" x="0" y="734"/>
  <guideline angle="62.2161" x="23" y="593"/>
  <guideline angle="60.6422" x="116" y="532"/>
  <guideline angle="90" x="209" y="0"/>
  <guideline angle="90" x="300" y="0"/>
</glyph>
<glyph name="C" format="2">
  <advance width="727"/>
  <unicode hex="0043"/>
  <anchor x="361" y="797" name="top"/>
  <anchor x="376" y="10" name="bottom"/>
  <outline>
    <contour>
      <point x="375" y="735" type="line"/>
      <point x="552" y="735"/>
      <point x="664" y="635"/>
      <point x="664" y="493" type="curve"/>
      <point x="519" y="493" type="line"/>
      <point x="519" y="561"/>
      <point x="466" y="622"/>
      <point x="381" y="622" type="curve"/>
    </contour>
    <contour>
      <point x="372" y="100" type="line"/>
      <point x="468" y="100"/>
      <point x="516" y="159"/>
      <point x="516" y="244" type="curve"/>
      <point x="667" y="244" type="line"/>
      <point x="667" y="106"/>
      <point x="560" y="-13"/>
      <point x="378" y="-13" type="curve"/>
    </contour>
    <contour>
      <point x="36" y="361" type="curve" smooth="yes"/>
      <point x="36" y="579"/>
      <point x="148" y="736"/>
      <point x="378" y="736" type="curve"/>
      <point x="378" y="622" type="line"/>
      <point x="238" y="622"/>
      <point x="187" y="531"/>
      <point x="187" y="361" type="curve" smooth="yes"/>
      <point x="187" y="191"/>
      <point x="238" y="100"/>
      <point x="378" y="100" type="curve"/>
      <point x="378" y="-14" type="line"/>
      <point x="148" y="-14"/>
      <point x="36" y="143"/>
    </contour>
  </outline>
</glyph>
<glyph name="D" format="2">
  <advance width="718"/>
  <unicode hex="0044"/>
  <anchor x="262" y="797" name="top"/>
  <outline>
    <component base="I" xOffset="-10"/>
    <contour>
      <point x="60" y="0" type="line"/>
      <point x="279" y="0" type="line" smooth="yes"/>
      <point x="508" y="0"/>
      <point x="664" y="125"/>
      <point x="664" y="359" type="curve" smooth="yes"/>
      <point x="664" y="599"/>
      <point x="499" y="720"/>
      <point x="279" y="720" type="curve" smooth="yes"/>
      <point x="60" y="720" type="line"/>
      <point x="195" y="605" type="line"/>
      <point x="279" y="605" type="line" smooth="yes"/>
      <point x="435" y="605"/>
      <point x="514" y="523"/>
      <point x="514" y="359" type="curve" smooth="yes"/>
      <point x="514" y="195"/>
      <point x="435" y="114"/>
      <point x="279" y="114" type="curve" smooth="yes"/>
      <point x="195" y="114" type="line"/>
    </contour>
  </outline>
</glyph>
<glyph name="E" format="2">
  <advance width="616"/>
  <unicode hex="0045"/>
  <anchor x="292" y="797" name="top"/>
  <anchor x="-13" y="722" name="tonos"/>
  <outline>
    <component base="I" xOffset="-10"/>
    <contour>
      <point x="210" y="722" type="line"/>
      <point x="537" y="722" type="line"/>
      <point x="537" y="607" type="line"/>
      <point x="210" y="607" type="line"/>
    </contour>
    <contour>
      <point x="210" y="115" type="line"/>
      <point x="547" y="115" type="line"/>
      <point x="547" y="0" type="line"/>
      <point x="210" y="0" type="line"/>
    </contour>
    <contour>
      <point x="210" y="429" type="line"/>
      <point x="517" y="429" type="line"/>
      <point x="517" y="317" type="line"/>
      <point x="210" y="317" type="line"/>
    </contour>
  </outline>
  <guideline angle="90" x="440" y="0"/>
  <guideline angle="90" x="70" y="0"/>
  <guideline angle="90" x="291" y="0"/>
  <guideline angle="90" x="221" y="0"/>
  <guideline angle="90" x="256" y="0"/>
</glyph>
<glyph name="F" format="2">
  <advance width="583"/>
  <unicode hex="0046"/>
  <anchor x="302" y="797" name="top"/>
  <outline>
    <component base="I"/>
    <contour>
      <point x="220" y="429" type="line"/>
      <point x="527" y="429" type="line"/>
      <point x="527" y="317" type="line"/>
      <point x="220" y="317" type="line"/>
    </contour>
    <contour>
      <point x="220" y="722" type="line"/>
      <point x="547" y="722" type="line"/>
      <point x="547" y="607" type="line"/>
      <point x="220" y="607" type="line"/>
    </contour>
  </outline>
</glyph>
<glyph name="G" format="2">
  <advance width="774"/>
  <unicode hex="0047"/>
  <anchor x="378" y="797" name="top"/>
  <outline>
    <contour>
      <point x="378" y="622" type="line"/>
      <point x="459" y="622"/>
      <point x="524" y="585"/>
      <point x="524" y="495" type="curve"/>
      <point x="675" y="495" type="line"/>
      <point x="675" y="662"/>
      <point x="551" y="736"/>
      <point x="378" y="736" type="curve"/>
    </contour>
    <contour>
      <point x="378" y="100" type="curve"/>
      <point x="378" y="-14" type="line"/>
      <point x="456" y="-14"/>
      <point x="572" y="1"/>
      <point x="677" y="31" type="curve"/>
      <point x="677" y="384" type="line"/>
      <point x="397" y="384" type="line"/>
      <point x="397" y="265" type="line"/>
      <point x="527" y="265" type="line"/>
      <point x="527" y="116" type="line"/>
      <point x="490" y="105"/>
      <point x="409" y="100"/>
    </contour>
    <contour>
      <point x="36" y="361" type="curve" smooth="yes"/>
      <point x="36" y="143"/>
      <point x="148" y="-14"/>
      <point x="378" y="-14" type="curve"/>
      <point x="378" y="100" type="line"/>
      <point x="238" y="100"/>
      <point x="187" y="191"/>
      <point x="187" y="361" type="curve" smooth="yes"/>
      <point x="187" y="531"/>
      <point x="238" y="622"/>
      <point x="378" y="622" type="curve"/>
      <point x="378" y="736" type="line"/>
      <point x="148" y="736"/>
      <point x="36" y="579"/>
    </contour>
  </outline>
  <guideline angle="90" x="378" y="0"/>
</glyph>
<glyph name="H" format="2">
  <advance width="705"/>
  <unicode hex="0048"/>
  <anchor x="353" y="797" name="top"/>
  <anchor x="353" y="-75" name="bottom"/>
  <anchor x="135" y="10" name="cedilla.bottom"/>
  <anchor x="-8" y="722" name="tonos"/>
  <outline>
    <component base="I" xOffset="-10"/>
    <component base="I" xOffset="425"/>
    <contour>
      <point x="180" y="436" type="line"/>
      <point x="180" y="320" type="line"/>
      <point x="525" y="320" type="line"/>
      <point x="525" y="436" type="line"/>
    </contour>
  </outline>
  <guideline angle="90" x="70" y="0"/>
  <guideline angle="90" x="550" y="0"/>
  <guideline angle="90" x="273" y="0"/>
  <guideline angle="90" x="234" y="0"/>
  <guideline angle="90" x="313" y="0"/>
</glyph>
<glyph name="I" format="2">
  <advance width="290"/>
  <unicode hex="0049"/>
  <anchor x="145" y="797" name="top"/>
  <anchor x="-8" y="722" name="tonos"/>
  <outline>
    <contour>
      <point x="70" y="0" type="line"/>
      <point x="220" y="0" type="line"/>
      <point x="220" y="722" type="line"/>
      <point x="70" y="722" type="line"/>
    </contour>
  </outline>
</glyph>
<glyph name="J" format="2">
  <advance width="581"/>
  <unicode hex="004A"/>
  <anchor x="424" y="797" name="top"/>
  <outline>
    <contour>
      <point x="10" y="227" type="curve"/>
      <point x="160" y="227" type="line"/>
      <point x="160" y="143"/>
      <point x="191" y="100"/>
      <point x="252" y="100" type="curve" smooth="yes"/>
      <point x="335" y="100"/>
      <point x="362" y="137"/>
      <point x="362" y="222" type="curve" smooth="yes"/>
      <point x="362" y="723" type="line"/>
      <point x="512" y="723" type="line"/>
      <point x="512" y="213" type="line" smooth="yes"/>
      <point x="512" y="70"/>
      <point x="400" y="-14"/>
      <point x="256" y="-14" type="curve" smooth="yes"/>
      <point x="91" y="-14"/>
      <point x="10" y="70"/>
    </contour>
  </outline>
</glyph>
<glyph name="L" format="2">
  <advance width="570"/>
  <unicode hex="004C"/>
  <anchor x="138" y="797" name="top"/>
  <outline>
    <component base="I"/>
    <contour>
      <point x="220" y="115" type="line"/>
      <point x="557" y="115" type="line"/>
      <point x="557" y="0" type="line"/>
      <point x="220" y="0" type="line"/>
    </contour>
  </outline>
</glyph>
<glyph name="N" format="2">
  <advance width="767"/>
  <unicode hex="004E"/>
  <anchor x="384" y="797" name="top"/>
  <outline>
    <contour>
      <point x="140.008" y="722" type="line"/>
      <point x="488" y="0" type="line"/>
      <point x="628.412" y="0" type="line"/>
      <point x="280" y="722" type="line"/>
    </contour>
    <contour>
      <point x="210" y="722" type="line"/>
      <point x="70" y="722" type="line"/>
      <point x="70" y="0" type="line"/>
      <point x="210" y="0" type="line"/>
    </contour>
    <contour>
      <point x="558" y="0" type="line"/>
      <point x="698" y="0" type="line"/>
      <point x="698" y="722" type="line"/>
      <point x="558" y="722" type="line"/>
    </contour>
  </outline>
  <guideline angle="295.725" x="280" y="722"/>
  <guideline angle="115.725" x="488" y="0"/>
</glyph>
<glyph name="O" format="2">
  <advance width="796"/>
  <unicode hex="004F"/>
  <anchor x="392" y="797" name="top"/>
  <anchor x="92" y="722" name="tonos"/>
  <outline>
    <contour>
      <point x="56" y="361" type="curve" smooth="yes"/>
      <point x="56" y="143"/>
      <point x="168" y="-14"/>
      <point x="398" y="-14" type="curve"/>
      <point x="398" y="100" type="line"/>
      <point x="258" y="100"/>
      <point x="207" y="191"/>
      <point x="207" y="361" type="curve" smooth="yes"/>
      <point x="207" y="531"/>
      <point x="258" y="622"/>
      <point x="398" y="622" type="curve"/>
      <point x="398" y="736" type="line"/>
      <point x="168" y="736"/>
      <point x="56" y="579"/>
    </contour>
    <contour>
      <point x="740" y="361" type="curve" smooth="yes"/>
      <point x="740" y="579"/>
      <point x="628" y="736"/>
      <point x="398" y="736" type="curve"/>
      <point x="398" y="622" type="line"/>
      <point x="538" y="622"/>
      <point x="589" y="531"/>
      <point x="589" y="361" type="curve" smooth="yes"/>
      <point x="589" y="191"/>
      <point x="538" y="100"/>
      <point x="398" y="100" type="curve"/>
      <point x="398" y="-14" type="line"/>
      <point x="628" y="-14"/>
      <point x="740" y="143"/>
    </contour>
  </outline>
  <guideline angle="90" x="80" y="0"/>
  <guideline angle="90" x="100" y="0"/>
  <guideline angle="0" x="0" y="704"/>
</glyph>
<glyph name="Q" format="2">
  <advance width="820"/>
  <unicode hex="0051"/>
  <anchor x="390" y="807" name="top"/>
  <outline>
    <component base="O"/>
    <contour>
      <point x="615.622" y="86.2256" type="line"/>
      <point x="670.973" y="102.576"/>
      <point x="733.715" y="111.74"/>
      <point x="800" y="115" type="curve"/>
      <point x="800" y="0" type="line"/>
      <point x="599" y="0" type="line" smooth="yes"/>
      <point x="552" y="0"/>
      <point x="497" y="-4"/>
      <point x="481" y="-7" type="curve" smooth="yes"/>
      <point x="464.2" y="-9.8" type="line"/>
    </contour>
  </outline>
</glyph>
<glyph name="U" format="2">
  <advance width="732"/>
  <unicode hex="0055"/>
  <anchor x="366" y="797" name="top"/>
  <anchor x="366" y="-88" name="bottom"/>
  <outline>
    <contour>
      <point x="60" y="299" type="line" smooth="yes"/>
      <point x="60" y="113"/>
      <point x="161" y="-13"/>
      <point x="361" y="-13" type="curve" smooth="yes"/>
      <point x="559" y="-13"/>
      <point x="672" y="106"/>
      <point x="672" y="299" type="curve" smooth="yes"/>
      <point x="672" y="722" type="line"/>
      <point x="527" y="722" type="line"/>
      <point x="527" y="299" type="line" smooth="yes"/>
      <point x="527" y="167"/>
      <point x="473" y="101"/>
      <point x="366" y="101" type="curve" smooth="yes"/>
      <point x="262" y="101"/>
      <point x="205" y="167"/>
      <point x="205" y="299" type="curve" smooth="yes"/>
      <point x="205" y="722" type="line"/>
      <point x="60" y="722" type="line"/>
    </contour>
  </outline>
  <guideline angle="90" x="366" y="0"/>
</glyph>
<glyph name="V" format="2">
  <advance width="738"/>
  <unicode hex="0056"/>
  <anchor x="369" y="797" name="top"/>
  <outline>
    <contour>
      <point x="728" y="722" type="line"/>
      <point x="568" y="722" type="line"/>
      <point x="364.95" y="155.704" type="line"/>
      <point x="373.05" y="155.704" type="line"/>
      <point x="170" y="722" type="line"/>
      <point x="10" y="722" type="line"/>
      <point x="275" y="0" type="line"/>
      <point x="453" y="0" type="line"/>
    </contour>
  </outline>
  <guideline angle="90" x="369" y="0"/>
  <guideline angle="110.155" x="275" y="0"/>
  <guideline angle="249.149" x="728" y="722"/>
  <guideline angle="70.2693" x="365" y="156"/>
  <guideline angle="289.731" x="170" y="722"/>
</glyph>
<glyph name="W" format="2">
  <advance width="1000"/>
  <unicode hex="0057"/>
  <anchor x="500" y="797" name="top"/>
  <outline>
    <contour>
      <point x="990" y="722" type="line"/>
      <point x="810" y="0" type="line"/>
      <point x="640" y="0" type="line"/>
      <point x="496.994" y="552.617" type="line"/>
      <point x="503.006" y="552.617" type="line"/>
      <point x="360" y="0" type="line"/>
      <point x="190" y="0" type="line"/>
      <point x="10" y="722" type="line"/>
      <point x="170" y="722" type="line"/>
      <point x="282.387" y="168.24" type="line"/>
      <point x="276.979" y="168.387" type="line"/>
      <point x="421" y="722" type="line"/>
      <point x="579" y="722" type="line"/>
      <point x="723.021" y="168.387" type="line"/>
      <point x="717.613" y="168.24" type="line"/>
      <point x="830" y="722" type="line"/>
    </contour>
  </outline>
  <guideline angle="103.999" x="190" y="0"/>
  <guideline angle="281.472" x="170" y="722"/>
  <guideline angle="75.4179" x="280" y="180"/>
  <guideline angle="255.491" x="500" y="541"/>
  <guideline angle="104.509" x="640" y="0"/>
  <guideline angle="284.582" x="579" y="722"/>
  <guideline angle="78.5275" x="720" y="180"/>
  <guideline angle="256.001" x="990" y="722"/>
  <guideline angle="104.498" x="640" y="0"/>
  <guideline angle="78.5708" x="718" y="168"/>
  <guideline angle="90" x="500" y="0"/>
</glyph>
<glyph name="X" format="2">
  <advance width="692"/>
  <unicode hex="0058"/>
  <anchor x="346" y="797" name="top"/>
  <outline>
    <contour>
      <point x="513" y="0" type="line"/>
      <point x="683" y="0" type="line"/>
      <point x="195.007" y="722" type="line"/>
      <point x="24.5379" y="722" type="line"/>
    </contour>
    <contour>
      <point x="270.351" y="388.46" type="line"/>
      <point x="10" y="0" type="line"/>
      <point x="160" y="0" type="line"/>
      <point x="342.041" y="286.663" type="line"/>
    </contour>
    <contour>
      <point x="419.572" y="363.591" type="line"/>
      <point x="663" y="722" type="line"/>
      <point x="508" y="722" type="line"/>
      <point x="347.008" y="466.307" type="line"/>
    </contour>
  </outline>
  <guideline angle="90" x="346" y="0"/>
  <guideline angle="0" x="0" y="353"/>
</glyph>
<glyph name="Y" format="2">
  <advance width="656"/>
  <unicode hex="0059"/>
  <anchor x="328" y="797" name="top"/>
  <outline>
    <contour>
      <point x="646" y="722" type="line"/>
      <point x="480" y="722" type="line"/>
      <point x="328.001" y="419" type="line"/>
      <point x="176" y="722" type="line"/>
      <point x="10" y="722" type="line"/>
      <point x="328" y="133.847" type="line"/>
    </contour>
    <contour>
      <point x="252" y="288" type="line"/>
      <point x="252" y="0" type="line"/>
      <point x="402" y="0" type="line"/>
      <point x="402" y="288" type="line"/>
    </contour>
  </outline>
  <guideline angle="90" x="328" y="0"/>
  <guideline angle="298.405" x="10" y="722"/>
  <guideline angle="61.5948" x="328" y="134"/>
</glyph>
<glyph name="bracketleft" format="2">
  <advance width="390"/>
  <unicode hex="005B"/>
  <outline>
    <contour>
      <point x="308" y="-198" type="line"/>
      <point x="308" y="-108" type="line"/>
      <point x="203" y="-108" type="line"/>
      <point x="203" y="632" type="line"/>
      <point x="308" y="632" type="line"/>
      <point x="308" y="722" type="line"/>
      <point x="83" y="722" type="line"/>
      <point x="83" y="-198" type="line"/>
    </contour>
  </outline>
</glyph>
<glyph name="backslash" format="2">
  <advance width="395"/>
  <unicode hex="005C"/>
  <outline>
    <contour>
      <point x="385" y="-52" type="line"/>
      <point x="246" y="-52" type="line"/>
      <point x="10" y="736" type="line"/>
      <point x="149" y="736" type="line"/>
    </contour>
  </outline>
</glyph>
<glyph name="asciicircum" format="2">
  <advance width="678"/>
  <unicode hex="005E"/>
  <outline>
    <contour>
      <point x="667.319" y="10" type="line"/>
      <point x="505.89" y="10" type="line"/>
      <point x="338" y="479.504" type="line"/>
      <point x="169.609" y="10" type="line"/>
      <point x="10.8281" y="10" type="line"/>
      <point x="231.116" y="610" type="line"/>
      <point x="444.253" y="610" type="line"/>
    </contour>
  </outline>
  <guideline angle="90" x="338" y="0"/>
  <guideline angle="249.528" x="178" y="460"/>
  <guideline angle="110.472" x="666" y="10"/>
</glyph>
<glyph name="underscore" format="2">
  <advance width="500"/>
  <unicode hex="005F"/>
  <outline>
    <contour>
      <point x="500" y="-180" type="line"/>
      <point x="0" y="-180" type="line"/>
      <point x="0" y="-64" type="line"/>
      <point x="500" y="-64" type="line"/>
    </contour>
  </outline>
</glyph>
<glyph name="grave" format="2">
  <advance width="294"/>
  <unicode hex="0060"/>
  <outline>
    <contour>
      <point x="249" y="600" type="line"/>
      <point x="158" y="780" type="line"/>
      <point x="28" y="780" type="line"/>
      <point x="179" y="600" type="line"/>
    </contour>
  </outline>
</glyph>
<glyph name="a" format="2">
  <advance width="550"/>
  <unicode hex="0061"/>
  <anchor x="275" y="600" name="top"/>
  <anchor x="275" y="-50" name="bottom"/>
  <anchor x="411" y="10" name="ogonekLC"/>
  <outline>
    <contour>
      <point x="44" y="139" type="curve" smooth="yes"/>
      <point x="44" y="50.8486"/>
      <point x="117.247" y="-14"/>
      <point x="220.731" y="-14" type="curve" smooth="yes"/>
      <point x="283.105" y="-14"/>
      <point x="328.497" y="11.2314"/>
      <point x="375.283" y="71.5201" type="curve"/>
      <point x="363.654" y="75.6258" type="line"/>
      <point x="368.563" y="41.0852"/>
      <point x="372.644" y="22.6799"/>
      <point x="381" y="0" type="curve"/>
      <point x="506" y="0" type="line"/>
      <point x="495" y="43"/>
      <point x="482.448" y="112.036"/>
      <point x="485" y="202" type="curve" smooth="yes"/>
      <point x="489" y="343.375" type="line" smooth="yes"/>
      <point x="492.528" y="467.348"/>
      <point x="435.508" y="514"/>
      <point x="280.949" y="514" type="curve" smooth="yes"/>
      <point x="148.53" y="514"/>
      <point x="64.9829" y="454"/>
      <point x="64.9829" y="364" type="curve"/>
      <point x="200.987" y="364" type="line"/>
      <point x="200.987" y="411"/>
      <point x="227.641" y="435"/>
      <point x="277.987" y="435" type="curve" smooth="yes"/>
      <point x="330.308" y="435"/>
      <point x="355" y="410"/>
      <point x="355" y="357.125" type="curve"/>
      <point x="355" y="197" type="line"/>
      <point x="355" y="122"/>
      <point x="322.41" y="76"/>
      <point x="268.115" y="76" type="curve" smooth="yes"/>
      <point x="221.871" y="76"/>
      <point x="180.235" y="107.871"/>
      <point x="180.235" y="147" type="curve" smooth="yes"/>
      <point x="180.235" y="215"/>
      <point x="226.654" y="230"/>
      <point x="310.564" y="230" type="curve" smooth="yes"/>
      <point x="337.876" y="230"/>
      <point x="362.322" y="227.515"/>
      <point x="395.906" y="222.544" type="curve"/>
      <point x="391.928" y="300.81" type="line"/>
      <point x="345.631" y="307.122"/>
      <point x="321.191" y="309"/>
      <point x="282.923" y="309" type="curve" smooth="yes"/>
      <point x="129.855" y="309"/>
      <point x="44" y="259.372"/>
    </contour>
  </outline>
  <guideline angle="90" x="275" y="0"/>
</glyph>
<glyph name="b" format="2">
  <advance width="608"/>
  <unicode hex="0062"/>
  <anchor x="312" y="797" name="top"/>
  <outline>
    <contour>
      <point x="60" y="0" type="line"/>
      <point x="60" y="722" type="line"/>
      <point x="195" y="722" type="line"/>
      <point x="195" y="423" type="line"/>
      <point x="179.948" y="422.974" type="line"/>
      <point x="179.713" y="111.804" type="line"/>
      <point x="195" y="111" type="line"/>
      <point x="195" y="0" type="line"/>
    </contour>
    <contour>
      <point x="170.237" y="78.1667" type="curve"/>
      <point x="170.219" y="429.893" type="line"/>
      <point x="230.022" y="492.766"/>
      <point x="272.49" y="514"/>
      <point x="337.411" y="514" type="curve" smooth="yes"/>
      <point x="479" y="514"/>
      <point x="564" y="413"/>
      <point x="564" y="252" type="curve" smooth="yes"/>
      <point x="564" y="88"/>
      <point x="475" y="-14"/>
      <point x="341.228" y="-14" type="curve" smooth="yes"/>
      <point x="268.912" y="-14"/>
      <point x="215.682" y="15.8089"/>
    </contour>
    <contour>
      <point x="192" y="246" type="curve" smooth="yes"/>
      <point x="192" y="149"/>
      <point x="246" y="75"/>
      <point x="317" y="75" type="curve" smooth="yes"/>
      <point x="385" y="75"/>
      <point x="429" y="143"/>
      <point x="429" y="243" type="curve" smooth="yes"/>
      <point x="429" y="352"/>
      <point x="376" y="429"/>
      <point x="305" y="429" type="curve" smooth="yes"/>
      <point x="236" y="429"/>
      <point x="192" y="355"/>
    </contour>
  </outline>
</glyph>
<glyph name="d" format="2">
  <advance width="605"/>
  <unicode hex="0064"/>
  <anchor x="287" y="748" name="top"/>
  <anchor x="610" y="722" name="caron_TR"/>
  <outline>
    <contour>
      <point x="411" y="0" type="line"/>
      <point x="411" y="722" type="line"/>
      <point x="546" y="722" type="line"/>
      <point x="546" y="0" type="line"/>
    </contour>
    <contour>
      <point x="44" y="252" type="curve" smooth="yes"/>
      <point x="44" y="400"/>
      <point x="118.552" y="514"/>
      <point x="267.379" y="514" type="curve" smooth="yes"/>
      <point x="342.851" y="514"/>
      <point x="395.633" y="487.111"/>
      <point x="423.056" y="434.032" type="curve"/>
      <point x="423.361" y="84.0467" type="line"/>
      <point x="397.569" y="29.2976"/>
      <point x="331.398" y="-14"/>
      <point x="275.414" y="-14" type="curve" smooth="yes"/>
      <point x="118.552" y="-14"/>
      <point x="44" y="104"/>
    </contour>
    <contour>
      <point x="179" y="245" type="curve" smooth="yes"/>
      <point x="179" y="167"/>
      <point x="208.125" y="76"/>
      <point x="291.483" y="76" type="curve" smooth="yes"/>
      <point x="374.841" y="76"/>
      <point x="412" y="165"/>
      <point x="412" y="253" type="curve" smooth="yes"/>
      <point x="412" y="316"/>
      <point x="392.918" y="428"/>
      <point x="298.513" y="428" type="curve" smooth="yes"/>
      <point x="207.121" y="428"/>
      <point x="179" y="321"/>
    </contour>
  </outline>
</glyph>
<glyph name="g" format="2">
  <advance width="605"/>
  <unicode hex="0067"/>
  <anchor x="295" y="590" name="top"/>
  <anchor x="264" y="590" name="cedilla.top"/>
  <outline>
    <contour>
      <point x="44" y="262" type="curve" smooth="yes"/>
      <point x="44" y="417"/>
      <point x="129" y="514"/>
      <point x="265" y="514" type="curve" smooth="yes"/>
      <point x="344" y="514"/>
      <point x="381" y="495"/>
      <point x="411" y="454" type="curve"/>
      <point x="411" y="500" type="line"/>
      <point x="546" y="500" type="line"/>
      <point x="546" y="5" type="line" smooth="yes"/>
      <point x="546" y="-137"/>
      <point x="444" y="-199"/>
      <point x="296" y="-199" type="curve" smooth="yes"/>
      <point x="202" y="-199"/>
      <point x="69" y="-174"/>
      <point x="69" y="-52" type="curve"/>
      <point x="204" y="-52" type="line"/>
      <point x="204" y="-98"/>
      <point x="250" y="-113"/>
      <point x="300" y="-113" type="curve" smooth="yes"/>
      <point x="391" y="-113"/>
      <point x="411" y="-63"/>
      <point x="411" y="49" type="curve" smooth="yes"/>
      <point x="411" y="81" type="line"/>
      <point x="383" y="47"/>
      <point x="338" y="0"/>
      <point x="272" y="0" type="curve" smooth="yes"/>
      <point x="117" y="0"/>
      <point x="44" y="118"/>
    </contour>
    <contour>
      <point x="297" y="86" type="curve" smooth="yes"/>
      <point x="375" y="86"/>
      <point x="411" y="162"/>
      <point x="411" y="252" type="curve" smooth="yes"/>
      <point x="411" y="314"/>
      <point x="394" y="428"/>
      <point x="298" y="428" type="curve" smooth="yes"/>
      <point x="212" y="428"/>
      <point x="179" y="338"/>
      <point x="179" y="256" type="curve" smooth="yes"/>
      <point x="179" y="174"/>
      <point x="212" y="86"/>
    </contour>
  </outline>
</glyph>
<glyph name="h" format="2">
  <advance width="586"/>
  <unicode hex="0068"/>
  <anchor x="293" y="796" name="top"/>
  <anchor x="293" y="-76" name="bottom"/>
  <anchor x="129" y="0" name="cedilla.bottom"/>
  <outline>
    <component base="l"/>
    <contour>
      <point x="176" y="279.357" type="line"/>
      <point x="196" y="279" type="line"/>
      <point x="196" y="376"/>
      <point x="234" y="432"/>
      <point x="302" y="432" type="curve" smooth="yes"/>
      <point x="362" y="432"/>
      <point x="391" y="388"/>
      <point x="391" y="299" type="curve" smooth="yes"/>
      <point x="391" y="0" type="line"/>
      <point x="527" y="0" type="line"/>
      <point x="527" y="339" type="line" smooth="yes"/>
      <point x="527" y="451"/>
      <point x="465" y="514"/>
      <point x="356" y="514" type="curve" smooth="yes"/>
      <point x="286" y="514"/>
      <point x="235.267" y="487.81"/>
      <point x="196" y="433" type="curve" smooth="yes"/>
      <point x="176" y="405.083" type="line"/>
    </contour>
  </outline>
  <guideline angle="90" x="170" y="0"/>
  <guideline angle="90" x="196" y="0"/>
</glyph>
<glyph name="i" format="2">
  <advance width="274"/>
  <unicode hex="0069"/>
  <outline>
    <component base="dotlessi"/>
    <contour>
      <point x="60" y="592" type="line"/>
      <point x="60" y="722" type="line"/>
      <point x="215" y="722" type="line"/>
      <point x="215" y="592" type="line"/>
    </contour>
  </outline>
</glyph>
<glyph name="j" format="2">
  <advance width="286"/>
  <unicode hex="006A"/>
  <outline>
    <component base="dotlessj"/>
    <contour>
      <point x="72" y="592" type="line"/>
      <point x="72" y="722" type="line"/>
      <point x="227" y="722" type="line"/>
      <point x="227" y="592" type="line"/>
    </contour>
  </outline>
</glyph>
<glyph name="l" format="2">
  <advance width="255"/>
  <unicode hex="006C"/>
  <anchor x="128" y="797" name="top"/>
  <anchor x="190" y="722" name="lcaron"/>
  <outline>
    <contour>
      <point x="60" y="0" type="line"/>
      <point x="196" y="0" type="line"/>
      <point x="196" y="722" type="line"/>
      <point x="60" y="722" type="line"/>
    </contour>
  </outline>
  <guideline angle="90" x="128" y="0"/>
</glyph>
<glyph name="m" format="2">
  <advance width="902"/>
  <unicode hex="006D"/>
  <outline>
    <contour>
      <point x="520" y="280.28" type="line"/>
      <point x="520" y="290" type="line" smooth="yes"/>
      <point x="520" y="365.853"/>
      <point x="566.736" y="429"/>
      <point x="622" y="429" type="curve" smooth="yes"/>
      <point x="670.5" y="429"/>
      <point x="708" y="382.035"/>
      <point x="708" y="320" type="curve" smooth="yes"/>
      <point x="708" y="0" type="line"/>
      <point x="843" y="0" type="line"/>
      <point x="843" y="329" type="line" smooth="yes"/>
      <point x="843" y="444.347"/>
      <point x="779.376" y="514"/>
      <point x="674.508" y="514" type="curve" smooth="yes"/>
      <point x="599.215" y="514"/>
      <point x="536.108" y="478.094"/>
      <point x="495.795" y="416.191" type="curve"/>
      <point x="496.072" y="279.887" type="line"/>
    </contour>
    <contour>
      <point x="195" y="427" type="curve" smooth="yes"/>
      <point x="175" y="398.99" type="line"/>
      <point x="175" y="288.805" type="line"/>
      <point x="195" y="289" type="line"/>
      <point x="195" y="364"/>
      <point x="243.75" y="429"/>
      <point x="300" y="429" type="curve" smooth="yes"/>
      <point x="348.835" y="429"/>
      <point x="385" y="382.624"/>
      <point x="385" y="320" type="curve" smooth="yes"/>
      <point x="385" y="0" type="line"/>
      <point x="520" y="0" type="line"/>
      <point x="520" y="391.422" type="line"/>
      <point x="500.11" y="462.822"/>
      <point x="430.793" y="514"/>
      <point x="356.448" y="514" type="curve" smooth="yes"/>
      <point x="294.91" y="514"/>
      <point x="232.379" y="478.936"/>
    </contour>
    <contour>
      <point x="60" y="0" type="line"/>
      <point x="195" y="0" type="line"/>
      <point x="195" y="499.833" type="line"/>
      <point x="60" y="499.833" type="line"/>
    </contour>
  </outline>
</glyph>
<glyph name="n" format="2">
  <advance width="586"/>
  <unicode hex="006E"/>
  <anchor x="293" y="580" name="top"/>
  <anchor x="299" y="-75" name="bottom"/>
  <outline>
    <component base="dotlessi"/>
    <contour>
      <point x="176" y="279.357" type="line"/>
      <point x="196" y="279" type="line"/>
      <point x="196" y="376"/>
      <point x="234" y="432"/>
      <point x="302" y="432" type="curve" smooth="yes"/>
      <point x="362" y="432"/>
      <point x="391" y="388"/>
      <point x="391" y="299" type="curve" smooth="yes"/>
      <point x="391" y="0" type="line"/>
      <point x="527" y="0" type="line"/>
      <point x="527" y="339" type="line" smooth="yes"/>
      <point x="527" y="451"/>
      <point x="465" y="514"/>
      <point x="356" y="514" type="curve" smooth="yes"/>
      <point x="286" y="514"/>
      <point x="235.267" y="487.81"/>
      <point x="196" y="433" type="curve" smooth="yes"/>
      <point x="176" y="405.083" type="line"/>
    </contour>
  </outline>
</glyph>
<glyph name="o" format="2">
  <advance width="604"/>
  <unicode hex="006F"/>
  <anchor x="302" y="600" name="top"/>
  <anchor x="302" y="-75" name="bottom"/>
  <anchor x="302" y="600" name="tonos.top"/>
  <outline>
    <contour>
      <point x="44" y="250" type="curve" smooth="yes"/>
      <point x="44" y="406"/>
      <point x="150" y="514"/>
      <point x="303" y="514" type="curve" smooth="yes"/>
      <point x="456" y="514"/>
      <point x="560" y="406"/>
      <point x="560" y="250" type="curve" smooth="yes"/>
      <point x="560" y="93"/>
      <point x="455" y="-14"/>
      <point x="303" y="-14" type="curve" smooth="yes"/>
      <point x="150" y="-14"/>
      <point x="44" y="94"/>
    </contour>
    <contour>
      <point x="179" y="250" type="curve" smooth="yes"/>
      <point x="179" y="135"/>
      <point x="223" y="72"/>
      <point x="302" y="72" type="curve" smooth="yes"/>
      <point x="381" y="72"/>
      <point x="425" y="135"/>
      <point x="425" y="250" type="curve" smooth="yes"/>
      <point x="425" y="365"/>
      <point x="381" y="428"/>
      <point x="302" y="428" type="curve" smooth="yes"/>
      <point x="223" y="428"/>
      <point x="179" y="365"/>
    </contour>
  </outline>
  <guideline angle="90" x="302" y="0"/>
</glyph>
<glyph name="p" format="2">
  <advance width="615"/>
  <unicode hex="0070"/>
  <outline>
    <contour>
      <point x="64" y="-198" type="line"/>
      <point x="64" y="399" type="line" smooth="yes"/>
      <point x="64" y="438"/>
      <point x="62" y="462"/>
      <point x="60" y="500" type="curve"/>
      <point x="196" y="500" type="line"/>
      <point x="198" y="478"/>
      <point x="199" y="459"/>
      <point x="199" y="432" type="curve"/>
      <point x="199" y="-198" type="line"/>
    </contour>
    <contour>
      <point x="177.237" y="78.1667" type="curve"/>
      <point x="177.219" y="429.893" type="line"/>
      <point x="237.022" y="492.766"/>
      <point x="279.49" y="514"/>
      <point x="344.411" y="514" type="curve" smooth="yes"/>
      <point x="486" y="514"/>
      <point x="571" y="413"/>
      <point x="571" y="252" type="curve" smooth="yes"/>
      <point x="571" y="88"/>
      <point x="482" y="-14"/>
      <point x="348.228" y="-14" type="curve" smooth="yes"/>
      <point x="275.912" y="-14"/>
      <point x="222.682" y="15.8089"/>
    </contour>
    <contour>
      <point x="199" y="246" type="curve" smooth="yes"/>
      <point x="199" y="149"/>
      <point x="253" y="75"/>
      <point x="324" y="75" type="curve" smooth="yes"/>
      <point x="392" y="75"/>
      <point x="436" y="143"/>
      <point x="436" y="243" type="curve" smooth="yes"/>
      <point x="436" y="352"/>
      <point x="383" y="429"/>
      <point x="312" y="429" type="curve" smooth="yes"/>
      <point x="243" y="429"/>
      <point x="199" y="355"/>
    </contour>
  </outline>
</glyph>
<glyph name="q" format="2">
  <advance width="606"/>
  <unicode hex="0071"/>
  <anchor x="273" y="600" name="top"/>
  <outline>
    <contour>
      <point x="412" y="500" type="line"/>
      <point x="412" y="-200" type="line"/>
      <point x="547" y="-200" type="line"/>
      <point x="547" y="500" type="line"/>
    </contour>
    <contour>
      <point x="44" y="252" type="curve" smooth="yes"/>
      <point x="44" y="104"/>
      <point x="118.552" y="-14"/>
      <point x="275.414" y="-14" type="curve" smooth="yes"/>
      <point x="331.398" y="-14"/>
      <point x="397.569" y="29.2976"/>
      <point x="423.361" y="84.0467" type="curve"/>
      <point x="423.056" y="434.032" type="line"/>
      <point x="395.633" y="487.111"/>
      <point x="342.851" y="514"/>
      <point x="267.379" y="514" type="curve" smooth="yes"/>
      <point x="118.552" y="514"/>
      <point x="44" y="400"/>
    </contour>
    <contour>
      <point x="179" y="245" type="curve" smooth="yes"/>
      <point x="179" y="321"/>
      <point x="207.121" y="428"/>
      <point x="298.513" y="428" type="curve" smooth="yes"/>
      <point x="392.918" y="428"/>
      <point x="412" y="316"/>
      <point x="412" y="253" type="curve" smooth="yes"/>
      <point x="412" y="165"/>
      <point x="374.841" y="76"/>
      <point x="291.483" y="76" type="curve" smooth="yes"/>
      <point x="208.125" y="76"/>
      <point x="179" y="167"/>
    </contour>
  </outline>
</glyph>
<glyph name="r" format="2">
  <advance width="390"/>
  <unicode hex="0072"/>
  <anchor x="214" y="580" name="top"/>
  <outline>
    <component base="dotlessi"/>
    <contour>
      <point x="195" y="422.209" type="curve" smooth="yes"/>
      <point x="175" y="385.21" type="line"/>
      <point x="175" y="254.974" type="line"/>
      <point x="195" y="255" type="line"/>
      <point x="195" y="353"/>
      <point x="264" y="398"/>
      <point x="366" y="398" type="curve"/>
      <point x="366" y="514" type="line"/>
      <point x="283.41" y="514"/>
      <point x="228.524" y="484.413"/>
    </contour>
  </outline>
  <guideline angle="90" x="195" y="0"/>
</glyph>
<glyph name="s" format="2">
  <advance width="516"/>
  <unicode hex="0073"/>
  <anchor x="248" y="0" name="cedilla.bottom"/>
  <outline>
    <contour>
      <point x="44" y="154" type="line"/>
      <point x="44" y="29"/>
      <point x="142" y="-14"/>
      <point x="249" y="-14" type="curve" smooth="yes"/>
      <point x="362" y="-14"/>
      <point x="472" y="35.1429"/>
      <point x="472" y="153.024" type="curve" smooth="yes"/>
      <point x="472" y="263"/>
      <point x="377" y="292"/>
      <point x="287" y="311" type="curve" smooth="yes"/>
      <point x="270.687" y="314.632" type="line" smooth="yes"/>
      <point x="214.485" y="328.023"/>
      <point x="186" y="345.134"/>
      <point x="186" y="379.342" type="curve" smooth="yes"/>
      <point x="186" y="408.74"/>
      <point x="208" y="428"/>
      <point x="244" y="428" type="curve" smooth="yes"/>
      <point x="304" y="428"/>
      <point x="325" y="408.74"/>
      <point x="328" y="354" type="curve"/>
      <point x="463" y="354" type="line"/>
      <point x="463" y="480.391"/>
      <point x="372" y="514"/>
      <point x="262" y="514" type="curve" smooth="yes"/>
      <point x="156" y="514"/>
      <point x="58" y="462.598"/>
      <point x="58" y="360.082" type="curve" smooth="yes"/>
      <point x="58" y="255.353"/>
      <point x="160.914" y="224.462"/>
      <point x="248.403" y="206.171" type="curve" smooth="yes"/>
      <point x="269" y="202" type="line" smooth="yes"/>
      <point x="304" y="195"/>
      <point x="344" y="175"/>
      <point x="344" y="134.476" type="curve" smooth="yes"/>
      <point x="344" y="96.4048"/>
      <point x="307" y="72"/>
      <point x="266" y="72" type="curve" smooth="yes"/>
      <point x="202" y="72"/>
      <point x="179" y="95.4286"/>
      <point x="179" y="154" type="curve"/>
    </contour>
  </outline>
  <guideline angle="0" x="0" y="259"/>
</glyph>
<glyph name="u" format="2">
  <advance width="586"/>
  <unicode hex="0075"/>
  <anchor x="293" y="600" name="top"/>
  <anchor x="293" y="-87" name="bottom"/>
  <outline>
    <component base="dotlessi" xOffset="331"/>
    <contour>
      <point x="60" y="159" type="line" smooth="yes"/>
      <point x="60" y="49"/>
      <point x="122" y="-14"/>
      <point x="234.488" y="-14" type="curve" smooth="yes"/>
      <point x="305.144" y="-14"/>
      <point x="351.196" y="10.8562"/>
      <point x="391" y="68" type="curve" smooth="yes"/>
      <point x="411" y="96.7129" type="line"/>
      <point x="411" y="221.131" type="line"/>
      <point x="391" y="221" type="line"/>
      <point x="391" y="124"/>
      <point x="353" y="67"/>
      <point x="285" y="67" type="curve" smooth="yes"/>
      <point x="226" y="67"/>
      <point x="196" y="111"/>
      <point x="196" y="199" type="curve" smooth="yes"/>
      <point x="196" y="500" type="line"/>
      <point x="60" y="500" type="line"/>
    </contour>
  </outline>
  <guideline angle="90" x="293" y="0"/>
</glyph>
<glyph name="v" format="2">
  <advance width="544"/>
  <unicode hex="0076"/>
  <anchor x="272" y="580" name="top"/>
  <outline>
    <contour>
      <point x="534" y="500" type="line"/>
      <point x="390" y="500" type="line"/>
      <point x="268.156" y="139.632" type="line"/>
      <point x="275.844" y="139.632" type="line"/>
      <point x="154" y="500" type="line"/>
      <point x="10" y="500" type="line"/>
      <point x="197" y="0" type="line"/>
      <point x="347" y="0" type="line"/>
    </contour>
  </outline>
  <guideline angle="90" x="272" y="0"/>
  <guideline angle="110.506" x="197" y="0"/>
  <guideline angle="288.721" x="154" y="500"/>
  <guideline angle="71.2791" x="268" y="140"/>
  <guideline angle="249.494" x="534" y="500"/>
  <guideline angle="0" x="0" y="21"/>
</glyph>
<glyph name="x" format="2">
  <advance width="547"/>
  <unicode hex="0078"/>
  <outline>
    <contour>
      <point x="537" y="0" type="line"/>
      <point x="187" y="500" type="line"/>
      <point x="27" y="500" type="line"/>
      <point x="377" y="0" type="line"/>
    </contour>
    <contour>
      <point x="196.299" y="280.495" type="line"/>
      <point x="10" y="0" type="line"/>
      <point x="160" y="0" type="line"/>
      <point x="272.59" y="191.938" type="line"/>
    </contour>
    <contour>
      <point x="353.557" y="255.602" type="line"/>
      <point x="520" y="500" type="line"/>
      <point x="370" y="500" type="line"/>
      <point x="277.491" y="340.015" type="line"/>
    </contour>
  </outline>
  <guideline angle="124.992" x="537" y="0"/>
  <guideline angle="59.5214" x="160" y="0"/>
  <guideline angle="236.404" x="196" y="280"/>
  <guideline angle="55.7715" x="354" y="256"/>
  <guideline angle="239.833" x="370" y="500"/>
  <guideline angle="90" x="214" y="0"/>
</glyph>
<glyph name="y" format="2">
  <advance width="543"/>
  <unicode hex="0079"/>
  <outline>
    <contour>
      <point x="135" y="-200" type="line"/>
      <point x="283" y="-200" type="line"/>
      <point x="533" y="500" type="line"/>
      <point x="390" y="500" type="line"/>
    </contour>
    <contour>
      <point x="285.151" y="165.912" type="line"/>
      <point x="163" y="500" type="line"/>
      <point x="10" y="500" type="line"/>
      <point x="215.571" y="-13.9271" type="line"/>
    </contour>
  </outline>
  <guideline angle="249.984" x="390" y="500"/>
  <guideline angle="70.3462" x="283" y="-200"/>
  <guideline angle="110.066" x="285" y="166"/>
  <guideline angle="291.84" x="10" y="500"/>
  <guideline angle="69.0265" x="216" y="-14"/>
</glyph>
<glyph name="z" format="2">
  <advance width="506"/>
  <unicode hex="007A"/>
  <outline>
    <contour>
      <point x="462" y="0" type="line"/>
      <point x="44" y="0" type="line"/>
      <point x="44" y="105" type="line"/>
      <point x="316.797" y="424.121" type="line"/>
      <point x="321" y="415" type="line"/>
      <point x="49" y="415" type="line"/>
      <point x="49" y="500" type="line"/>
      <point x="449" y="500" type="line"/>
      <point x="449" y="395" type="line"/>
      <point x="176.203" y="75.8785" type="line"/>
      <point x="172" y="85" type="line"/>
      <point x="462" y="85" type="line"/>
    </contour>
  </outline>
  <guideline angle="49.4431" x="44" y="105"/>
  <guideline angle="229.443" x="449" y="395"/>
  <guideline angle="49.4431" x="44" y="105"/>
</glyph>
<glyph name="sterling" format="2">
  <advance width="573"/>
  <unicode hex="00A3"/>
  <outline>
    <contour>
      <point x="129" y="558" type="line" smooth="yes"/>
      <point x="129" y="682"/>
      <point x="207" y="736"/>
      <point x="340" y="736" type="curve" smooth="yes"/>
      <point x="468" y="736"/>
      <point x="551" y="702"/>
      <point x="551" y="563" type="curve"/>
      <point x="416" y="563" type="line"/>
      <point x="416" y="622"/>
      <point x="391" y="651"/>
      <point x="342" y="651" type="curve" smooth="yes"/>
      <point x="290" y="651"/>
      <point x="264" y="619"/>
      <point x="264" y="554" type="curve" smooth="yes"/>
      <point x="264" y="451" type="line"/>
      <point x="399" y="451" type="line"/>
      <point x="399" y="367" type="line"/>
      <point x="264" y="367" type="line"/>
      <point x="264" y="85" type="line"/>
      <point x="550" y="85" type="line"/>
      <point x="550" y="0" type="line"/>
      <point x="56" y="0" type="line"/>
      <point x="56" y="85" type="line"/>
      <point x="129" y="85" type="line"/>
      <point x="129" y="367" type="line"/>
      <point x="56" y="367" type="line"/>
      <point x="56" y="451" type="line"/>
      <point x="129" y="451" type="line"/>
    </contour>
  </outline>
</glyph>
<glyph name="section" format="2">
  <advance width="467"/>
  <unicode hex="00A7"/>
  <outline>
    <contour>
      <point x="0.0068" y="291.831" type="curve" smooth="yes"/>
      <point x="0.0068" y="227.831"/>
      <point x="53.0547" y="188.461"/>
      <point x="96.0068" y="161.831" type="curve" smooth="yes"/>
      <point x="278" y="49" type="line" smooth="yes"/>
      <point x="298.574" y="36.2445"/>
      <point x="306" y="17"/>
      <point x="306" y="-1" type="curve" smooth="yes"/>
      <point x="306" y="-49.0172"/>
      <point x="256.826" y="-81"/>
      <point x="183" y="-81" type="curve" smooth="yes"/>
      <point x="148.985" y="-81"/>
      <point x="104" y="-63"/>
      <point x="49" y="-30" type="curve"/>
      <point x="49" y="-137" type="line"/>
      <point x="85.6152" y="-162.053"/>
      <point x="168.361" y="-177"/>
      <point x="213" y="-177" type="curve" smooth="yes"/>
      <point x="343.082" y="-177"/>
      <point x="431" y="-97.9543"/>
      <point x="431" y="19" type="curve" smooth="yes"/>
      <point x="431" y="69"/>
      <point x="394.907" y="117.534"/>
      <point x="323" y="159" type="curve" smooth="yes"/>
      <point x="136.007" y="266.831" type="line" smooth="yes"/>
      <point x="116.252" y="278.223"/>
      <point x="109.007" y="295.831"/>
      <point x="109.007" y="312.831" type="curve" smooth="yes"/>
      <point x="109.007" y="380.357"/>
      <point x="174.34" y="413.645"/>
      <point x="224.889" y="438.303" type="curve"/>
      <point x="143" y="487.028" type="line"/>
      <point x="63.8288" y="458.714"/>
      <point x="0.00701904" y="409.947"/>
    </contour>
    <contour>
      <point x="48" y="567" type="curve" smooth="yes"/>
      <point x="48" y="505.187"/>
      <point x="82.3761" y="452.346"/>
      <point x="153.841" y="413.313" type="curve" smooth="yes"/>
      <point x="331.094" y="316.5" type="line" smooth="yes"/>
      <point x="353.572" y="304.223"/>
      <point x="361.094" y="281.5"/>
      <point x="361.094" y="260.5" type="curve" smooth="yes"/>
      <point x="361.094" y="199.351"/>
      <point x="276.529" y="146.577"/>
      <point x="241.431" y="143.595" type="curve"/>
      <point x="344.292" y="88.9906" type="line"/>
      <point x="418.731" y="126.856"/>
      <point x="481.094" y="183.215"/>
      <point x="481.094" y="278.5" type="curve" smooth="yes"/>
      <point x="481.094" y="341.5"/>
      <point x="432.904" y="385.183"/>
      <point x="391.094" y="410.5" type="curve" smooth="yes"/>
      <point x="202" y="525" type="line" smooth="yes"/>
      <point x="181.399" y="537.474"/>
      <point x="175" y="558"/>
      <point x="175" y="576" type="curve" smooth="yes"/>
      <point x="175" y="611"/>
      <point x="218" y="642"/>
      <point x="254" y="642" type="curve" smooth="yes"/>
      <point x="295" y="642"/>
      <point x="344" y="626"/>
      <point x="400" y="593" type="curve"/>
      <point x="400" y="692" type="line"/>
      <point x="356.5" y="722"/>
      <point x="317.365" y="734"/>
      <point x="245" y="734" type="curve" smooth="yes"/>
      <point x="132.591" y="734"/>
      <point x="48" y="663.115"/>
    </contour>
  </outline>
  <guideline angle="148.903" x="391" y="411"/>
  <guideline angle="331.526" x="154" y="413"/>
  <guideline angle="149.992" x="323" y="159"/>
  <guideline angle="328.165" x="96" y="162"/>
</glyph>
<glyph name="dieresis" format="2">
  <advance width="439"/>
  <unicode hex="00A8"/>
  <anchor x="219" y="822" name="top.mkmk"/>
  <outline>
    <contour>
      <point x="380" y="630" type="line"/>
      <point x="380" y="750" type="line"/>
      <point x="270" y="750" type="line"/>
      <point x="270" y="630" type="line"/>
    </contour>
    <contour>
      <point x="170" y="630" type="line"/>
      <point x="170" y="750" type="line"/>
      <point x="60" y="750" type="line"/>
      <point x="60" y="630" type="line"/>
    </contour>
  </outline>
  <guideline angle="90" x="270" y="0"/>
  <guideline angle="90" x="184" y="0"/>
</glyph>
<glyph name="copyright" format="2">
  <advance width="867"/>
  <unicode hex="00A9"/>
  <outline>
    <contour>
      <point x="233" y="353" type="curve" smooth="yes"/>
      <point x="233" y="475.943"/>
      <point x="299.036" y="586"/>
      <point x="433" y="586" type="curve" smooth="yes"/>
      <point x="538.312" y="586"/>
      <point x="620" y="527.063"/>
      <point x="620" y="416" type="curve"/>
      <point x="506" y="416" type="line"/>
      <point x="501" y="478"/>
      <point x="479" y="509"/>
      <point x="439" y="509" type="curve" smooth="yes"/>
      <point x="360.09" y="509"/>
      <point x="350" y="451.853"/>
      <point x="350" y="389" type="curve" smooth="yes"/>
      <point x="350" y="356" type="line" smooth="yes"/>
      <point x="350" y="295.55"/>
      <point x="354.736" y="206"/>
      <point x="428" y="206" type="curve" smooth="yes"/>
      <point x="488" y="206"/>
      <point x="501" y="246"/>
      <point x="501" y="308" type="curve"/>
      <point x="618" y="308" type="line"/>
      <point x="618" y="197.627"/>
      <point x="539.633" y="130"/>
      <point x="432" y="130" type="curve" smooth="yes"/>
      <point x="299.695" y="130"/>
      <point x="233" y="228.733"/>
    </contour>
    <contour>
      <point x="59" y="360" type="curve" smooth="yes"/>
      <point x="59" y="568.624"/>
      <point x="224.026" y="735"/>
      <point x="433" y="735" type="curve" smooth="yes"/>
      <point x="641.624" y="735"/>
      <point x="808" y="569.974"/>
      <point x="808" y="361" type="curve" smooth="yes"/>
      <point x="808" y="151.967"/>
      <point x="642.599" y="-16"/>
      <point x="433" y="-16" type="curve" smooth="yes"/>
      <point x="223.294" y="-16"/>
      <point x="59" y="150.929"/>
    </contour>
    <contour>
      <point x="125" y="358" type="curve" smooth="yes"/>
      <point x="125" y="186.249"/>
      <point x="261.249" y="50"/>
      <point x="433" y="50" type="curve" smooth="yes"/>
      <point x="604.907" y="50"/>
      <point x="739" y="184.293"/>
      <point x="739" y="356" type="curve" smooth="yes"/>
      <point x="739" y="526.78"/>
      <point x="603.658" y="666"/>
      <point x="432" y="666" type="curve" smooth="yes"/>
      <point x="260.702" y="666"/>
      <point x="125" y="529.016"/>
    </contour>
  </outline>
  <guideline angle="90" x="432" y="0"/>
  <guideline angle="0" x="0" y="355"/>
</glyph>
<glyph name="macron" format="2">
  <advance width="380"/>
  <unicode hex="00AF"/>
  <anchor x="190" y="600" name="_top"/>
  <anchor x="190" y="784" name="_bottom"/>
  <anchor x="430" y="659" name="_left"/>
  <anchor x="190" y="609" name="_top.mkmk"/>
  <outline>
    <contour>
      <point x="380" y="609" type="line"/>
      <point x="380" y="709" type="line"/>
      <point x="0" y="709" type="line"/>
      <point x="0" y="609" type="line"/>
    </contour>
  </outline>
  <guideline angle="0" x="0" y="669"/>
  <guideline angle="90" x="190" y="0"/>
  <guideline angle="90" x="145" y="0"/>
</glyph>
<glyph name="degree" format="2">
  <advance width="320"/>
  <unicode hex="00B0"/>
  <outline>
    <contour>
      <point x="160" y="730" type="curve" smooth="yes"/>
      <point x="225" y="730"/>
      <point x="280" y="676"/>
      <point x="280" y="610" type="curve" smooth="yes"/>
      <point x="280" y="545"/>
      <point x="225" y="490"/>
      <point x="160" y="490" type="curve" smooth="yes"/>
      <point x="94" y="490"/>
      <point x="40" y="545"/>
      <point x="40" y="610" type="curve" smooth="yes"/>
      <point x="40" y="676"/>
      <point x="94" y="730"/>
    </contour>
    <contour>
      <point x="160" y="550" type="curve" smooth="yes"/>
      <point x="192" y="550"/>
      <point x="220" y="578"/>
      <point x="220" y="610" type="curve" smooth="yes"/>
      <point x="220" y="643"/>
      <point x="193" y="670"/>
      <point x="160" y="670" type="curve" smooth="yes"/>
      <point x="128" y="670"/>
      <point x="100" y="642"/>
      <point x="100" y="610" type="curve" smooth="yes"/>
      <point x="100" y="577"/>
      <point x="127" y="550"/>
    </contour>
  </outline>
</glyph>
<glyph name="threesuperior" format="2">
  <advance width="366"/>
  <unicode hex="00B3"/>
  <outline>
    <contour>
      <point x="31" y="457" type="curve"/>
      <point x="131" y="457" type="line"/>
      <point x="131" y="418.561"/>
      <point x="146.363" y="400"/>
      <point x="178.179" y="400" type="curve" smooth="yes"/>
      <point x="210.971" y="400"/>
      <point x="229" y="419.854"/>
      <point x="229" y="455.964" type="curve" smooth="yes"/>
      <point x="229" y="498.243"/>
      <point x="204.928" y="522.855"/>
      <point x="146.235" y="522.855" type="curve" smooth="yes"/>
      <point x="132" y="522.855" type="line"/>
      <point x="132" y="581.764" type="line"/>
      <point x="150.644" y="581.764" type="line" smooth="yes"/>
      <point x="200.349" y="581.764"/>
      <point x="220" y="601.97"/>
      <point x="220" y="638.209" type="curve" smooth="yes"/>
      <point x="220" y="669.383"/>
      <point x="204.729" y="686"/>
      <point x="176.078" y="686" type="curve" smooth="yes"/>
      <point x="146.513" y="686"/>
      <point x="131" y="668.449"/>
      <point x="131" y="635" type="curve"/>
      <point x="32" y="635" type="line"/>
      <point x="32" y="701.419"/>
      <point x="89.3848" y="745"/>
      <point x="176.843" y="745" type="curve" smooth="yes"/>
      <point x="264.879" y="745"/>
      <point x="324" y="700.003"/>
      <point x="324" y="633" type="curve" smooth="yes"/>
      <point x="324" y="589.094"/>
      <point x="298.378" y="562.855"/>
      <point x="241" y="548" type="curve"/>
      <point x="241" y="552" type="line"/>
      <point x="299.862" y="542.825"/>
      <point x="332" y="509.849"/>
      <point x="332" y="459.775" type="curve" smooth="yes"/>
      <point x="332" y="390.945"/>
      <point x="271.276" y="342"/>
      <point x="173.002" y="342" type="curve" smooth="yes"/>
      <point x="83.5461" y="342"/>
      <point x="31" y="382.556"/>
    </contour>
  </outline>
</glyph>
<glyph name="acute" format="2">
  <advance width="221"/>
  <unicode hex="00B4"/>
  <outline>
    <contour>
      <point x="262" y="780" type="line"/>
      <point x="111" y="600" type="line"/>
      <point x="41" y="600" type="line"/>
      <point x="132" y="780" type="line"/>
    </contour>
  </outline>
</glyph>
<glyph name="cedilla" format="2">
  <advance width="250"/>
  <unicode hex="00B8"/>
  <anchor x="201" y="19" name="_cedilla.bottom"/>
  <outline>
    <contour>
      <point x="290" y="-163.832" type="curve" smooth="yes"/>
      <point x="290" y="-229.683"/>
      <point x="236.861" y="-265"/>
      <point x="166.004" y="-265" type="curve" smooth="yes"/>
      <point x="148.733" y="-265"/>
      <point x="126.961" y="-262.902"/>
      <point x="95.0119" y="-256" type="curve"/>
      <point x="95.0119" y="-196" type="line"/>
      <point x="129.749" y="-207.158"/>
      <point x="157.695" y="-209"/>
      <point x="165.768" y="-209" type="curve" smooth="yes"/>
      <point x="189.851" y="-209"/>
      <point x="205" y="-192.608"/>
      <point x="205" y="-170.608" type="curve" smooth="yes"/>
      <point x="205" y="-132.819"/>
      <point x="157.695" y="-121"/>
      <point x="126" y="-121" type="curve" smooth="yes"/>
      <point x="100" y="-121" type="line"/>
      <point x="170" y="19" type="line"/>
      <point x="240" y="19" type="line"/>
      <point x="191" y="-71" type="line"/>
      <point x="248.618" y="-71"/>
      <point x="290" y="-105.015"/>
    </contour>
  </outline>
  <guideline angle="63.4349" x="100" y="-121"/>
  <guideline angle="241.434" x="240" y="19"/>
  <guideline angle="0" x="0" y="-53"/>
  <guideline angle="0" x="0" y="-73"/>
</glyph>
<glyph name="ordmasculine" format="2">
  <advance width="411"/>
  <unicode hex="00BA"/>
  <outline>
    <contour>
      <point x="25" y="524" type="curve" smooth="yes"/>
      <point x="25" y="649.518"/>
      <point x="99.2683" y="709"/>
      <point x="206" y="709" type="curve" smooth="yes"/>
      <point x="313.143" y="709"/>
      <point x="387" y="650.345"/>
      <point x="387" y="524" type="curve" smooth="yes"/>
      <point x="387" y="397.129"/>
      <point x="314.133" y="339"/>
      <point x="206" y="339" type="curve" smooth="yes"/>
      <point x="97.8673" y="339"/>
      <point x="25" y="397.129"/>
    </contour>
    <contour>
      <point x="121" y="525" type="curve" smooth="yes"/>
      <point x="121" y="456"/>
      <point x="143" y="399"/>
      <point x="206" y="399" type="curve" smooth="yes"/>
      <point x="269" y="399"/>
      <point x="291" y="456"/>
      <point x="291" y="525" type="curve" smooth="yes"/>
      <point x="291" y="594"/>
      <point x="269" y="650"/>
      <point x="206" y="650" type="curve" smooth="yes"/>
      <point x="143" y="650"/>
      <point x="121" y="594"/>
    </contour>
    <contour>
      <point x="33" y="230" type="line"/>
      <point x="33" y="277" type="line"/>
      <point x="386" y="277" type="line"/>
      <point x="386" y="230" type="line"/>
    </contour>
  </outline>
</glyph>
<glyph name="onequarter" format="2">
  <advance width="799"/>
  <unicode hex="00BC"/>
  <outline>
    <component base="onesuperior"/>
    <component base="fraction" xOffset="100"/>
    <contour>
      <point x="522.646" y="121.82" type="line"/>
      <point x="628.354" y="291.18" type="line"/>
      <point x="622" y="293" type="line"/>
      <point x="622" y="-14" type="line"/>
      <point x="718" y="-14" type="line"/>
      <point x="718" y="372" type="line"/>
      <point x="603" y="372" type="line"/>
      <point x="444" y="140" type="line"/>
      <point x="444" y="71" type="line"/>
      <point x="762" y="71" type="line"/>
      <point x="762" y="132" type="line"/>
      <point x="517" y="132" type="line"/>
    </contour>
  </outline>
  <guideline angle="58.1472" x="523" y="122"/>
  <guideline angle="235.575" x="603" y="372"/>
</glyph>
<glyph name="onehalf" format="2">
  <advance width="799"/>
  <unicode hex="00BD"/>
  <outline>
    <component base="onesuperior"/>
    <component base="twosuperior" xOffset="418" yOffset="-351"/>
    <contour>
      <point x="630" y="737" type="line"/>
      <point x="204" y="-13" type="line"/>
      <point x="105" y="-13" type="line"/>
      <point x="531" y="737" type="line"/>
    </contour>
  </outline>
</glyph>
<glyph name="threequarters" format="2">
  <advance width="799"/>
  <unicode hex="00BE"/>
  <outline>
    <component base="threesuperior"/>
    <component base="fraction" xOffset="141" yOffset="1.13687e-13"/>
    <contour>
      <point x="522.646" y="121.82" type="line"/>
      <point x="628.354" y="291.18" type="line"/>
      <point x="622" y="293" type="line"/>
      <point x="622" y="-14" type="line"/>
      <point x="718" y="-14" type="line"/>
      <point x="718" y="372" type="line"/>
      <point x="603" y="372" type="line"/>
      <point x="444" y="140" type="line"/>
      <point x="444" y="71" type="line"/>
      <point x="762" y="71" type="line"/>
      <point x="762" y="132" type="line"/>
      <point x="517" y="132" type="line"/>
    </contour>
  </outline>
</glyph>
<glyph name="AE" format="2">
  <advance width="1026"/>
  <unicode hex="00C6"/>
  <outline>
    <component base="I" xOffset="80" yOffset="0.0045"/>
    <contour>
      <point x="10" y="0" type="line"/>
      <point x="153" y="0" type="line"/>
      <point x="480.012" y="610.26" type="line"/>
      <point x="479.978" y="722" type="line"/>
      <point x="398" y="722" type="line"/>
    </contour>
    <contour>
      <point x="229" y="173" type="line"/>
      <point x="485" y="173" type="line"/>
      <point x="485" y="285" type="line"/>
      <point x="290" y="285" type="line"/>
    </contour>
    <contour>
      <point x="620" y="0.0045" type="line"/>
      <point x="957" y="0.0045" type="line"/>
      <point x="957" y="115.004" type="line"/>
      <point x="620" y="115.004" type="line"/>
    </contour>
    <contour>
      <point x="620" y="317.004" type="line"/>
      <point x="927" y="317.004" type="line"/>
      <point x="927" y="429.004" type="line"/>
      <point x="620" y="429.004" type="line"/>
    </contour>
    <contour>
      <point x="620" y="607.004" type="line"/>
      <point x="947" y="607.004" type="line"/>
      <point x="947" y="722.004" type="line"/>
      <point x="620" y="722.004" type="line"/>
    </contour>
  </outline>
</glyph>
<glyph name="Eth" format="2">
  <advance width="728"/>
  <unicode hex="00D0"/>
  <outline>
    <component base="D" xOffset="10"/>
    <contour>
      <point x="0" y="405" type="line"/>
      <point x="0" y="315" type="line"/>
      <point x="360" y="315" type="line"/>
      <point x="360" y="405" type="line"/>
    </contour>
  </outline>
</glyph>
<glyph name="Oslash" format="2">
  <advance width="796"/>
  <unicode hex="00D8"/>
  <outline>
    <component base="O"/>
    <contour>
      <point x="191.746" y="-14" type="line"/>
      <point x="92.8916" y="-14" type="line"/>
      <point x="600.599" y="736" type="line"/>
      <point x="693.344" y="736" type="line"/>
    </contour>
  </outline>
  <guideline angle="0" x="0" y="736"/>
  <guideline angle="0" x="0" y="-14"/>
</glyph>
<glyph name="Thorn" format="2">
  <advance width="647"/>
  <unicode hex="00DE"/>
  <outline>
    <contour>
      <point x="60" y="0" type="line"/>
      <point x="210" y="0" type="line"/>
      <point x="210" y="722" type="line"/>
      <point x="60" y="722" type="line"/>
    </contour>
    <contour>
      <point x="195" y="163" type="line"/>
      <point x="310" y="163" type="line" smooth="yes"/>
      <point x="473" y="163"/>
      <point x="591" y="223"/>
      <point x="591" y="381" type="curve" smooth="yes"/>
      <point x="591" y="538"/>
      <point x="473" y="601"/>
      <point x="310" y="601" type="curve" smooth="yes"/>
      <point x="195" y="601" type="line"/>
      <point x="195" y="486" type="line"/>
      <point x="310" y="486" type="line" smooth="yes"/>
      <point x="395" y="486"/>
      <point x="441" y="459"/>
      <point x="441" y="381" type="curve" smooth="yes"/>
      <point x="441" y="304"/>
      <point x="394" y="278"/>
      <point x="310" y="278" type="curve" smooth="yes"/>
      <point x="195" y="278" type="line"/>
    </contour>
  </outline>
</glyph>
<glyph name="germandbls" format="2">
  <advance width="634"/>
  <unicode hex="00DF"/>
  <outline>
    <contour>
      <point x="60" y="0" type="line"/>
      <point x="60" y="546" type="line" smooth="yes"/>
      <point x="60" y="673"/>
      <point x="138" y="737"/>
      <point x="295" y="737" type="curve" smooth="yes"/>
      <point x="390.711" y="737"/>
      <point x="510" y="699.172"/>
      <point x="510" y="590.159" type="curve" smooth="yes"/>
      <point x="510" y="469.69"/>
      <point x="387" y="436.065"/>
      <point x="387" y="384.248" type="curve" smooth="yes"/>
      <point x="387" y="312.613"/>
      <point x="580" y="303.491"/>
      <point x="580" y="152.48" type="curve" smooth="yes"/>
      <point x="580" y="56"/>
      <point x="506" y="-13"/>
      <point x="381.978" y="-13" type="curve" smooth="yes"/>
      <point x="285.482" y="-13"/>
      <point x="228.396" y="28.7705"/>
      <point x="228" y="139" type="curve"/>
      <point x="342" y="139" type="line"/>
      <point x="342" y="93"/>
      <point x="360" y="71"/>
      <point x="395.106" y="71" type="curve" smooth="yes"/>
      <point x="431" y="71"/>
      <point x="445" y="94"/>
      <point x="445" y="140" type="curve" smooth="yes"/>
      <point x="445" y="247.021"/>
      <point x="246" y="237.545"/>
      <point x="246" y="370" type="curve" smooth="yes"/>
      <point x="246" y="450.872"/>
      <point x="375" y="484.028"/>
      <point x="375" y="583.343" type="curve" smooth="yes"/>
      <point x="375" y="626"/>
      <point x="347" y="651"/>
      <point x="289.757" y="651" type="curve" smooth="yes"/>
      <point x="223" y="651"/>
      <point x="195" y="617"/>
      <point x="195" y="546" type="curve" smooth="yes"/>
      <point x="195" y="0" type="line"/>
    </contour>
  </outline>
</glyph>
<glyph name="ae" format="2">
  <advance width="890"/>
  <unicode hex="00E6"/>
  <outline>
    <contour>
      <point x="63" y="362" type="line"/>
      <point x="63" y="463"/>
      <point x="176.915" y="515"/>
      <point x="286" y="515" type="curve" smooth="yes"/>
      <point x="357" y="515"/>
      <point x="412.571" y="487"/>
      <point x="453.143" y="431" type="curve"/>
      <point x="490.77" y="489.399"/>
      <point x="537.383" y="514"/>
      <point x="617" y="514" type="curve" smooth="yes"/>
      <point x="761.524" y="514"/>
      <point x="843.79" y="429.842"/>
      <point x="843.79" y="262.93" type="curve" smooth="yes"/>
      <point x="843.79" y="240" type="line"/>
      <point x="512" y="240" type="line"/>
      <point x="512" y="180.753"/>
      <point x="535.47" y="71"/>
      <point x="613" y="71" type="curve" smooth="yes"/>
      <point x="664" y="71"/>
      <point x="694" y="106"/>
      <point x="700" y="155" type="curve"/>
      <point x="836" y="155" type="line"/>
      <point x="825" y="42"/>
      <point x="750" y="-14"/>
      <point x="611" y="-14" type="curve" smooth="yes"/>
      <point x="534.106" y="-14"/>
      <point x="471.158" y="32.8724"/>
      <point x="443" y="97" type="curve"/>
      <point x="396.343" y="40"/>
      <point x="320" y="-13"/>
      <point x="226" y="-13" type="curve" smooth="yes"/>
      <point x="138.147" y="-13"/>
      <point x="46" y="41.9944"/>
      <point x="46" y="140" type="curve" smooth="yes"/>
      <point x="46" y="271.632"/>
      <point x="160.5" y="318"/>
      <point x="271" y="318" type="curve" smooth="yes"/>
      <point x="290.39" y="318"/>
      <point x="342.61" y="317"/>
      <point x="372" y="314" type="curve"/>
      <point x="372" y="385"/>
      <point x="356" y="434"/>
      <point x="284" y="434" type="curve" smooth="yes"/>
      <point x="239.612" y="434"/>
      <point x="199" y="410.011"/>
      <point x="199" y="362" type="curve"/>
    </contour>
    <contour>
      <point x="182" y="149" type="curve" smooth="yes"/>
      <point x="182" y="110"/>
      <point x="224" y="77"/>
      <point x="265" y="77" type="curve" smooth="yes"/>
      <point x="356.996" y="77"/>
      <point x="369.965" y="156.051"/>
      <point x="369.965" y="232.671" type="curve" smooth="yes"/>
      <point x="369.965" y="242" type="line"/>
      <point x="334.965" y="243"/>
      <point x="310" y="243"/>
      <point x="295" y="242" type="curve" smooth="yes"/>
      <point x="218" y="237"/>
      <point x="182" y="206"/>
    </contour>
    <contour>
      <point x="704" y="315" type="line"/>
      <point x="704" y="380"/>
      <point x="674" y="429"/>
      <point x="608" y="429" type="curve" smooth="yes"/>
      <point x="541" y="429"/>
      <point x="512" y="381"/>
      <point x="512" y="315" type="curve"/>
    </contour>
  </outline>
</glyph>
<glyph name="eth" format="2">
  <advance width="604"/>
  <unicode hex="00F0"/>
  <outline>
    <contour>
      <point x="44" y="248" type="curve" smooth="yes"/>
      <point x="44" y="83.8463"/>
      <point x="142.278" y="-17"/>
      <point x="307.534" y="-17" type="curve" smooth="yes"/>
      <point x="474.997" y="-17"/>
      <point x="558" y="84.3045"/>
      <point x="558" y="247" type="curve" smooth="yes"/>
      <point x="558" y="500"/>
      <point x="454.617" y="627"/>
      <point x="206.126" y="736" type="curve"/>
      <point x="140.658" y="688.909" type="line"/>
      <point x="230.51" y="649.49"/>
      <point x="331.77" y="567.779"/>
      <point x="368.363" y="495.445" type="curve"/>
      <point x="374.28" y="501.386" type="line"/>
      <point x="350.816" y="507.435"/>
      <point x="328.674" y="512"/>
      <point x="296.49" y="512" type="curve" smooth="yes"/>
      <point x="137" y="512"/>
      <point x="44" y="408"/>
    </contour>
    <contour>
      <point x="175" y="247" type="curve" smooth="yes"/>
      <point x="175" y="345"/>
      <point x="209.138" y="426"/>
      <point x="302.492" y="426" type="curve" smooth="yes"/>
      <point x="382.838" y="426"/>
      <point x="423" y="366"/>
      <point x="423" y="247" type="curve" smooth="yes"/>
      <point x="423" y="128"/>
      <point x="382.838" y="68"/>
      <point x="302.492" y="68" type="curve" smooth="yes"/>
      <point x="209.138" y="68"/>
      <point x="175" y="149"/>
    </contour>
    <contour>
      <point x="105" y="566" type="line"/>
      <point x="130" y="513" type="line"/>
      <point x="530.206" y="696" type="line"/>
      <point x="506.382" y="751" type="line"/>
    </contour>
  </outline>
  <guideline angle="215.87" x="206" y="736"/>
  <guideline angle="204.766" x="506" y="751"/>
  <guideline angle="204.766" x="506" y="751"/>
  <guideline angle="295.253" x="105" y="566"/>
  <guideline angle="113.575" x="530" y="696"/>
</glyph>
<glyph name="divide" format="2">
  <advance width="1000"/>
  <unicode hex="00F7"/>
  <outline>
    <component base="period" xOffset="392" yOffset="38.6536"/>
    <component base="period" xOffset="392" yOffset="420.527"/>
    <contour>
      <point x="800" y="250" type="line"/>
      <point x="200" y="250" type="line"/>
      <point x="200" y="350" type="line"/>
      <point x="800" y="350" type="line"/>
    </contour>
  </outline>
</glyph>
<glyph name="thorn" format="2">
  <advance width="611"/>
  <unicode hex="00FE"/>
  <outline>
    <contour>
      <point x="60" y="-200" type="line"/>
      <point x="60" y="722" type="line"/>
      <point x="195" y="722" type="line"/>
      <point x="195" y="-200" type="line"/>
    </contour>
    <contour>
      <point x="173.237" y="78.1667" type="curve"/>
      <point x="173.219" y="429.893" type="line"/>
      <point x="233.022" y="492.766"/>
      <point x="275.49" y="514"/>
      <point x="340.411" y="514" type="curve" smooth="yes"/>
      <point x="482" y="514"/>
      <point x="567" y="413"/>
      <point x="567" y="252" type="curve" smooth="yes"/>
      <point x="567" y="88"/>
      <point x="478" y="-14"/>
      <point x="344.228" y="-14" type="curve" smooth="yes"/>
      <point x="271.912" y="-14"/>
      <point x="218.682" y="15.8089"/>
    </contour>
    <contour>
      <point x="195" y="246" type="curve" smooth="yes"/>
      <point x="195" y="149"/>
      <point x="249" y="75"/>
      <point x="320" y="75" type="curve" smooth="yes"/>
      <point x="388" y="75"/>
      <point x="432" y="143"/>
      <point x="432" y="243" type="curve" smooth="yes"/>
      <point x="432" y="352"/>
      <point x="379" y="429"/>
      <point x="308" y="429" type="curve" smooth="yes"/>
      <point x="239" y="429"/>
      <point x="195" y="355"/>
    </contour>
  </outline>
</glyph>
<glyph name="dotlessi" format="2">
  <advance width="256"/>
  <unicode hex="0131"/>
  <anchor x="128" y="580" name="top"/>
  <outline>
    <contour>
      <point x="196" y="0" type="line"/>
      <point x="60" y="0" type="line"/>
      <point x="60" y="500" type="line"/>
      <point x="196" y="500" type="line"/>
    </contour>
  </outline>
  <guideline angle="90" x="128" y="0"/>
</glyph>
<glyph name="Lslash" format="2">
  <advance width="666"/>
  <unicode hex="0141"/>
  <outline>
    <component base="L" xOffset="96"/>
    <contour>
      <point x="316" y="357.131" type="line"/>
      <point x="428" y="468.43" type="line"/>
      <point x="428" y="590.43" type="line"/>
      <point x="316" y="479.131" type="line"/>
    </contour>
    <contour>
      <point x="166" y="330.533" type="line"/>
      <point x="70" y="235.43" type="line"/>
      <point x="70" y="113.43" type="line"/>
      <point x="166" y="208.533" type="line"/>
    </contour>
  </outline>
</glyph>
<glyph name="lslash" format="2">
  <advance width="438"/>
  <unicode hex="0142"/>
  <outline>
    <component base="I" xOffset="80" yOffset="0.0045"/>
    <contour>
      <point x="60" y="312" type="line"/>
      <point x="60" y="193" type="line"/>
      <point x="379" y="465" type="line"/>
      <point x="379" y="587" type="line"/>
    </contour>
  </outline>
</glyph>
<glyph name="Eng" format="2">
  <advance width="683"/>
  <unicode hex="014A"/>
  <outline>
    <component base="N"/>
    <contour>
      <point x="698" y="20" type="line"/>
      <point x="569" y="20" type="line"/>
      <point x="569" y="-52" type="line" smooth="yes"/>
      <point x="569" y="-70.9615"/>
      <point x="546.208" y="-90"/>
      <point x="512.7" y="-90" type="curve" smooth="yes"/>
      <point x="488" y="-90"/>
      <point x="468.351" y="-79.6553"/>
      <point x="455.039" y="-64.4064" type="curve"/>
      <point x="385" y="-143" type="line"/>
      <point x="420" y="-181"/>
      <point x="486" y="-200"/>
      <point x="539.874" y="-200" type="curve" smooth="yes"/>
      <point x="629" y="-200"/>
      <point x="698" y="-148"/>
      <point x="698" y="-72" type="curve" smooth="yes"/>
    </contour>
  </outline>
</glyph>
<glyph name="OE" format="2">
  <advance width="1023"/>
  <unicode hex="0152"/>
  <outline>
    <component base="E" xOffset="424"/>
    <contour>
      <point x="398" y="622" type="line"/>
      <point x="434.288" y="622"/>
      <point x="462.486" y="616.709"/>
      <point x="496.091" y="595.158" type="curve"/>
      <point x="519.426" y="718.068" type="line"/>
      <point x="482.831" y="729.532"/>
      <point x="442.356" y="736"/>
      <point x="398" y="736" type="curve"/>
    </contour>
    <contour>
      <point x="398" y="-14" type="line"/>
      <point x="441.184" y="-14"/>
      <point x="481.785" y="-8.12564"/>
      <point x="521.271" y="4.02597" type="curve"/>
      <point x="496.173" y="128.388" type="line"/>
      <point x="466.484" y="109.857"/>
      <point x="434.321" y="100"/>
      <point x="398" y="100" type="curve"/>
    </contour>
    <contour>
      <point x="56" y="361" type="curve" smooth="yes"/>
      <point x="56" y="143"/>
      <point x="168" y="-14"/>
      <point x="398" y="-14" type="curve"/>
      <point x="398" y="100" type="line"/>
      <point x="258" y="100"/>
      <point x="207" y="191"/>
      <point x="207" y="361" type="curve" smooth="yes"/>
      <point x="207" y="531"/>
      <point x="258" y="622"/>
      <point x="398" y="622" type="curve"/>
      <point x="398" y="736" type="line"/>
      <point x="168" y="736"/>
      <point x="56" y="579"/>
    </contour>
  </outline>
</glyph>
<glyph name="Utilde" format="2">
  <advance width="732"/>
  <unicode hex="0168"/>
  <anchor x="366" y="797" name="top"/>
  <anchor x="366" y="-88" name="bottom"/>
  <outline>
    <contour>
      <point x="60" y="299" type="curve" smooth="yes"/>
      <point x="60" y="722" type="line"/>
      <point x="205" y="722" type="line"/>
      <point x="205" y="299" type="line" smooth="yes"/>
      <point x="205" y="167"/>
      <point x="262" y="101"/>
      <point x="366" y="101" type="curve" smooth="yes"/>
      <point x="473" y="101"/>
      <point x="527" y="167"/>
      <point x="527" y="299" type="curve" smooth="yes"/>
      <point x="527" y="722" type="line"/>
      <point x="672" y="722" type="line"/>
      <point x="672" y="299" type="line" smooth="yes"/>
      <point x="672" y="106"/>
      <point x="559" y="-13"/>
      <point x="361" y="-13" type="curve" smooth="yes"/>
      <point x="161" y="-13"/>
      <point x="60" y="113"/>
    </contour>
    <contour>
      <point x="206" y="815" type="line"/>
      <point x="212" y="871"/>
      <point x="244" y="922"/>
      <point x="301.636" y="922" type="curve" smooth="yes"/>
      <point x="322.313" y="922"/>
      <point x="345.525" y="915.465"/>
      <point x="366.354" y="903.78" type="curve"/>
      <point x="365.856" y="826.537" type="line"/>
      <point x="346.654" y="839.753"/>
      <point x="322.389" y="848"/>
      <point x="302.709" y="848" type="curve" smooth="yes"/>
      <point x="282" y="848"/>
      <point x="265" y="839"/>
      <point x="258" y="815" type="curve"/>
    </contour>
    <contour>
      <point x="526.354" y="916" type="line"/>
      <point x="520.354" y="860"/>
      <point x="488.354" y="809"/>
      <point x="430.718" y="809" type="curve" smooth="yes"/>
      <point x="410.041" y="809"/>
      <point x="386.829" y="815.535"/>
      <point x="366" y="827.22" type="curve"/>
      <point x="366.499" y="904.463" type="line"/>
      <point x="385.7" y="891.247"/>
      <point x="409.965" y="883"/>
      <point x="429.645" y="883" type="curve" smooth="yes"/>
      <point x="450.354" y="883"/>
      <point x="467.354" y="892"/>
      <point x="474.354" y="916" type="curve"/>
    </contour>
  </outline>
  <guideline angle="90" x="366" y="0"/>
</glyph>
<glyph name="utilde" format="2">
  <advance width="584"/>
  <unicode hex="0169"/>
  <anchor x="292" y="600" name="top"/>
  <anchor x="292" y="-87" name="bottom"/>
  <anchor x="282" y="600" name="_top.mkmk"/>
  <anchor x="292" y="600" name="_top"/>
  <anchor x="291" y="800" name="_bottom"/>
  <outline>
    <contour>
      <point x="390" y="501" type="line"/>
      <point x="390" y="0" type="line"/>
      <point x="525" y="0" type="line"/>
      <point x="525" y="501" type="line"/>
    </contour>
    <contour>
      <point x="60" y="159" type="line" smooth="yes"/>
      <point x="60" y="49"/>
      <point x="121" y="-14"/>
      <point x="233.488" y="-14" type="curve" smooth="yes"/>
      <point x="304.144" y="-14"/>
      <point x="350.196" y="10.8562"/>
      <point x="390" y="68" type="curve" smooth="yes"/>
      <point x="410" y="96.7129" type="line"/>
      <point x="410" y="221.131" type="line"/>
      <point x="390" y="221" type="line"/>
      <point x="390" y="124"/>
      <point x="352" y="67"/>
      <point x="284" y="67" type="curve" smooth="yes"/>
      <point x="225" y="67"/>
      <point x="195" y="111"/>
      <point x="195" y="199" type="curve" smooth="yes"/>
      <point x="195" y="500" type="line"/>
      <point x="60" y="500" type="line"/>
    </contour>
    <contour>
      <point x="132" y="618" type="curve"/>
      <point x="184" y="618" type="line"/>
      <point x="191" y="642"/>
      <point x="208" y="651"/>
      <point x="228.709" y="651" type="curve" smooth="yes"/>
      <point x="248.389" y="651"/>
      <point x="272.654" y="642.753"/>
      <point x="291.856" y="629.537" type="curve"/>
      <point x="292.354" y="706.78" type="line"/>
      <point x="271.525" y="718.465"/>
      <point x="248.313" y="725"/>
      <point x="227.636" y="725" type="curve" smooth="yes"/>
      <point x="170" y="725"/>
      <point x="138" y="674"/>
    </contour>
    <contour>
      <point x="452.21" y="718.318" type="curve"/>
      <point x="400.21" y="718.318" type="line"/>
      <point x="393.21" y="694.318"/>
      <point x="376.21" y="685.318"/>
      <point x="355.501" y="685.318" type="curve" smooth="yes"/>
      <point x="335.82" y="685.318"/>
      <point x="311.555" y="693.565"/>
      <point x="292.354" y="706.78" type="curve"/>
      <point x="291.856" y="629.537" type="line"/>
      <point x="312.684" y="617.852"/>
      <point x="335.896" y="611.318"/>
      <point x="356.573" y="611.318" type="curve" smooth="yes"/>
      <point x="414.21" y="611.318"/>
      <point x="446.21" y="662.318"/>
    </contour>
  </outline>
  <guideline angle="90" x="292" y="0"/>
</glyph>
<glyph name="longs" format="2">
  <advance width="354"/>
  <unicode hex="017F"/>
  <outline>
    <contour>
      <point x="100" y="575" type="curve" smooth="yes"/>
      <point x="100" y="0" type="line"/>
      <point x="235" y="0" type="line"/>
      <point x="235" y="572" type="line" smooth="yes"/>
      <point x="235" y="623"/>
      <point x="248.005" y="646"/>
      <point x="296.713" y="646" type="curve" smooth="yes"/>
      <point x="317.026" y="646"/>
      <point x="336" y="642"/>
      <point x="355" y="632" type="curve"/>
      <point x="355" y="717" type="line"/>
      <point x="318" y="729"/>
      <point x="285" y="735"/>
      <point x="248.119" y="735" type="curve" smooth="yes"/>
      <point x="146" y="735"/>
      <point x="100" y="689"/>
    </contour>
    <contour>
      <point x="115" y="500" type="line"/>
      <point x="10" y="500" type="line"/>
      <point x="10" y="415" type="line"/>
      <point x="115" y="415" type="line"/>
    </contour>
  </outline>
</glyph>
<glyph name="florin" format="2">
  <advance width="527"/>
  <unicode hex="0192"/>
  <outline>
    <contour>
      <point x="106" y="8.25" type="line" smooth="yes"/>
      <point x="90.7113" y="-46.463"/>
      <point x="66.6271" y="-125"/>
      <point x="6" y="-125" type="curve" smooth="yes"/>
      <point x="-16" y="-125"/>
      <point x="-32" y="-114.981"/>
      <point x="-49" y="-95.9455" type="curve"/>
      <point x="-73.3029" y="-189.488" type="line"/>
      <point x="-42.3348" y="-204.814"/>
      <point x="-8.96948" y="-211"/>
      <point x="13.1497" y="-211" type="curve" smooth="yes"/>
      <point x="136.913" y="-211"/>
      <point x="175.614" y="-173.925"/>
      <point x="224" y="-0.7669" type="curve" smooth="yes"/>
      <point x="367.843" y="514" type="line" smooth="yes"/>
      <point x="398.65" y="624.248"/>
      <point x="418.092" y="648"/>
      <point x="469.282" y="648" type="curve" smooth="yes"/>
      <point x="486" y="648"/>
      <point x="508" y="643"/>
      <point x="529" y="630" type="curve"/>
      <point x="552" y="717" type="line"/>
      <point x="521" y="728"/>
      <point x="492" y="732"/>
      <point x="461.126" y="732" type="curve" smooth="yes"/>
      <point x="336.828" y="732"/>
      <point x="298.036" y="695.482"/>
      <point x="253.668" y="536.705" type="curve" smooth="yes"/>
    </contour>
    <contour>
      <point x="143" y="506.5" type="line"/>
      <point x="118" y="408.5" type="line"/>
      <point x="459" y="408.5" type="line"/>
      <point x="484" y="506.5" type="line"/>
    </contour>
  </outline>
  <guideline angle="74.3435" x="224" y="-1"/>
  <guideline angle="254.395" x="218" y="409"/>
  <guideline angle="74.3435" x="224" y="-1"/>
  <guideline angle="254.395" x="218" y="409"/>
  <guideline angle="74.3435" x="224" y="-1"/>
  <guideline angle="254.395" x="218" y="409"/>
  <guideline angle="255.689" x="143" y="507"/>
  <guideline angle="75.689" x="459" y="409"/>
  <guideline angle="0" x="0" y="507"/>
  <guideline angle="75.1916" x="529" y="630"/>
</glyph>
<glyph name="uni019E" format="2">
  <advance width="608"/>
  <unicode hex="019E"/>
  <outline>
    <contour>
      <point x="527" y="100" type="line"/>
      <point x="527" y="-201" type="line"/>
      <point x="391" y="-201" type="line"/>
      <point x="391" y="100" type="line"/>
    </contour>
    <contour>
      <point x="176" y="405.083" type="line"/>
      <point x="196" y="433" type="line" smooth="yes"/>
      <point x="235.267" y="487.81"/>
      <point x="286" y="514"/>
      <point x="356" y="514" type="curve" smooth="yes"/>
      <point x="465" y="514"/>
      <point x="527" y="451"/>
      <point x="527" y="339" type="curve" smooth="yes"/>
      <point x="527" y="0" type="line"/>
      <point x="391" y="0" type="line"/>
      <point x="391" y="299" type="line" smooth="yes"/>
      <point x="391" y="388"/>
      <point x="362" y="432"/>
      <point x="302" y="432" type="curve" smooth="yes"/>
      <point x="234" y="432"/>
      <point x="196" y="376"/>
      <point x="196" y="279" type="curve"/>
      <point x="176" y="279.357" type="line"/>
    </contour>
    <contour>
      <point x="196" y="0" type="line"/>
      <point x="60" y="0" type="line"/>
      <point x="60" y="500" type="line"/>
      <point x="196" y="500" type="line"/>
    </contour>
  </outline>
</glyph>
<glyph name="uni0251" format="2">
  <advance width="586"/>
  <unicode hex="0251"/>
  <outline>
    <contour>
      <point x="305.881" y="74" type="curve" smooth="yes"/>
      <point x="384.986" y="74"/>
      <point x="419" y="153.401"/>
      <point x="419" y="238.761" type="curve" smooth="yes"/>
      <point x="419" y="334.734"/>
      <point x="376.002" y="426"/>
      <point x="302.355" y="426" type="curve" smooth="yes"/>
      <point x="233.931" y="426"/>
      <point x="190" y="347.223"/>
      <point x="190" y="258.918" type="curve" smooth="yes"/>
      <point x="190" y="152.534"/>
      <point x="227.209" y="74"/>
    </contour>
    <contour>
      <point x="558" y="0.2857" type="line"/>
      <point x="423" y="0.2857" type="line"/>
      <point x="423" y="76.983" type="line"/>
      <point x="390.426" y="23.6763"/>
      <point x="336.531" y="-12"/>
      <point x="273.474" y="-12" type="curve" smooth="yes"/>
      <point x="129.787" y="-12"/>
      <point x="55" y="103.564"/>
      <point x="55" y="248.011" type="curve" smooth="yes"/>
      <point x="55" y="418.437"/>
      <point x="121.953" y="512"/>
      <point x="281.231" y="512" type="curve" smooth="yes"/>
      <point x="337.683" y="512"/>
      <point x="384.551" y="488.839"/>
      <point x="423" y="437" type="curve"/>
      <point x="423" y="500" type="line"/>
      <point x="558" y="500" type="line"/>
    </contour>
  </outline>
</glyph>
<glyph name="uni0253" format="2">
  <advance width="607"/>
  <unicode hex="0253"/>
  <outline>
    <component base="uni0252"/>
    <contour>
      <point x="60" y="380" type="line"/>
      <point x="195" y="380" type="line"/>
      <point x="195" y="505.724" type="line" smooth="yes"/>
      <point x="195" y="591.108"/>
      <point x="217.695" y="628"/>
      <point x="285.044" y="628" type="curve" smooth="yes"/>
      <point x="318" y="628"/>
      <point x="350.799" y="618.108"/>
      <point x="370.867" y="601.748" type="curve"/>
      <point x="441" y="673" type="line"/>
      <point x="398.049" y="710.478"/>
      <point x="354.139" y="732"/>
      <point x="255" y="732" type="curve" smooth="yes"/>
      <point x="141.653" y="732"/>
      <point x="60" y="653.789"/>
      <point x="60" y="545" type="curve" smooth="yes"/>
    </contour>
  </outline>
</glyph>
<glyph name="uni0255" format="2">
  <advance width="555"/>
  <unicode hex="0255"/>
  <outline>
    <contour>
      <point x="44" y="240.006" type="curve" smooth="yes"/>
      <point x="44" y="406"/>
      <point x="120" y="514"/>
      <point x="273" y="514" type="curve" smooth="yes"/>
      <point x="404" y="514"/>
      <point x="479" y="461"/>
      <point x="479" y="324" type="curve"/>
      <point x="347" y="324" type="line"/>
      <point x="342" y="379"/>
      <point x="330" y="428"/>
      <point x="273" y="428" type="curve" smooth="yes"/>
      <point x="188" y="428"/>
      <point x="179" y="321"/>
      <point x="179" y="248" type="curve" smooth="yes"/>
      <point x="179" y="153.085"/>
      <point x="216.767" y="82"/>
      <point x="311.599" y="82" type="curve" smooth="yes"/>
      <point x="354.929" y="82"/>
      <point x="397" y="97.0857"/>
      <point x="397" y="126.981" type="curve" smooth="yes"/>
      <point x="397" y="143"/>
      <point x="384.92" y="155"/>
      <point x="360.495" y="155" type="curve" smooth="yes"/>
      <point x="281.417" y="155"/>
      <point x="166.441" y="29.2151"/>
      <point x="111.453" y="-150" type="curve"/>
      <point x="60.9895" y="-133" type="line"/>
      <point x="115.603" y="79.2874"/>
      <point x="249.191" y="234"/>
      <point x="387.632" y="234" type="curve" smooth="yes"/>
      <point x="451.522" y="234"/>
      <point x="505" y="201.049"/>
      <point x="505" y="136.293" type="curve" smooth="yes"/>
      <point x="505" y="51.2447"/>
      <point x="412.752" y="-12"/>
      <point x="290.216" y="-12" type="curve" smooth="yes"/>
      <point x="116.292" y="-12"/>
      <point x="44" y="78.1128"/>
    </contour>
  </outline>
</glyph>
<glyph name="uni0256" format="2">
  <advance width="591"/>
  <unicode hex="0256"/>
  <outline>
    <component base="d"/>
    <contour>
      <point x="411" y="134" type="line"/>
      <point x="411" y="-60" type="line" smooth="yes"/>
      <point x="411" y="-140.291"/>
      <point x="493.413" y="-199"/>
      <point x="602" y="-199" type="curve" smooth="yes"/>
      <point x="659" y="-199"/>
      <point x="705" y="-180"/>
      <point x="740" y="-142" type="curve"/>
      <point x="664.302" y="-66.1515" type="line"/>
      <point x="653.132" y="-78.279"/>
      <point x="637" y="-89"/>
      <point x="608" y="-89" type="curve" smooth="yes"/>
      <point x="574" y="-89"/>
      <point x="547" y="-63"/>
      <point x="547" y="-21" type="curve" smooth="yes"/>
      <point x="547" y="134" type="line"/>
    </contour>
  </outline>
  <guideline angle="0" x="0" y="-172"/>
</glyph>
<glyph name="uni0257" format="2">
  <advance width="580"/>
  <unicode hex="0257"/>
  <outline>
    <component base="uni0251" xOffset="-11"/>
    <contour>
      <point x="412" y="380" type="line"/>
      <point x="412" y="545" type="line" smooth="yes"/>
      <point x="412" y="653.789"/>
      <point x="493.653" y="732"/>
      <point x="607" y="732" type="curve" smooth="yes"/>
      <point x="706.139" y="732"/>
      <point x="750.049" y="710.478"/>
      <point x="793" y="673" type="curve"/>
      <point x="722.867" y="601.748" type="line"/>
      <point x="702.799" y="618.108"/>
      <point x="670" y="628"/>
      <point x="637.044" y="628" type="curve" smooth="yes"/>
      <point x="569.695" y="628"/>
      <point x="547" y="591.108"/>
      <point x="547" y="505.724" type="curve" smooth="yes"/>
      <point x="547" y="380" type="line"/>
    </contour>
  </outline>
</glyph>
<glyph name="uni025A" format="2">
  <advance width="766"/>
  <unicode hex="025A"/>
  <outline>
    <contour>
      <point x="178.965" y="154" type="line"/>
      <point x="528.009" y="313" type="line"/>
      <point x="528.009" y="301.284" type="line" smooth="yes"/>
      <point x="528.009" y="216.645"/>
      <point x="593.234" y="186.061"/>
      <point x="660.214" y="186.061" type="curve" smooth="yes"/>
      <point x="737.723" y="186.061"/>
      <point x="765" y="256.535"/>
      <point x="765" y="320" type="curve"/>
      <point x="699.545" y="320" type="line"/>
      <point x="699.545" y="291.377"/>
      <point x="696.071" y="267.954"/>
      <point x="668" y="267.867" type="curve" smooth="yes"/>
      <point x="640.251" y="267.782"/>
      <point x="630" y="279.848"/>
      <point x="630" y="303" type="curve" smooth="yes"/>
      <point x="630" y="452" type="line"/>
      <point x="44" y="184" type="line"/>
    </contour>
    <contour>
      <point x="479" y="243" type="curve" smooth="yes"/>
      <point x="479" y="406"/>
      <point x="403" y="514"/>
      <point x="250" y="514" type="curve" smooth="yes"/>
      <point x="119" y="514"/>
      <point x="44" y="461"/>
      <point x="44" y="324" type="curve"/>
      <point x="176" y="324" type="line"/>
      <point x="181" y="379"/>
      <point x="193" y="428"/>
      <point x="250" y="428" type="curve" smooth="yes"/>
      <point x="335" y="428"/>
      <point x="344" y="321"/>
      <point x="344" y="248" type="curve" smooth="yes"/>
      <point x="344" y="160"/>
      <point x="343" y="72"/>
      <point x="253" y="72" type="curve" smooth="yes"/>
      <point x="189" y="72"/>
      <point x="179" y="85"/>
      <point x="179" y="154" type="curve"/>
      <point x="44" y="184" type="line"/>
      <point x="44" y="55"/>
      <point x="113" y="-14"/>
      <point x="247" y="-14" type="curve" smooth="yes"/>
      <point x="398" y="-14"/>
      <point x="479" y="75"/>
    </contour>
  </outline>
</glyph>
<glyph name="uni025F" format="2">
  <advance width="383"/>
  <unicode hex="025F"/>
  <outline>
    <contour>
      <point x="-35" y="-158" type="line"/>
      <point x="11" y="-198"/>
      <point x="66" y="-220"/>
      <point x="138" y="-220" type="curve" smooth="yes"/>
      <point x="228" y="-220"/>
      <point x="287" y="-163"/>
      <point x="287" y="-80" type="curve" smooth="yes"/>
      <point x="287" y="500" type="line"/>
      <point x="152" y="500" type="line"/>
      <point x="152" y="-63" type="line" smooth="yes"/>
      <point x="152" y="-90"/>
      <point x="138" y="-104"/>
      <point x="115" y="-104" type="curve" smooth="yes"/>
      <point x="83" y="-104"/>
      <point x="60" y="-89"/>
      <point x="48" y="-72" type="curve"/>
    </contour>
    <contour>
      <point x="53" y="202" type="line"/>
      <point x="373" y="202" type="line"/>
      <point x="373" y="297" type="line"/>
      <point x="53" y="297" type="line"/>
    </contour>
  </outline>
  <guideline angle="226.017" x="48" y="-72"/>
</glyph>
<glyph name="uni0263" format="2">
  <advance width="530"/>
  <unicode hex="0263"/>
  <outline>
    <contour>
      <point x="261" y="10" type="curve"/>
      <point x="281.558" y="-18.5845"/>
      <point x="288" y="-48"/>
      <point x="288" y="-62.3385" type="curve" smooth="yes"/>
      <point x="288" y="-82"/>
      <point x="286.343" y="-102"/>
      <point x="264" y="-102" type="curve" smooth="yes"/>
      <point x="241.657" y="-102"/>
      <point x="240" y="-82"/>
      <point x="240" y="-62" type="curve" smooth="yes"/>
      <point x="240" y="-48"/>
      <point x="241.657" y="-23.0551"/>
    </contour>
    <contour>
      <point x="545" y="500" type="line"/>
      <point x="390" y="500" type="line"/>
      <point x="228.943" y="170" type="line"/>
      <point x="291.943" y="170" type="line"/>
      <point x="149" y="500" type="line"/>
      <point x="6" y="500" type="line"/>
      <point x="183.326" y="116.48" type="line"/>
      <point x="144.761" y="59.4036"/>
      <point x="109" y="-40"/>
      <point x="109" y="-75.4541" type="curve" smooth="yes"/>
      <point x="109" y="-151"/>
      <point x="165.367" y="-200"/>
      <point x="264.971" y="-200" type="curve" smooth="yes"/>
      <point x="365" y="-200"/>
      <point x="399" y="-151"/>
      <point x="399" y="-75.2558" type="curve" smooth="yes"/>
      <point x="399" y="-40"/>
      <point x="366.898" y="62.4888"/>
      <point x="332.96" y="128.821" type="curve"/>
    </contour>
  </outline>
  <guideline angle="113.429" x="292" y="170"/>
  <guideline angle="294.747" x="6" y="500"/>
  <guideline angle="243.993" x="390" y="500"/>
  <guideline angle="60.2551" x="333" y="129"/>
</glyph>
<glyph name="uni0264" format="2">
  <advance width="579"/>
  <unicode hex="0264"/>
  <outline>
    <contour>
      <point x="313" y="87.1818" type="curve" smooth="yes"/>
      <point x="313" y="63.0606"/>
      <point x="296" y="51"/>
      <point x="288" y="51" type="curve" smooth="yes"/>
      <point x="280" y="51"/>
      <point x="266" y="64.0555"/>
      <point x="266" y="87.1717" type="curve" smooth="yes"/>
      <point x="266" y="111.797"/>
      <point x="298.817" y="158.064"/>
      <point x="314.301" y="178.279" type="curve" smooth="yes"/>
      <point x="457" y="364.576" type="line" smooth="yes"/>
      <point x="488.937" y="406.27"/>
      <point x="524" y="420"/>
      <point x="549.256" y="420" type="curve" smooth="yes"/>
      <point x="560.01" y="420"/>
      <point x="568.123" y="414.383"/>
      <point x="574.339" y="408.504" type="curve" smooth="yes"/>
      <point x="578.633" y="404.442"/>
      <point x="583.928" y="399.904"/>
      <point x="590.164" y="399.904" type="curve" smooth="yes"/>
      <point x="602" y="399.904"/>
      <point x="606" y="415.934"/>
      <point x="606" y="435.514" type="curve" smooth="yes"/>
      <point x="606" y="463.51"/>
      <point x="523.292" y="514"/>
      <point x="484.005" y="514" type="curve" smooth="yes"/>
      <point x="440.723" y="514"/>
      <point x="335.951" y="410.546"/>
      <point x="258.443" y="299.785" type="curve" smooth="yes"/>
      <point x="223.997" y="250.561" type="line" smooth="yes"/>
      <point x="179.085" y="186.38"/>
      <point x="150" y="124.307"/>
      <point x="150" y="90.197" type="curve" smooth="yes"/>
      <point x="150" y="26.7463"/>
      <point x="205" y="-14"/>
      <point x="286.631" y="-14" type="curve" smooth="yes"/>
      <point x="374" y="-14"/>
      <point x="432" y="34.6866"/>
      <point x="432" y="80.5404" type="curve" smooth="yes"/>
      <point x="432" y="117.211"/>
      <point x="408.331" y="171.345"/>
      <point x="359.828" y="262.273" type="curve"/>
      <point x="249.852" y="173.247" type="line"/>
      <point x="271.151" y="156.882"/>
      <point x="313" y="114.301"/>
    </contour>
    <contour>
      <point x="304.174" y="304.607" type="line"/>
      <point x="217.136" y="444.055"/>
      <point x="146.603" y="514"/>
      <point x="95.5033" y="514" type="curve" smooth="yes"/>
      <point x="56.5285" y="514"/>
      <point x="-24" y="465.31"/>
      <point x="-24" y="436.104" type="curve" smooth="yes"/>
      <point x="-24" y="416.929"/>
      <point x="-20" y="399.904"/>
      <point x="-2.8798" y="399.904" type="curve" smooth="yes"/>
      <point x="3.35901" y="399.904"/>
      <point x="11.5485" y="404.548"/>
      <point x="16.0794" y="408.391" type="curve" smooth="yes"/>
      <point x="19.1028" y="410.955"/>
      <point x="31.7964" y="420"/>
      <point x="40.702" y="420" type="curve" smooth="yes"/>
      <point x="64" y="420"/>
      <point x="103.103" y="396.074"/>
      <point x="125" y="364.576" type="curve" smooth="yes"/>
      <point x="221.562" y="225.673" type="line"/>
    </contour>
  </outline>
</glyph>
<glyph name="uni0265" format="2">
  <advance width="586"/>
  <unicode hex="0265"/>
  <outline>
    <contour>
      <point x="391" y="-200" type="line"/>
      <point x="526" y="-200" type="line"/>
      <point x="526" y="0" type="line"/>
      <point x="391" y="0" type="line"/>
    </contour>
    <contour>
      <point x="60" y="159" type="line" smooth="yes"/>
      <point x="60" y="49"/>
      <point x="122" y="-14"/>
      <point x="234.488" y="-14" type="curve" smooth="yes"/>
      <point x="305.144" y="-14"/>
      <point x="351.196" y="10.8562"/>
      <point x="391" y="68" type="curve" smooth="yes"/>
      <point x="411" y="96.7129" type="line"/>
      <point x="411" y="221.131" type="line"/>
      <point x="391" y="221" type="line"/>
      <point x="391" y="124"/>
      <point x="353" y="67"/>
      <point x="285" y="67" type="curve" smooth="yes"/>
      <point x="226" y="67"/>
      <point x="196" y="111"/>
      <point x="196" y="199" type="curve" smooth="yes"/>
      <point x="196" y="500" type="line"/>
      <point x="60" y="500" type="line"/>
    </contour>
    <contour>
      <point x="527" y="0" type="line"/>
      <point x="527" y="500" type="line"/>
      <point x="391" y="500" type="line"/>
      <point x="391" y="0" type="line"/>
    </contour>
  </outline>
</glyph>
<glyph name="uni0266" format="2">
  <advance width="573"/>
  <unicode hex="0266"/>
  <outline>
    <contour>
      <point x="60" y="380" type="line"/>
      <point x="196" y="380" type="line"/>
      <point x="196" y="505.724" type="line" smooth="yes"/>
      <point x="196" y="591.108"/>
      <point x="217.695" y="628"/>
      <point x="285.044" y="628" type="curve" smooth="yes"/>
      <point x="318" y="628"/>
      <point x="350.799" y="618.108"/>
      <point x="370.867" y="601.748" type="curve"/>
      <point x="441" y="673" type="line"/>
      <point x="398.049" y="710.478"/>
      <point x="354.139" y="732"/>
      <point x="255" y="732" type="curve" smooth="yes"/>
      <point x="141.653" y="732"/>
      <point x="60" y="653.789"/>
      <point x="60" y="545" type="curve" smooth="yes"/>
    </contour>
    <contour>
      <point x="176" y="279.357" type="line"/>
      <point x="196" y="279" type="line"/>
      <point x="196" y="376"/>
      <point x="234" y="432"/>
      <point x="302" y="432" type="curve" smooth="yes"/>
      <point x="362" y="432"/>
      <point x="391" y="388"/>
      <point x="391" y="299" type="curve" smooth="yes"/>
      <point x="391" y="0" type="line"/>
      <point x="527" y="0" type="line"/>
      <point x="527" y="339" type="line" smooth="yes"/>
      <point x="527" y="451"/>
      <point x="465" y="514"/>
      <point x="356" y="514" type="curve" smooth="yes"/>
      <point x="286" y="514"/>
      <point x="235.267" y="487.81"/>
      <point x="196" y="433" type="curve" smooth="yes"/>
      <point x="176" y="405.083" type="line"/>
    </contour>
    <contour>
      <point x="196" y="0" type="line"/>
      <point x="196" y="500" type="line"/>
      <point x="60" y="500" type="line"/>
      <point x="60" y="0" type="line"/>
    </contour>
  </outline>
</glyph>
<glyph name="uni0267" format="2">
  <advance width="574"/>
  <unicode hex="0267"/>
  <outline>
    <contour>
      <point x="195" y="-1" type="line"/>
      <point x="195" y="462" type="line"/>
      <point x="60" y="462" type="line"/>
      <point x="60" y="-1" type="line"/>
    </contour>
    <contour>
      <point x="175" y="279.357" type="line"/>
      <point x="195" y="279" type="line"/>
      <point x="195" y="376"/>
      <point x="233" y="432"/>
      <point x="301" y="432" type="curve" smooth="yes"/>
      <point x="361" y="432"/>
      <point x="390" y="388"/>
      <point x="390" y="299" type="curve" smooth="yes"/>
      <point x="390" y="0" type="line"/>
      <point x="526" y="0" type="line"/>
      <point x="526" y="339" type="line" smooth="yes"/>
      <point x="526" y="451"/>
      <point x="464" y="514"/>
      <point x="355" y="514" type="curve" smooth="yes"/>
      <point x="285" y="514"/>
      <point x="234.267" y="487.81"/>
      <point x="195" y="433" type="curve" smooth="yes"/>
      <point x="175" y="405.083" type="line"/>
    </contour>
    <contour>
      <point x="526" y="134" type="line"/>
      <point x="390" y="134" type="line"/>
      <point x="390" y="-21" type="line" smooth="yes"/>
      <point x="390" y="-63"/>
      <point x="363" y="-89"/>
      <point x="329" y="-89" type="curve" smooth="yes"/>
      <point x="300" y="-89"/>
      <point x="283.868" y="-78.279"/>
      <point x="272.698" y="-66.1515" type="curve"/>
      <point x="197" y="-142" type="line"/>
      <point x="232" y="-180"/>
      <point x="278" y="-199"/>
      <point x="335" y="-199" type="curve" smooth="yes"/>
      <point x="443.587" y="-199"/>
      <point x="526" y="-140.291"/>
      <point x="526" y="-60" type="curve" smooth="yes"/>
    </contour>
    <contour>
      <point x="60" y="380" type="line"/>
      <point x="195" y="380" type="line"/>
      <point x="195" y="505.724" type="line" smooth="yes"/>
      <point x="195" y="591.108"/>
      <point x="217.695" y="628"/>
      <point x="285.044" y="628" type="curve" smooth="yes"/>
      <point x="318" y="628"/>
      <point x="350.799" y="618.108"/>
      <point x="370.867" y="601.748" type="curve"/>
      <point x="441" y="673" type="line"/>
      <point x="398.049" y="710.478"/>
      <point x="354.139" y="732"/>
      <point x="255" y="732" type="curve" smooth="yes"/>
      <point x="141.653" y="732"/>
      <point x="60" y="653.789"/>
      <point x="60" y="545" type="curve" smooth="yes"/>
    </contour>
  </outline>
  <guideline angle="90" x="60" y="0"/>
  <guideline angle="90" x="195" y="0"/>
</glyph>
<glyph name="uni026B" format="2">
  <advance width="466"/>
  <unicode hex="026B"/>
  <outline>
    <component base="l" xOffset="109.014"/>
    <contour>
      <point x="7.94482" y="357.03" type="curve"/>
      <point x="59.9448" y="357.03" type="line"/>
      <point x="66.9448" y="381.03"/>
      <point x="83.9448" y="390.03"/>
      <point x="102.287" y="390.03" type="curve" smooth="yes"/>
      <point x="120.72" y="390.03"/>
      <point x="157.158" y="378.454"/>
      <point x="176.464" y="365.691" type="curve" smooth="yes"/>
      <point x="200.153" y="350.03" type="line"/>
      <point x="200.176" y="429.03" type="line"/>
      <point x="176.464" y="441.88" type="line" smooth="yes"/>
      <point x="153.459" y="454.346"/>
      <point x="126.773" y="464.03"/>
      <point x="100.759" y="464.03" type="curve" smooth="yes"/>
      <point x="45.9448" y="464.03"/>
      <point x="13.9448" y="413.03"/>
    </contour>
    <contour>
      <point x="269.759" y="414.03" type="line"/>
      <point x="270.287" y="336.03" type="line"/>
      <point x="281.912" y="330.427" type="line" smooth="yes"/>
      <point x="305.184" y="319.211"/>
      <point x="329.443" y="310.03"/>
      <point x="354.153" y="310.03" type="curve" smooth="yes"/>
      <point x="406.945" y="310.03"/>
      <point x="440.945" y="360.03"/>
      <point x="446.945" y="420.03" type="curve"/>
      <point x="395.945" y="420.03" type="line"/>
      <point x="389.945" y="396.03"/>
      <point x="372.945" y="384.03"/>
      <point x="353.176" y="384.03" type="curve" smooth="yes"/>
      <point x="336.426" y="384.03"/>
      <point x="317.477" y="392.319"/>
      <point x="296.464" y="401.88" type="curve" smooth="yes"/>
    </contour>
  </outline>
</glyph>
<glyph name="uni026D" format="2">
  <advance width="282"/>
  <unicode hex="026D"/>
  <outline>
    <component base="l"/>
    <contour>
      <point x="316" y="-199.87" type="line"/>
      <point x="316" y="-104.759" type="line"/>
      <point x="273.611" y="-104.759" type="line" smooth="yes"/>
      <point x="213.309" y="-104.759"/>
      <point x="195" y="-82.4839"/>
      <point x="195" y="-19" type="curve" smooth="yes"/>
      <point x="195" y="40" type="line"/>
      <point x="60" y="40" type="line"/>
      <point x="60" y="-29.7593" type="line" smooth="yes"/>
      <point x="60" y="-144.521"/>
      <point x="112.739" y="-199.87"/>
      <point x="228.558" y="-199.87" type="curve" smooth="yes"/>
    </contour>
  </outline>
</glyph>
<glyph name="uni0270" format="2">
  <advance width="875"/>
  <unicode hex="0270"/>
  <outline>
    <contour>
      <point x="680" y="-200" type="line"/>
      <point x="816" y="-200" type="line"/>
      <point x="816" y="0" type="line"/>
      <point x="680" y="0" type="line"/>
    </contour>
    <contour>
      <point x="506" y="180" type="curve" smooth="yes"/>
      <point x="506" y="500" type="line"/>
      <point x="370" y="500" type="line"/>
      <point x="370" y="221" type="line" smooth="yes"/>
      <point x="370" y="113.924"/>
      <point x="322" y="82"/>
      <point x="266" y="82" type="curve" smooth="yes"/>
      <point x="222" y="82"/>
      <point x="196" y="111"/>
      <point x="196" y="180" type="curve" smooth="yes"/>
      <point x="196" y="500" type="line"/>
      <point x="60" y="500" type="line"/>
      <point x="60" y="170" type="line" smooth="yes"/>
      <point x="60" y="52"/>
      <point x="124" y="-14"/>
      <point x="239.071" y="-14" type="curve" smooth="yes"/>
      <point x="301.892" y="-14"/>
      <point x="354.36" y="17.4767"/>
      <point x="387.424" y="75" type="curve"/>
      <point x="408.175" y="26.878"/>
      <point x="463.361" y="-14"/>
      <point x="537.361" y="-14" type="curve" smooth="yes"/>
      <point x="607.216" y="-14"/>
      <point x="666.565" y="29.163"/>
      <point x="690" y="97" type="curve"/>
      <point x="690" y="220.964" type="line"/>
      <point x="680" y="221" type="line"/>
      <point x="680" y="147.436"/>
      <point x="646.452" y="82"/>
      <point x="578.751" y="82" type="curve" smooth="yes"/>
      <point x="532" y="82"/>
      <point x="506" y="119"/>
    </contour>
    <contour>
      <point x="680" y="140" type="line"/>
      <point x="680" y="0" type="line"/>
      <point x="816" y="0" type="line"/>
      <point x="816" y="140" type="line"/>
    </contour>
    <contour>
      <point x="816" y="140" type="line"/>
      <point x="816" y="500" type="line"/>
      <point x="680" y="500" type="line"/>
      <point x="680" y="139.709" type="line"/>
    </contour>
  </outline>
</glyph>
<glyph name="uni0271" format="2">
  <advance width="896"/>
  <unicode hex="0271"/>
  <outline>
    <component base="m" xOffset="-1"/>
    <contour>
      <point x="845" y="134" type="line"/>
      <point x="709" y="134" type="line"/>
      <point x="709" y="-21" type="line" smooth="yes"/>
      <point x="709" y="-63"/>
      <point x="682" y="-89"/>
      <point x="648" y="-89" type="curve" smooth="yes"/>
      <point x="619" y="-89"/>
      <point x="602.868" y="-78.279"/>
      <point x="591.698" y="-66.1515" type="curve"/>
      <point x="516" y="-142" type="line"/>
      <point x="551" y="-180"/>
      <point x="597" y="-199"/>
      <point x="654" y="-199" type="curve" smooth="yes"/>
      <point x="762.587" y="-199"/>
      <point x="845" y="-140.291"/>
      <point x="845" y="-60" type="curve" smooth="yes"/>
    </contour>
  </outline>
</glyph>
<glyph name="uni0273" format="2">
  <advance width="620"/>
  <unicode hex="0273"/>
  <outline>
    <contour>
      <point x="648" y="-105" type="line"/>
      <point x="606" y="-105" type="line" smooth="yes"/>
      <point x="545" y="-105"/>
      <point x="527" y="-83"/>
      <point x="527" y="-19" type="curve" smooth="yes"/>
      <point x="527" y="50" type="line"/>
      <point x="391" y="50" type="line"/>
      <point x="391" y="-30" type="line" smooth="yes"/>
      <point x="391" y="-145"/>
      <point x="445" y="-200"/>
      <point x="561" y="-200" type="curve" smooth="yes"/>
      <point x="648" y="-200" type="line"/>
    </contour>
    <contour>
      <point x="176" y="279.357" type="line"/>
      <point x="196" y="279" type="line"/>
      <point x="196" y="376"/>
      <point x="234" y="432"/>
      <point x="302" y="432" type="curve" smooth="yes"/>
      <point x="362" y="432"/>
      <point x="391" y="388"/>
      <point x="391" y="299" type="curve" smooth="yes"/>
      <point x="391" y="0" type="line"/>
      <point x="527" y="0" type="line"/>
      <point x="527" y="339" type="line" smooth="yes"/>
      <point x="527" y="451"/>
      <point x="465" y="514"/>
      <point x="356" y="514" type="curve" smooth="yes"/>
      <point x="286" y="514"/>
      <point x="235.267" y="487.81"/>
      <point x="196" y="433" type="curve" smooth="yes"/>
      <point x="176" y="405.083" type="line"/>
    </contour>
    <contour>
      <point x="196" y="0" type="line"/>
      <point x="196" y="500" type="line"/>
      <point x="60" y="500" type="line"/>
      <point x="60" y="0" type="line"/>
    </contour>
  </outline>
</glyph>
<glyph name="uni0274" format="2">
  <advance width="553"/>
  <unicode hex="0274"/>
  <outline>
    <contour>
      <point x="60" y="0" type="line"/>
      <point x="157" y="0" type="line"/>
      <point x="157" y="400" type="line"/>
      <point x="349.199" y="0" type="line"/>
      <point x="494" y="0" type="line"/>
      <point x="494" y="500" type="line"/>
      <point x="397" y="500" type="line"/>
      <point x="397" y="100" type="line"/>
      <point x="205.797" y="500" type="line"/>
      <point x="60" y="500" type="line"/>
    </contour>
  </outline>
</glyph>
<glyph name="uni0278" format="2">
  <advance width="709"/>
  <unicode hex="0278"/>
  <outline>
    <contour>
      <point x="422" y="722" type="line"/>
      <point x="287" y="722" type="line"/>
      <point x="287" y="-200" type="line"/>
      <point x="422" y="-200" type="line"/>
    </contour>
    <contour>
      <point x="299.198" y="54.524" type="line"/>
      <point x="230.99" y="63.5999"/>
      <point x="180" y="149.068"/>
      <point x="180" y="247" type="curve" smooth="yes"/>
      <point x="180" y="344.932"/>
      <point x="230.99" y="430.4"/>
      <point x="299.198" y="439.476" type="curve"/>
      <point x="305.21" y="532.211" type="line"/>
      <point x="128.844" y="524.759"/>
      <point x="44" y="400.267"/>
      <point x="44" y="250" type="curve" smooth="yes"/>
      <point x="44" y="100.76"/>
      <point x="127.779" y="-23.7748"/>
      <point x="305.357" y="-31.2123" type="curve"/>
    </contour>
    <contour>
      <point x="665" y="250" type="curve" smooth="yes"/>
      <point x="665" y="400.267"/>
      <point x="580.156" y="524.759"/>
      <point x="403.79" y="532.211" type="curve"/>
      <point x="409.758" y="439.495" type="line"/>
      <point x="477.988" y="430.303"/>
      <point x="529" y="345.953"/>
      <point x="529" y="248" type="curve" smooth="yes"/>
      <point x="529" y="150.068"/>
      <point x="478.01" y="64.5999"/>
      <point x="409.802" y="55.524" type="curve"/>
      <point x="403.693" y="-29.2275" type="line"/>
      <point x="580.125" y="-21.5823"/>
      <point x="665" y="99.7048"/>
    </contour>
  </outline>
</glyph>
<glyph name="uni0279" format="2">
  <advance width="385"/>
  <unicode hex="0279"/>
  <outline>
    <contour>
      <point x="191" y="500" type="line"/>
      <point x="191" y="244" type="line" smooth="yes"/>
      <point x="191" y="146"/>
      <point x="122" y="101"/>
      <point x="20" y="101" type="curve"/>
      <point x="20" y="-14" type="line"/>
      <point x="102" y="-14"/>
      <point x="153" y="0"/>
      <point x="191" y="77" type="curve"/>
      <point x="191" y="0" type="line"/>
      <point x="326" y="0" type="line"/>
      <point x="326" y="500" type="line"/>
    </contour>
  </outline>
</glyph>
<glyph name="uni027A" format="2">
  <advance width="385"/>
  <unicode hex="027A"/>
  <outline>
    <component base="uni0279"/>
    <contour>
      <point x="191" y="722" type="line"/>
      <point x="191" y="400.253" type="line"/>
      <point x="326" y="400.253" type="line"/>
      <point x="326" y="722" type="line"/>
    </contour>
  </outline>
</glyph>
<glyph name="uni027B" format="2">
  <advance width="409"/>
  <unicode hex="027B"/>
  <outline>
    <component base="uni0279"/>
    <contour>
      <point x="448" y="-105" type="line"/>
      <point x="406" y="-105" type="line" smooth="yes"/>
      <point x="345" y="-105"/>
      <point x="327" y="-83"/>
      <point x="327" y="-19" type="curve" smooth="yes"/>
      <point x="327" y="50" type="line"/>
      <point x="191" y="50" type="line"/>
      <point x="191" y="-30" type="line" smooth="yes"/>
      <point x="191" y="-145"/>
      <point x="245" y="-200"/>
      <point x="361" y="-200" type="curve" smooth="yes"/>
      <point x="448" y="-200" type="line"/>
    </contour>
  </outline>
</glyph>
<glyph name="uni027D" format="2">
  <advance width="391"/>
  <unicode hex="027D"/>
  <outline>
    <contour>
      <point x="196" y="422.209" type="curve" smooth="yes"/>
      <point x="176" y="385.21" type="line"/>
      <point x="176" y="254.974" type="line"/>
      <point x="196" y="255" type="line"/>
      <point x="196" y="353"/>
      <point x="265" y="398"/>
      <point x="367" y="398" type="curve"/>
      <point x="367" y="514" type="line"/>
      <point x="284.41" y="514"/>
      <point x="229.524" y="484.413"/>
    </contour>
    <contour>
      <point x="197" y="0" type="line"/>
      <point x="197" y="500" type="line"/>
      <point x="61" y="500" type="line"/>
      <point x="61" y="0" type="line"/>
    </contour>
    <contour>
      <point x="318" y="-105" type="line"/>
      <point x="276" y="-105" type="line" smooth="yes"/>
      <point x="215" y="-105"/>
      <point x="197" y="-83"/>
      <point x="197" y="-19" type="curve" smooth="yes"/>
      <point x="197" y="50" type="line"/>
      <point x="61" y="50" type="line"/>
      <point x="61" y="-30" type="line" smooth="yes"/>
      <point x="61" y="-145"/>
      <point x="115" y="-200"/>
      <point x="231" y="-200" type="curve" smooth="yes"/>
      <point x="318" y="-200" type="line"/>
    </contour>
  </outline>
</glyph>
<glyph name="uni0283" format="2">
  <advance width="413"/>
  <unicode hex="0283"/>
  <outline>
    <contour>
      <point x="20" y="-179.897" type="line"/>
      <point x="41.2019" y="-195.927"/>
      <point x="89" y="-200"/>
      <point x="123.596" y="-200" type="curve" smooth="yes"/>
      <point x="233" y="-200"/>
      <point x="309" y="-150"/>
      <point x="309" y="-26.7056" type="curve" smooth="yes"/>
      <point x="309" y="14.3414"/>
      <point x="301.161" y="99.7265"/>
      <point x="283.125" y="229.077" type="curve" smooth="yes"/>
      <point x="264.291" y="364.152" type="line" smooth="yes"/>
      <point x="250.018" y="466.516"/>
      <point x="243" y="535.072"/>
      <point x="243" y="569.121" type="curve" smooth="yes"/>
      <point x="243" y="619.433"/>
      <point x="258.946" y="638.9"/>
      <point x="291.424" y="638.9" type="curve" smooth="yes"/>
      <point x="306.146" y="638.9"/>
      <point x="322.146" y="634.9"/>
      <point x="336.146" y="626.9" type="curve"/>
      <point x="393" y="714.913" type="line"/>
      <point x="379" y="723.913"/>
      <point x="339" y="735"/>
      <point x="306.369" y="735" type="curve" smooth="yes"/>
      <point x="191" y="735"/>
      <point x="109" y="685"/>
      <point x="109" y="567.06" type="curve" smooth="yes"/>
      <point x="109" y="531.44"/>
      <point x="116.334" y="457.594"/>
      <point x="130.694" y="349.329" type="curve" smooth="yes"/>
      <point x="149.208" y="209.754" type="line" smooth="yes"/>
      <point x="167.314" y="73.2554"/>
      <point x="176" y="-11.6951"/>
      <point x="176" y="-43.753" type="curve" smooth="yes"/>
      <point x="176" y="-87.0517"/>
      <point x="159.384" y="-104"/>
      <point x="128.092" y="-104" type="curve" smooth="yes"/>
      <point x="110" y="-104"/>
      <point x="91" y="-99"/>
      <point x="78" y="-88" type="curve"/>
    </contour>
    <contour>
      <point x="166" y="291" type="curve" smooth="yes"/>
      <point x="166" y="285"/>
      <point x="170" y="281"/>
      <point x="176" y="281" type="curve" smooth="yes"/>
      <point x="182" y="281"/>
      <point x="186" y="285"/>
      <point x="186" y="291" type="curve" smooth="yes"/>
      <point x="186" y="297"/>
      <point x="182" y="301"/>
      <point x="176" y="301" type="curve" smooth="yes"/>
      <point x="170" y="301"/>
      <point x="166" y="297"/>
    </contour>
  </outline>
  <guideline angle="98.0112" x="283" y="229"/>
  <guideline angle="98.0112" x="283" y="229"/>
</glyph>
<glyph name="uni0288" format="2">
  <advance width="370"/>
  <unicode hex="0288"/>
  <outline>
    <contour>
      <point x="265" y="-29" type="curve" smooth="yes"/>
      <point x="265" y="415" type="line"/>
      <point x="384" y="415" type="line"/>
      <point x="384" y="500" type="line"/>
      <point x="265" y="500" type="line"/>
      <point x="265" y="647" type="line"/>
      <point x="130" y="577" type="line"/>
      <point x="130" y="500" type="line"/>
      <point x="30" y="500" type="line"/>
      <point x="30" y="415" type="line"/>
      <point x="130" y="415" type="line"/>
      <point x="130" y="-67" type="line" smooth="yes"/>
      <point x="130" y="-150"/>
      <point x="205" y="-200"/>
      <point x="291" y="-200" type="curve" smooth="yes"/>
      <point x="328" y="-200"/>
      <point x="362" y="-194"/>
      <point x="393" y="-183" type="curve"/>
      <point x="393" y="-98" type="line"/>
      <point x="378" y="-104"/>
      <point x="361" y="-107"/>
      <point x="343" y="-107" type="curve" smooth="yes"/>
      <point x="295" y="-107"/>
      <point x="265" y="-79"/>
    </contour>
  </outline>
</glyph>
<glyph name="uni028F" format="2">
  <advance width="511"/>
  <unicode hex="028F"/>
  <outline>
    <contour>
      <point x="501" y="500" type="line"/>
      <point x="345" y="500" type="line"/>
      <point x="218" y="240" type="line"/>
      <point x="302" y="240" type="line"/>
      <point x="173" y="500" type="line"/>
      <point x="10" y="500" type="line"/>
      <point x="188" y="179" type="line"/>
      <point x="188" y="0" type="line"/>
      <point x="323" y="0" type="line"/>
      <point x="323" y="179" type="line"/>
    </contour>
  </outline>
  <guideline angle="243.966" x="345" y="500"/>
  <guideline angle="116.388" x="302" y="240"/>
</glyph>
<glyph name="uni0290" format="2">
  <advance width="622"/>
  <unicode hex="0290"/>
  <outline>
    <component base="z"/>
    <contour>
      <point x="462" y="-93" type="curve" smooth="yes"/>
      <point x="462" y="85" type="line"/>
      <point x="384" y="85" type="line"/>
      <point x="384" y="-100" type="line" smooth="yes"/>
      <point x="384" y="-167.602"/>
      <point x="447" y="-200"/>
      <point x="526" y="-200" type="curve" smooth="yes"/>
      <point x="625" y="-200"/>
      <point x="687" y="-166"/>
      <point x="687" y="-78" type="curve"/>
      <point x="552" y="-78" type="line"/>
      <point x="552" y="-118"/>
      <point x="543" y="-137"/>
      <point x="511.074" y="-137" type="curve" smooth="yes"/>
      <point x="480" y="-137"/>
      <point x="462" y="-119"/>
    </contour>
  </outline>
</glyph>
<glyph name="uni0291" format="2">
  <advance width="595"/>
  <unicode hex="0291"/>
  <outline>
    <contour>
      <point x="44" y="0" type="line"/>
      <point x="232" y="0" type="line"/>
      <point x="232" y="85" type="line"/>
      <point x="184" y="85" type="line"/>
      <point x="449" y="395" type="line"/>
      <point x="449" y="500" type="line"/>
      <point x="49" y="500" type="line"/>
      <point x="49" y="415" type="line"/>
      <point x="309" y="415" type="line"/>
      <point x="44" y="105" type="line"/>
    </contour>
    <contour>
      <point x="492" y="127.809" type="curve" smooth="yes"/>
      <point x="492" y="96.984"/>
      <point x="466.942" y="83"/>
      <point x="417.74" y="83" type="curve" smooth="yes"/>
      <point x="406" y="83"/>
      <point x="376" y="83.75"/>
      <point x="367" y="85.25" type="curve"/>
      <point x="374" y="112"/>
      <point x="397" y="164"/>
      <point x="449.119" y="164" type="curve" smooth="yes"/>
      <point x="475" y="164"/>
      <point x="492" y="153.697"/>
    </contour>
    <contour>
      <point x="160" y="0" type="line"/>
      <point x="270" y="0" type="line"/>
      <point x="248" y="-130" type="line"/>
      <point x="319" y="-130" type="line"/>
      <point x="344" y="-2" type="line"/>
      <point x="351" y="-4"/>
      <point x="390" y="-5"/>
      <point x="401.897" y="-5" type="curve" smooth="yes"/>
      <point x="499" y="-5"/>
      <point x="572" y="45.4744"/>
      <point x="572" y="143.474" type="curve" smooth="yes"/>
      <point x="572" y="207.618"/>
      <point x="523.641" y="237"/>
      <point x="465.38" y="237" type="curve" smooth="yes"/>
      <point x="386" y="237"/>
      <point x="315.84" y="199.314"/>
      <point x="284" y="85" type="curve"/>
      <point x="160" y="85" type="line"/>
    </contour>
  </outline>
</glyph>
<glyph name="uni02A1" format="2">
  <advance width="489"/>
  <unicode hex="02A1"/>
  <outline>
    <component base="uni0294"/>
    <contour>
      <point x="370" y="297" type="line"/>
      <point x="31" y="297" type="line"/>
      <point x="31" y="202" type="line"/>
      <point x="370" y="202" type="line"/>
    </contour>
  </outline>
</glyph>
<glyph name="hfishhookturned" format="2">
  <advance width="771"/>
  <unicode hex="02AE"/>
  <outline>
    <contour>
      <point x="576" y="0" type="line"/>
      <point x="576" y="-200" type="line"/>
      <point x="712" y="-200" type="line"/>
      <point x="712" y="0" type="line"/>
    </contour>
    <contour>
      <point x="245" y="380" type="line"/>
      <point x="381" y="380" type="line"/>
      <point x="381" y="545" type="line" smooth="yes"/>
      <point x="381" y="653.789"/>
      <point x="299.347" y="732"/>
      <point x="186" y="732" type="curve" smooth="yes"/>
      <point x="86.8609" y="732"/>
      <point x="42.9508" y="710.478"/>
      <point x="0" y="673" type="curve"/>
      <point x="70.1332" y="601.748" type="line"/>
      <point x="90.2013" y="618.108"/>
      <point x="123" y="628"/>
      <point x="155.956" y="628" type="curve" smooth="yes"/>
      <point x="223.305" y="628"/>
      <point x="245" y="591.108"/>
      <point x="245" y="505.724" type="curve" smooth="yes"/>
    </contour>
    <contour>
      <point x="245" y="159" type="line" smooth="yes"/>
      <point x="245" y="49"/>
      <point x="307" y="-14"/>
      <point x="419.488" y="-14" type="curve" smooth="yes"/>
      <point x="490.144" y="-14"/>
      <point x="536.196" y="10.8562"/>
      <point x="576" y="68" type="curve" smooth="yes"/>
      <point x="596" y="96.7129" type="line"/>
      <point x="596" y="221.131" type="line"/>
      <point x="576" y="221" type="line"/>
      <point x="576" y="124"/>
      <point x="538" y="67"/>
      <point x="470" y="67" type="curve" smooth="yes"/>
      <point x="411" y="67"/>
      <point x="381" y="111"/>
      <point x="381" y="199" type="curve" smooth="yes"/>
      <point x="381" y="500" type="line"/>
      <point x="245" y="500" type="line"/>
    </contour>
    <contour>
      <point x="712" y="0" type="line"/>
      <point x="712" y="500" type="line"/>
      <point x="576" y="500" type="line"/>
      <point x="576" y="0" type="line"/>
    </contour>
  </outline>
</glyph>
<glyph name="uni02AF" format="2">
  <advance width="944"/>
  <unicode hex="02AF"/>
  <outline>
    <contour>
      <point x="225" y="159" type="line" smooth="yes"/>
      <point x="225" y="49"/>
      <point x="287" y="-14"/>
      <point x="399.488" y="-14" type="curve" smooth="yes"/>
      <point x="470.144" y="-14"/>
      <point x="516.196" y="10.8562"/>
      <point x="556" y="68" type="curve" smooth="yes"/>
      <point x="576" y="96.7129" type="line"/>
      <point x="576" y="221.131" type="line"/>
      <point x="556" y="221" type="line"/>
      <point x="556" y="124"/>
      <point x="518" y="67"/>
      <point x="450" y="67" type="curve" smooth="yes"/>
      <point x="391" y="67"/>
      <point x="361" y="111"/>
      <point x="361" y="199" type="curve" smooth="yes"/>
      <point x="361" y="500" type="line"/>
      <point x="225" y="500" type="line"/>
    </contour>
    <contour>
      <point x="361" y="380" type="line"/>
      <point x="361" y="545" type="line" smooth="yes"/>
      <point x="361" y="653.789"/>
      <point x="279.347" y="732"/>
      <point x="166" y="732" type="curve" smooth="yes"/>
      <point x="66.8609" y="732"/>
      <point x="22.9508" y="710.478"/>
      <point x="-20" y="673" type="curve"/>
      <point x="50.1332" y="601.748" type="line"/>
      <point x="70.2013" y="618.108"/>
      <point x="103" y="628"/>
      <point x="135.956" y="628" type="curve" smooth="yes"/>
      <point x="203.305" y="628"/>
      <point x="225" y="591.108"/>
      <point x="225" y="505.724" type="curve" smooth="yes"/>
      <point x="225" y="380" type="line"/>
    </contour>
    <contour>
      <point x="692" y="0" type="line"/>
      <point x="692" y="500" type="line"/>
      <point x="556" y="500" type="line"/>
      <point x="556" y="0" type="line"/>
    </contour>
    <contour>
      <point x="556" y="134" type="line"/>
      <point x="556" y="-60" type="line" smooth="yes"/>
      <point x="556" y="-140.291"/>
      <point x="638.413" y="-199"/>
      <point x="747" y="-199" type="curve" smooth="yes"/>
      <point x="804" y="-199"/>
      <point x="850" y="-180"/>
      <point x="885" y="-142" type="curve"/>
      <point x="809.302" y="-66.1515" type="line"/>
      <point x="798.132" y="-78.279"/>
      <point x="782" y="-89"/>
      <point x="753" y="-89" type="curve" smooth="yes"/>
      <point x="719" y="-89"/>
      <point x="692" y="-63"/>
      <point x="692" y="-21" type="curve" smooth="yes"/>
      <point x="692" y="134" type="line"/>
    </contour>
  </outline>
</glyph>
<glyph name="uni02B0" format="2">
  <advance width="595"/>
  <unicode hex="02B0"/>
  <outline>
    <contour>
      <point x="50.4969" y="350.445" type="line"/>
      <point x="145" y="350.445" type="line"/>
      <point x="145" y="552.75" type="line" smooth="yes"/>
      <point x="145" y="618.545"/>
      <point x="175.801" y="653.552"/>
      <point x="219.202" y="653.552" type="curve" smooth="yes"/>
      <point x="261.203" y="653.552"/>
      <point x="282.203" y="622.751"/>
      <point x="282.203" y="560.45" type="curve" smooth="yes"/>
      <point x="282.203" y="350.445" type="line"/>
      <point x="376.705" y="350.445" type="line"/>
      <point x="376.705" y="588.45" type="line" smooth="yes"/>
      <point x="376.705" y="663.352"/>
      <point x="336.105" y="710.253"/>
      <point x="259.103" y="710.253" type="curve" smooth="yes"/>
      <point x="201.595" y="710.253"/>
      <point x="170.156" y="701.149"/>
      <point x="145" y="660.552" type="curve"/>
      <point x="145" y="855.857" type="line"/>
      <point x="50.4969" y="855.857" type="line"/>
    </contour>
  </outline>
</glyph>
<glyph name="uni02B7" format="2">
  <advance width="607"/>
  <unicode hex="02B7"/>
  <outline>
    <contour>
      <point x="595.521" y="700.192" type="line"/>
      <point x="498.167" y="700.192" type="line"/>
      <point x="428.583" y="460.995" type="line"/>
      <point x="433.479" y="461.056" type="line"/>
      <point x="357.39" y="700.192" type="line"/>
      <point x="248.13" y="700.192" type="line"/>
      <point x="172.042" y="461.056" type="line"/>
      <point x="176.938" y="460.995" type="line"/>
      <point x="107.353" y="700.192" type="line"/>
      <point x="10" y="700.192" type="line"/>
      <point x="117.159" y="350" type="line"/>
      <point x="229.22" y="350" type="line"/>
      <point x="305.175" y="603.184" type="line"/>
      <point x="300.345" y="603.184" type="line"/>
      <point x="376.301" y="350" type="line"/>
      <point x="488.362" y="350" type="line"/>
    </contour>
  </outline>
  <guideline angle="106.144" x="248" y="158"/>
  <guideline angle="252.274" x="350" y="500"/>
  <guideline angle="107.726" x="615" y="159"/>
  <guideline angle="253.856" x="707" y="500"/>
</glyph>
<glyph name="circumflex" format="2">
  <advance width="319"/>
  <unicode hex="02C6"/>
  <anchor x="160" y="525" name="_top"/>
  <outline>
    <contour>
      <point x="320" y="600" type="line"/>
      <point x="250" y="600" type="line"/>
      <point x="160" y="710" type="line"/>
      <point x="70" y="600" type="line"/>
      <point x="0" y="600" type="line"/>
      <point x="90" y="780" type="line"/>
      <point x="230" y="780" type="line"/>
    </contour>
  </outline>
  <guideline angle="90" x="145" y="0"/>
</glyph>
<glyph name="dotaccent" format="2">
  <advance width="120"/>
  <unicode hex="02D9"/>
  <anchor x="60" y="525" name="_top"/>
  <anchor x="60" y="805" name="_bottom"/>
  <outline>
    <contour>
      <point x="120" y="600" type="line"/>
      <point x="0" y="600" type="line"/>
      <point x="0" y="730" type="line"/>
      <point x="120" y="730" type="line"/>
    </contour>
  </outline>
  <guideline angle="90" x="60" y="0"/>
</glyph>
<glyph name="tilde" format="2">
  <advance width="320"/>
  <unicode hex="02DC"/>
  <anchor x="160" y="600" name="_top"/>
  <outline>
    <contour>
      <point x="0" y="618" type="curve"/>
      <point x="52" y="618" type="line"/>
      <point x="59" y="642"/>
      <point x="76" y="651"/>
      <point x="96.7088" y="651" type="curve" smooth="yes"/>
      <point x="116.389" y="651"/>
      <point x="140.654" y="642.753"/>
      <point x="159.856" y="629.537" type="curve"/>
      <point x="160.354" y="706.78" type="line"/>
      <point x="139.525" y="718.465"/>
      <point x="116.313" y="725"/>
      <point x="95.6363" y="725" type="curve" smooth="yes"/>
      <point x="38" y="725"/>
      <point x="6" y="674"/>
    </contour>
    <contour>
      <point x="320.354" y="719" type="curve"/>
      <point x="268.354" y="719" type="line"/>
      <point x="261.354" y="695"/>
      <point x="244.354" y="686"/>
      <point x="223.645" y="686" type="curve" smooth="yes"/>
      <point x="203.965" y="686"/>
      <point x="179.7" y="694.247"/>
      <point x="160.499" y="707.463" type="curve"/>
      <point x="160" y="630.22" type="line"/>
      <point x="180.829" y="618.535"/>
      <point x="204.041" y="612"/>
      <point x="224.718" y="612" type="curve" smooth="yes"/>
      <point x="282.354" y="612"/>
      <point x="314.354" y="663"/>
    </contour>
  </outline>
  <guideline angle="90" x="160" y="0"/>
  <guideline angle="0" x="0" y="680"/>
</glyph>
<glyph name="hungarumlaut" format="2">
  <advance width="472"/>
  <unicode hex="02DD"/>
  <outline>
    <contour>
      <point x="251.5" y="790" type="line"/>
      <point x="101.5" y="790" type="line"/>
      <point x="10.5" y="599" type="line"/>
      <point x="108.5" y="599" type="line"/>
    </contour>
    <contour>
      <point x="461.5" y="790" type="line"/>
      <point x="311.5" y="790" type="line"/>
      <point x="220.5" y="599" type="line"/>
      <point x="318.5" y="599" type="line"/>
    </contour>
  </outline>
</glyph>
<glyph name="uni02E0" format="2">
  <advance width="384"/>
  <unicode hex="02E0"/>
  <outline>
    <contour>
      <point x="156.756" y="287.39" type="curve" smooth="yes"/>
      <point x="156.756" y="298.39"/>
      <point x="175.414" y="340.39"/>
      <point x="190.756" y="365.39" type="curve"/>
      <point x="208.042" y="339.39"/>
      <point x="224.756" y="298.39"/>
      <point x="224.756" y="287.051" type="curve" smooth="yes"/>
      <point x="224.756" y="266.39"/>
      <point x="213.099" y="254.39"/>
      <point x="190.756" y="254.39" type="curve" smooth="yes"/>
      <point x="168.414" y="254.39"/>
      <point x="156.756" y="266.39"/>
    </contour>
    <contour>
      <point x="75.7564" y="277.04" type="curve" smooth="yes"/>
      <point x="75.7564" y="215.39"/>
      <point x="131.123" y="178.39"/>
      <point x="191.728" y="178.39" type="curve" smooth="yes"/>
      <point x="250.756" y="178.39"/>
      <point x="305.756" y="215.39"/>
      <point x="305.756" y="275.24" type="curve" smooth="yes"/>
      <point x="305.756" y="316.39"/>
      <point x="279.756" y="369.39"/>
      <point x="245.756" y="431.39" type="curve"/>
      <point x="376.489" y="712" type="line"/>
      <point x="271.489" y="712" type="line"/>
      <point x="190.699" y="506.39" type="line"/>
      <point x="194.699" y="506.39" type="line"/>
      <point x="111.489" y="712" type="line"/>
      <point x="6.48882" y="712" type="line"/>
      <point x="133.427" y="431.39" type="line"/>
      <point x="98.3134" y="369.39"/>
      <point x="75.7564" y="316.39"/>
    </contour>
  </outline>
</glyph>
<glyph name="uni02E6" format="2">
  <advance width="408"/>
  <unicode hex="02E6"/>
  <outline>
    <contour>
      <point x="358" y="0" type="line"/>
      <point x="358" y="722" type="line"/>
      <point x="223" y="722" type="line"/>
      <point x="223" y="571" type="line"/>
      <point x="20" y="571" type="line"/>
      <point x="20" y="476" type="line"/>
      <point x="223" y="476" type="line"/>
      <point x="223" y="0" type="line"/>
    </contour>
  </outline>
</glyph>
<glyph name="uni02E8" format="2">
  <advance width="408"/>
  <unicode hex="02E8"/>
  <outline>
    <contour>
      <point x="358" y="0" type="line"/>
      <point x="223" y="0" type="line"/>
      <point x="223" y="161" type="line"/>
      <point x="20" y="161" type="line"/>
      <point x="20" y="256" type="line"/>
      <point x="223" y="256" type="line"/>
      <point x="223" y="722" type="line"/>
      <point x="358" y="722" type="line"/>
    </contour>
  </outline>
</glyph>
<glyph name="gravecomb" format="2">
  <unicode hex="0300"/>
  <anchor x="-185" y="600" name="_top.mkmk"/>
  <anchor x="-177" y="600" name="_top"/>
  <outline>
    <contour>
      <point x="-150" y="600" type="line"/>
      <point x="-241" y="780" type="line"/>
      <point x="-371" y="780" type="line"/>
      <point x="-220" y="600" type="line"/>
    </contour>
  </outline>
</glyph>
<glyph name="acutecomb" format="2">
  <advance width="1"/>
  <unicode hex="0301"/>
  <anchor x="-330" y="600" name="_top.mkmk"/>
  <anchor x="-305" y="600" name="_top"/>
  <anchor x="-231" y="855" name="_bottom"/>
  <anchor x="-70" y="690" name="_left"/>
  <outline>
    <contour>
      <point x="-120" y="780" type="line"/>
      <point x="-271" y="600" type="line"/>
      <point x="-341" y="600" type="line"/>
      <point x="-250" y="780" type="line"/>
    </contour>
  </outline>
</glyph>
<glyph name="uni0302" format="2">
  <advance width="1"/>
  <unicode hex="0302"/>
  <anchor x="-314" y="820" name="top.mkmk"/>
  <anchor x="-314" y="600" name="_top"/>
  <outline>
    <contour>
      <point x="-474" y="600" type="line"/>
      <point x="-404" y="600" type="line"/>
      <point x="-314" y="710" type="line"/>
      <point x="-224" y="600" type="line"/>
      <point x="-154" y="600" type="line"/>
      <point x="-244" y="780" type="line"/>
      <point x="-384" y="780" type="line"/>
    </contour>
  </outline>
  <guideline angle="90" x="-296" y="0"/>
</glyph>
<glyph name="uni0306" format="2">
  <advance width="1"/>
  <unicode hex="0306"/>
  <anchor x="-298" y="600" name="_top"/>
  <anchor x="-298" y="825" name="_bottom"/>
  <outline>
    <contour>
      <point x="-458" y="750" type="curve"/>
      <point x="-398" y="750" type="line"/>
      <point x="-398" y="720"/>
      <point x="-349" y="680"/>
      <point x="-299" y="680" type="curve" smooth="yes"/>
      <point x="-249" y="680"/>
      <point x="-198" y="720"/>
      <point x="-198" y="750" type="curve"/>
      <point x="-138" y="750" type="line"/>
      <point x="-148" y="667"/>
      <point x="-206" y="600"/>
      <point x="-298" y="600" type="curve" smooth="yes"/>
      <point x="-396" y="600"/>
      <point x="-450" y="660"/>
    </contour>
  </outline>
</glyph>
<glyph name="uni0307" format="2">
  <advance width="1"/>
  <unicode hex="0307"/>
  <anchor x="-292" y="600" name="_top"/>
  <anchor x="-292" y="795" name="_bottom"/>
  <outline>
    <contour>
      <point x="-347" y="600" type="line"/>
      <point x="-347" y="720" type="line"/>
      <point x="-237" y="720" type="line"/>
      <point x="-237" y="600" type="line"/>
    </contour>
  </outline>
  <guideline angle="90" x="-292" y="0"/>
</glyph>
<glyph name="uni030E" format="2">
  <unicode hex="030E"/>
  <outline>
    <contour>
      <point x="-137.028" y="819.62" type="line"/>
      <point x="-242.028" y="819.62" type="line"/>
      <point x="-242.028" y="599.62" type="line"/>
      <point x="-137.028" y="599.62" type="line"/>
    </contour>
    <contour>
      <point x="-336.028" y="818.62" type="line"/>
      <point x="-441.028" y="818.62" type="line"/>
      <point x="-441.028" y="598.62" type="line"/>
      <point x="-336.028" y="598.62" type="line"/>
    </contour>
  </outline>
</glyph>
<glyph name="uni030F" format="2">
  <advance width="1"/>
  <unicode hex="030F"/>
  <anchor x="-264" y="600" name="_top"/>
  <outline>
    <contour>
      <point x="-535" y="790" type="line"/>
      <point x="-392" y="599" type="line"/>
      <point x="-294" y="599" type="line"/>
      <point x="-385" y="790" type="line"/>
    </contour>
    <contour>
      <point x="-325" y="790" type="line"/>
      <point x="-182" y="599" type="line"/>
      <point x="-84" y="599" type="line"/>
      <point x="-175" y="790" type="line"/>
    </contour>
  </outline>
</glyph>
<glyph name="commaabovecomb" format="2">
  <unicode hex="0313"/>
  <outline>
    <contour>
      <point x="-309.19" y="570" type="line"/>
      <point x="-244.19" y="570" type="line"/>
      <point x="-156.982" y="670.335" type="line"/>
      <point x="-157.19" y="780" type="line"/>
      <point x="-200.19" y="780" type="line"/>
    </contour>
    <contour>
      <point x="-279.19" y="780" type="line"/>
      <point x="-279.19" y="660" type="line"/>
      <point x="-169.19" y="660" type="line"/>
      <point x="-169.19" y="780" type="line"/>
    </contour>
  </outline>
</glyph>
<glyph name="uni031C" format="2">
  <advance width="1"/>
  <unicode hex="031C"/>
  <outline>
    <contour>
      <point x="-269.5" y="-331" type="line"/>
      <point x="-335.5" y="-331"/>
      <point x="-390.5" y="-276"/>
      <point x="-390.5" y="-210" type="curve" smooth="yes"/>
      <point x="-390.5" y="-144"/>
      <point x="-335.5" y="-89"/>
      <point x="-269.5" y="-89" type="curve"/>
      <point x="-269.5" y="-174.16" type="line"/>
      <point x="-289.815" y="-174.16"/>
      <point x="-305.34" y="-189.685"/>
      <point x="-305.34" y="-210" type="curve" smooth="yes"/>
      <point x="-305.34" y="-230.475"/>
      <point x="-289.975" y="-245.84"/>
      <point x="-269.5" y="-245.84" type="curve"/>
    </contour>
  </outline>
</glyph>
<glyph name="uni032A" format="2">
  <advance width="1"/>
  <unicode hex="032A"/>
  <outline>
    <contour>
      <point x="-248.47" y="-240.03" type="line"/>
      <point x="-248.47" y="-158.97" type="line"/>
      <point x="-350.53" y="-158.97" type="line"/>
      <point x="-350.53" y="-240.03" type="line"/>
      <point x="-445.91" y="-240.41" type="line"/>
      <point x="-445.91" y="-63.59" type="line"/>
      <point x="-153.09" y="-63.59" type="line"/>
      <point x="-153.09" y="-240.41" type="line"/>
    </contour>
  </outline>
</glyph>
<glyph name="uni0394" format="2">
  <advance width="719"/>
  <unicode hex="0394"/>
  <outline>
    <contour>
      <point x="191" y="145" type="line"/>
      <point x="198.147" y="134.025" type="line"/>
      <point x="356" y="491" type="line"/>
      <point x="348" y="491" type="line"/>
      <point x="508.932" y="134.06" type="line"/>
      <point x="516" y="145" type="line"/>
    </contour>
    <contour>
      <point x="19" y="0" type="line"/>
      <point x="688" y="0" type="line"/>
      <point x="687.859" y="89.6544" type="line"/>
      <point x="403" y="722" type="line"/>
      <point x="301" y="722" type="line"/>
      <point x="19.3199" y="89.8442" type="line"/>
    </contour>
  </outline>
  <guideline angle="246.127" x="356" y="491"/>
  <guideline angle="65.9535" x="19" y="90"/>
  <guideline angle="114.274" x="509" y="134"/>
  <guideline angle="294.273" x="403" y="722"/>
</glyph>
<glyph name="Phi" format="2">
  <advance width="759"/>
  <unicode hex="03A6"/>
  <outline>
    <contour>
      <point x="306" y="-1" type="line"/>
      <point x="306" y="721" type="line"/>
      <point x="451" y="721" type="line"/>
      <point x="451" y="-1" type="line"/>
    </contour>
    <contour>
      <point x="437.4" y="62" type="line"/>
      <point x="437.4" y="184" type="line"/>
      <point x="461" y="184" type="line" smooth="yes"/>
      <point x="542.056" y="184"/>
      <point x="579" y="245"/>
      <point x="579" y="360.723" type="curve" smooth="yes"/>
      <point x="579" y="478"/>
      <point x="541" y="534"/>
      <point x="461" y="534" type="curve" smooth="yes"/>
      <point x="437.4" y="534" type="line"/>
      <point x="437.4" y="656" type="line"/>
      <point x="459" y="656" type="line" smooth="yes"/>
      <point x="632" y="656"/>
      <point x="729" y="552"/>
      <point x="729" y="370" type="curve" smooth="yes"/>
      <point x="729" y="167"/>
      <point x="637" y="62"/>
      <point x="461" y="62" type="curve" smooth="yes"/>
    </contour>
    <contour>
      <point x="319.6" y="62" type="line"/>
      <point x="296" y="62" type="line" smooth="yes"/>
      <point x="125" y="62"/>
      <point x="38" y="166"/>
      <point x="38" y="370" type="curve" smooth="yes"/>
      <point x="38" y="552"/>
      <point x="132" y="656"/>
      <point x="298" y="656" type="curve" smooth="yes"/>
      <point x="319.6" y="656" type="line"/>
      <point x="319.6" y="534" type="line"/>
      <point x="296" y="534" type="line" smooth="yes"/>
      <point x="221.939" y="534"/>
      <point x="188" y="479"/>
      <point x="188" y="362.5" type="curve" smooth="yes"/>
      <point x="188" y="246"/>
      <point x="221.941" y="184"/>
      <point x="298" y="184" type="curve" smooth="yes"/>
      <point x="319.6" y="184" type="line"/>
    </contour>
  </outline>
</glyph>
<glyph name="Omega" format="2">
  <advance width="800"/>
  <unicode hex="03A9"/>
  <outline>
    <contour>
      <point x="46" y="0" type="line"/>
      <point x="374" y="0" type="line"/>
      <point x="367" y="188" type="line"/>
      <point x="250.551" y="237.907"/>
      <point x="179" y="285.79"/>
      <point x="179" y="410" type="curve" smooth="yes"/>
      <point x="179" y="521.043"/>
      <point x="241.105" y="620"/>
      <point x="403" y="620" type="curve" smooth="yes"/>
      <point x="559.842" y="620"/>
      <point x="626" y="522.153"/>
      <point x="626" y="410" type="curve" smooth="yes"/>
      <point x="626" y="288.709"/>
      <point x="558.455" y="241.052"/>
      <point x="437" y="189" type="curve"/>
      <point x="429" y="0" type="line"/>
      <point x="747" y="0" type="line"/>
      <point x="747" y="105" type="line"/>
      <point x="516" y="105" type="line"/>
      <point x="520" y="135" type="line"/>
      <point x="669" y="180"/>
      <point x="744" y="269"/>
      <point x="744" y="410" type="curve" smooth="yes"/>
      <point x="744" y="609.831"/>
      <point x="589.117" y="734"/>
      <point x="402" y="734" type="curve" smooth="yes"/>
      <point x="224.907" y="734"/>
      <point x="55" y="602.892"/>
      <point x="55" y="410" type="curve" smooth="yes"/>
      <point x="55" y="265"/>
      <point x="130" y="180"/>
      <point x="282" y="135" type="curve"/>
      <point x="284" y="105" type="line"/>
      <point x="46" y="105" type="line"/>
    </contour>
  </outline>
</glyph>
<glyph name="alpha" format="2">
  <advance width="608"/>
  <unicode hex="03B1"/>
  <anchor x="280" y="600" name="tonos.top"/>
  <outline>
    <contour>
      <point x="310.735" y="428" type="curve" smooth="yes"/>
      <point x="387.23" y="428"/>
      <point x="427" y="360.746"/>
      <point x="427" y="245.489" type="curve" smooth="yes"/>
      <point x="427" y="148.549"/>
      <point x="379.034" y="72"/>
      <point x="319.074" y="72" type="curve" smooth="yes"/>
      <point x="241.09" y="72"/>
      <point x="194" y="134.052"/>
      <point x="194" y="238.469" type="curve" smooth="yes"/>
      <point x="194" y="364.097"/>
      <point x="236.17" y="428"/>
    </contour>
    <contour>
      <point x="427" y="449" type="line"/>
      <point x="401.104" y="487.844"/>
      <point x="334.24" y="514"/>
      <point x="271.178" y="514" type="curve" smooth="yes"/>
      <point x="145.531" y="514"/>
      <point x="59" y="410.163"/>
      <point x="59" y="243.035" type="curve" smooth="yes"/>
      <point x="59" y="80.9734"/>
      <point x="140.364" y="-14"/>
      <point x="280.578" y="-14" type="curve" smooth="yes"/>
      <point x="354.214" y="-14"/>
      <point x="404.423" y="12.4494"/>
      <point x="432.075" y="54.1954" type="curve"/>
      <point x="562" y="147.847" type="line"/>
      <point x="562" y="505" type="line"/>
      <point x="427" y="505" type="line"/>
    </contour>
    <contour>
      <point x="562" y="147.847" type="curve" smooth="yes"/>
      <point x="562.077" y="156.872" type="line"/>
      <point x="431.989" y="99.0786" type="line"/>
      <point x="432.075" y="54.1954" type="line"/>
      <point x="449.502" y="11.2992"/>
      <point x="481.689" y="-14.046"/>
      <point x="538.7" y="-14.046" type="curve" smooth="yes"/>
      <point x="569.131" y="-14.046"/>
      <point x="599.698" y="-6.82433"/>
      <point x="618" y="3.7471" type="curve"/>
      <point x="618" y="108.055" type="line"/>
      <point x="610.231" y="105.238"/>
      <point x="602.151" y="105.046"/>
      <point x="599.67" y="105.046" type="curve" smooth="yes"/>
      <point x="576.019" y="105.046"/>
      <point x="561.777" y="121.644"/>
    </contour>
  </outline>
</glyph>
<glyph name="gamma" format="2">
  <advance width="571"/>
  <unicode hex="03B3"/>
  <outline>
    <contour>
      <point x="174" y="467" type="line" smooth="yes"/>
      <point x="158.622" y="502.799"/>
      <point x="109.799" y="514"/>
      <point x="65.5793" y="514" type="curve" smooth="yes"/>
      <point x="56.2015" y="514"/>
      <point x="27.4787" y="513.496"/>
      <point x="10" y="511" type="curve"/>
      <point x="10" y="407" type="line"/>
      <point x="16.2976" y="408"/>
      <point x="28.9577" y="408.976"/>
      <point x="37.3256" y="408.872" type="curve" smooth="yes"/>
      <point x="55.3468" y="408.65"/>
      <point x="67.1423" y="399.163"/>
      <point x="76" y="379" type="curve" smooth="yes"/>
      <point x="228" y="33" type="line"/>
      <point x="228" y="-200" type="line"/>
      <point x="363" y="-200" type="line"/>
      <point x="363" y="27" type="line"/>
      <point x="561" y="500" type="line"/>
      <point x="427" y="500" type="line"/>
      <point x="270.484" y="126" type="line"/>
      <point x="320.484" y="126" type="line"/>
    </contour>
  </outline>
  <guideline angle="293.716" x="76" y="379"/>
  <guideline angle="67.2856" x="363" y="27"/>
  <guideline angle="247.228" x="427" y="500"/>
  <guideline angle="113.178" x="320" y="126"/>
</glyph>
<glyph name="delta" format="2">
  <advance width="614"/>
  <unicode hex="03B4"/>
  <outline>
    <contour>
      <point x="328.405" y="420.42" type="line"/>
      <point x="333.24" y="417.756" type="line" smooth="yes"/>
      <point x="395.985" y="383.187"/>
      <point x="436.265" y="323.735"/>
      <point x="436.265" y="229.95" type="curve" smooth="yes"/>
      <point x="436.265" y="170.01"/>
      <point x="401.435" y="71.58"/>
      <point x="316.385" y="71.58" type="curve" smooth="yes"/>
      <point x="308.285" y="71.58" type="line" smooth="yes"/>
      <point x="229.715" y="71.58"/>
      <point x="182.735" y="144.76"/>
      <point x="182.735" y="234.57" type="curve" smooth="yes"/>
      <point x="182.735" y="303.52"/>
      <point x="210.425" y="420.42"/>
      <point x="312.485" y="420.42" type="curve" smooth="yes"/>
    </contour>
    <contour>
      <point x="101.4" y="592.738" type="line"/>
      <point x="265.467" y="479.432" type="line"/>
      <point x="269.297" y="490.054" type="line"/>
      <point x="130.352" y="457.825"/>
      <point x="44.2" y="379.053"/>
      <point x="44.2" y="235.058" type="curve" smooth="yes"/>
      <point x="44.2" y="102.964"/>
      <point x="116.7" y="-14.4"/>
      <point x="307" y="-14.4" type="curve" smooth="yes"/>
      <point x="452.2" y="-14.4"/>
      <point x="569.8" y="53.3"/>
      <point x="569.8" y="240.3" type="curve" smooth="yes"/>
      <point x="569.8" y="343.7"/>
      <point x="521.375" y="424.427"/>
      <point x="437.8" y="485.4" type="curve" smooth="yes"/>
      <point x="233.606" y="634.373" type="line"/>
      <point x="231.3" y="627.3" type="line"/>
      <point x="510.4" y="627.3" type="line"/>
      <point x="510.4" y="722.4" type="line"/>
      <point x="101.4" y="722.4" type="line"/>
    </contour>
  </outline>
  <guideline angle="322.028" x="101" y="607"/>
  <guideline angle="143.856" x="438" y="485"/>
</glyph>
<glyph name="eta" format="2">
  <advance width="608"/>
  <unicode hex="03B7"/>
  <anchor x="300" y="600" name="tonos.top"/>
  <outline>
    <contour>
      <point x="395" y="512" type="curve" smooth="yes"/>
      <point x="488.336" y="512"/>
      <point x="557" y="450.871"/>
      <point x="557" y="355" type="curve" smooth="yes"/>
      <point x="557" y="-200" type="line"/>
      <point x="422" y="-200" type="line"/>
      <point x="422" y="316" type="line" smooth="yes"/>
      <point x="422" y="379.876"/>
      <point x="396.034" y="432"/>
      <point x="321" y="432" type="curve" smooth="yes"/>
      <point x="255" y="432"/>
      <point x="226" y="351.397"/>
      <point x="226" y="270" type="curve" smooth="yes"/>
      <point x="226" y="0" type="line"/>
      <point x="91" y="0" type="line"/>
      <point x="91" y="390" type="line" smooth="yes"/>
      <point x="91" y="405.297"/>
      <point x="70" y="419"/>
      <point x="52" y="419" type="curve" smooth="yes"/>
      <point x="44.9234" y="419"/>
      <point x="35.0541" y="417.517"/>
      <point x="32" y="417" type="curve"/>
      <point x="32" y="504" type="line"/>
      <point x="52.67" y="510.12"/>
      <point x="64.3297" y="512"/>
      <point x="85" y="512" type="curve" smooth="yes"/>
      <point x="143" y="512"/>
      <point x="216" y="484"/>
      <point x="219" y="428" type="curve"/>
      <point x="260" y="488"/>
      <point x="313" y="512"/>
    </contour>
  </outline>
</glyph>
<glyph name="iota" format="2">
  <advance width="297"/>
  <unicode hex="03B9"/>
  <anchor x="115" y="600" name="tonos.top"/>
  <outline>
    <contour>
      <point x="60" y="59" type="line" smooth="yes"/>
      <point x="60" y="21.9106"/>
      <point x="94.7727" y="-3"/>
      <point x="132.614" y="-3" type="curve" smooth="yes"/>
      <point x="273" y="-3" type="line"/>
      <point x="273" y="95" type="line"/>
      <point x="265.2" y="93"/>
      <point x="252.525" y="90"/>
      <point x="242.775" y="90" type="curve" smooth="yes"/>
      <point x="224.25" y="90"/>
      <point x="195" y="99"/>
      <point x="195" y="127" type="curve" smooth="yes"/>
      <point x="195" y="500" type="line"/>
      <point x="60" y="500" type="line"/>
    </contour>
  </outline>
</glyph>
<glyph name="lambda" format="2">
  <advance width="551"/>
  <unicode hex="03BB"/>
  <outline>
    <contour>
      <point x="175" y="599" type="curve" smooth="yes"/>
      <point x="377" y="78" type="line" smooth="yes"/>
      <point x="399.828" y="19.1228"/>
      <point x="422.811" y="-3"/>
      <point x="477.306" y="-3" type="curve" smooth="yes"/>
      <point x="490.626" y="-3"/>
      <point x="547.635" y="-1.673"/>
      <point x="566" y="1" type="curve"/>
      <point x="566" y="100" type="line"/>
      <point x="523.512" y="99.6095"/>
      <point x="511.308" y="103.961"/>
      <point x="504" y="123" type="curve" smooth="yes"/>
      <point x="319" y="605" type="line" smooth="yes"/>
      <point x="281.416" y="702.922"/>
      <point x="239.972" y="733.844"/>
      <point x="164.213" y="734.01" type="curve" smooth="yes"/>
      <point x="144.637" y="734.053"/>
      <point x="110.372" y="732"/>
      <point x="86" y="728" type="curve"/>
      <point x="86" y="624" type="line"/>
      <point x="105.89" y="627"/>
      <point x="117.11" y="628.059"/>
      <point x="137" y="628" type="curve" smooth="yes"/>
      <point x="156.939" y="627.941"/>
      <point x="169.062" y="614.316"/>
    </contour>
    <contour>
      <point x="232.595" y="555.677" type="line"/>
      <point x="9" y="2" type="line"/>
      <point x="140" y="2" type="line"/>
      <point x="294.451" y="397.975" type="line"/>
    </contour>
  </outline>
</glyph>
<glyph name="pi" format="2">
  <advance width="602"/>
  <unicode hex="03C0"/>
  <outline>
    <contour>
      <point x="20" y="405" type="line"/>
      <point x="582" y="405" type="line"/>
      <point x="582" y="500" type="line"/>
      <point x="20" y="500" type="line"/>
    </contour>
    <contour>
      <point x="90" y="420" type="line"/>
      <point x="90" y="0" type="line"/>
      <point x="225" y="0" type="line"/>
      <point x="225" y="420" type="line"/>
    </contour>
    <contour>
      <point x="374" y="420" type="line"/>
      <point x="374" y="77" type="line" smooth="yes"/>
      <point x="374" y="34.4207"/>
      <point x="399.001" y="-8"/>
      <point x="459" y="-8" type="curve" smooth="yes"/>
      <point x="499.033" y="-8"/>
      <point x="540.523" y="-5.95622"/>
      <point x="581" y="-1" type="curve"/>
      <point x="581" y="86" type="line"/>
      <point x="567.186" y="82.5225"/>
      <point x="555.916" y="80.9533"/>
      <point x="546.75" y="80.931" type="curve" smooth="yes"/>
      <point x="516.143" y="80.8566"/>
      <point x="509" y="98.0298"/>
      <point x="509" y="119" type="curve" smooth="yes"/>
      <point x="509" y="420" type="line"/>
    </contour>
  </outline>
</glyph>
<glyph name="tau" format="2">
  <advance width="526"/>
  <unicode hex="03C4"/>
  <outline>
    <contour>
      <point x="196" y="419.5" type="line"/>
      <point x="196" y="83.0599" type="line" smooth="yes"/>
      <point x="196" y="21.5714"/>
      <point x="231" y="-8"/>
      <point x="313" y="-8" type="curve" smooth="yes"/>
      <point x="332" y="-8"/>
      <point x="396" y="-6.02867"/>
      <point x="415" y="-1.1001" type="curve"/>
      <point x="415" y="65.0108" type="line"/>
      <point x="406" y="63.0054"/>
      <point x="397" y="61"/>
      <point x="387" y="61" type="curve" smooth="yes"/>
      <point x="337.505" y="61"/>
      <point x="331" y="78.2435"/>
      <point x="331" y="121.163" type="curve" smooth="yes"/>
      <point x="331" y="419.5" type="line"/>
    </contour>
    <contour>
      <point x="20" y="403" type="line"/>
      <point x="506" y="406" type="line"/>
      <point x="506" y="501" type="line"/>
      <point x="20" y="501" type="line"/>
    </contour>
  </outline>
</glyph>
<glyph name="phi" format="2">
  <advance width="780"/>
  <unicode hex="03C6"/>
  <outline>
    <contour>
      <point x="322" y="-200" type="line"/>
      <point x="457" y="-200" type="line"/>
      <point x="457" y="435" type="line"/>
      <point x="553.967" y="435"/>
      <point x="600.937" y="372.273"/>
      <point x="601.003" y="255.288" type="curve" smooth="yes"/>
      <point x="601.072" y="131.427"/>
      <point x="548.103" y="72.7042"/>
      <point x="439.702" y="72.6345" type="curve"/>
      <point x="439.702" y="-6.60253" type="line"/>
      <point x="619.96" y="-6.63273"/>
      <point x="736" y="99.8045"/>
      <point x="736" y="264.519" type="curve" smooth="yes"/>
      <point x="736" y="420.37"/>
      <point x="631.759" y="514"/>
      <point x="433" y="514" type="curve" smooth="yes"/>
      <point x="322" y="514" type="line"/>
    </contour>
    <contour>
      <point x="339.579" y="72.6845" type="line"/>
      <point x="233.343" y="73.2624"/>
      <point x="179" y="134.109"/>
      <point x="179" y="251.848" type="curve" smooth="yes"/>
      <point x="179" y="352.492"/>
      <point x="218.185" y="401.697"/>
      <point x="278" y="434" type="curve"/>
      <point x="278" y="508.282" type="line"/>
      <point x="145.697" y="492.63"/>
      <point x="44" y="395.826"/>
      <point x="44" y="260" type="curve" smooth="yes"/>
      <point x="44" y="93.2446"/>
      <point x="153.741" y="-7.21481"/>
      <point x="339.579" y="-6.62221" type="curve"/>
    </contour>
  </outline>
  <guideline angle="0" x="0" y="351"/>
  <guideline angle="90" x="513" y="0"/>
</glyph>
<glyph name="chi" format="2">
  <advance width="546"/>
  <unicode hex="03C7"/>
  <outline>
    <contour>
      <point x="380" y="-159" type="line" smooth="yes"/>
      <point x="393.742" y="-185.479"/>
      <point x="431" y="-195"/>
      <point x="461" y="-195" type="curve" smooth="yes"/>
      <point x="481" y="-195"/>
      <point x="562" y="-192"/>
      <point x="579" y="-186" type="curve"/>
      <point x="579" y="-100" type="line"/>
      <point x="574" y="-101"/>
      <point x="570" y="-101"/>
      <point x="563" y="-101" type="curve" smooth="yes"/>
      <point x="542" y="-101"/>
      <point x="517.199" y="-99.4347"/>
      <point x="505" y="-76" type="curve" smooth="yes"/>
      <point x="242.802" y="427.692" type="line" smooth="yes"/>
      <point x="213.09" y="484.77"/>
      <point x="175.44" y="513.019"/>
      <point x="111.667" y="512.692" type="curve" smooth="yes"/>
      <point x="93.136" y="512.597"/>
      <point x="29.513" y="505.638"/>
      <point x="12" y="501" type="curve"/>
      <point x="11.5317" y="414.561" type="line"/>
      <point x="20.3739" y="416.35"/>
      <point x="39.1617" y="417.582"/>
      <point x="48.5317" y="417.561" type="curve" smooth="yes"/>
      <point x="70.602" y="417.512"/>
      <point x="91.4185" y="397.047"/>
      <point x="101.532" y="377.561" type="curve" smooth="yes"/>
    </contour>
    <contour>
      <point x="335.468" y="176.536" type="line"/>
      <point x="521" y="501" type="line"/>
      <point x="370" y="501" type="line"/>
      <point x="265.133" y="308.844" type="line"/>
    </contour>
    <contour>
      <point x="234.61" y="259" type="line"/>
      <point x="-18" y="-200" type="line"/>
      <point x="138" y="-200" type="line"/>
      <point x="304.632" y="116.578" type="line"/>
    </contour>
  </outline>
  <guideline angle="62.2191" x="138" y="-200"/>
  <guideline angle="241.137" x="235" y="259"/>
</glyph>
<glyph name="omega" format="2">
  <advance width="719"/>
  <unicode hex="03C9"/>
  <anchor x="347" y="600" name="tonos.top"/>
  <outline>
    <contour>
      <point x="106" y="501" type="curve"/>
      <point x="241" y="501" type="line"/>
      <point x="166.17" y="404.213"/>
      <point x="141" y="330.083"/>
      <point x="141" y="232.309" type="curve" smooth="yes"/>
      <point x="141" y="143"/>
      <point x="162" y="101"/>
      <point x="225.984" y="101" type="curve" smooth="yes"/>
      <point x="269" y="101"/>
      <point x="283" y="133.541"/>
      <point x="283" y="173" type="curve" smooth="yes"/>
      <point x="283" y="388" type="line"/>
      <point x="418" y="388" type="line"/>
      <point x="418" y="193" type="line" smooth="yes"/>
      <point x="418" y="135.921"/>
      <point x="432.194" y="99"/>
      <point x="478.768" y="99" type="curve" smooth="yes"/>
      <point x="551.887" y="99"/>
      <point x="563" y="160"/>
      <point x="563" y="222.354" type="curve" smooth="yes"/>
      <point x="563" y="320"/>
      <point x="535.747" y="434"/>
      <point x="459.339" y="501" type="curve"/>
      <point x="596.86" y="501" type="line"/>
      <point x="674" y="418"/>
      <point x="701" y="325"/>
      <point x="701" y="228.714" type="curve" smooth="yes"/>
      <point x="701" y="99"/>
      <point x="645" y="-14"/>
      <point x="490.648" y="-14" type="curve" smooth="yes"/>
      <point x="404.043" y="-14"/>
      <point x="376.22" y="37"/>
      <point x="352.484" y="88" type="curve"/>
      <point x="330.725" y="35"/>
      <point x="287" y="-14"/>
      <point x="205.368" y="-14" type="curve" smooth="yes"/>
      <point x="64" y="-14"/>
      <point x="3" y="107.953"/>
      <point x="3" y="237.691" type="curve" smooth="yes"/>
      <point x="3" y="335.081"/>
      <point x="35.7422" y="420.669"/>
    </contour>
  </outline>
</glyph>
<glyph name="uni03D0" format="2">
  <advance width="608"/>
  <unicode hex="03D0"/>
  <outline>
    <contour>
      <point x="347.395" y="652" type="curve" smooth="yes"/>
      <point x="384.031" y="652"/>
      <point x="410" y="619.041"/>
      <point x="410" y="579.478" type="curve" smooth="yes"/>
      <point x="410" y="541.657"/>
      <point x="387.838" y="482.873"/>
      <point x="336.461" y="456" type="curve"/>
      <point x="323.365" y="459"/>
      <point x="309.262" y="460"/>
      <point x="297.61" y="460" type="curve" smooth="yes"/>
      <point x="261.694" y="460"/>
      <point x="224.881" y="448"/>
      <point x="185.796" y="407" type="curve"/>
      <point x="205.333" y="575.858"/>
      <point x="252.515" y="652"/>
    </contour>
    <contour>
      <point x="193.63" y="223" type="line" smooth="yes"/>
      <point x="193.63" y="315.114"/>
      <point x="221.654" y="384"/>
      <point x="303.009" y="384" type="curve" smooth="yes"/>
      <point x="378.945" y="384"/>
      <point x="417.441" y="323.985"/>
      <point x="417.441" y="213" type="curve" smooth="yes"/>
      <point x="417.441" y="140.947"/>
      <point x="374.583" y="70"/>
      <point x="302.447" y="70" type="curve" smooth="yes"/>
      <point x="235.576" y="70"/>
      <point x="193.63" y="131.251"/>
      <point x="193.63" y="204" type="curve" smooth="yes"/>
    </contour>
    <contour>
      <point x="344.046" y="736" type="curve" smooth="yes"/>
      <point x="117.217" y="736"/>
      <point x="54" y="512.972"/>
      <point x="54" y="268" type="curve" smooth="yes"/>
      <point x="54" y="113"/>
      <point x="114.125" y="-14"/>
      <point x="295.003" y="-14" type="curve" smooth="yes"/>
      <point x="453.882" y="-14"/>
      <point x="557" y="62"/>
      <point x="557" y="223" type="curve" smooth="yes"/>
      <point x="557" y="242" type="line" smooth="yes"/>
      <point x="557" y="315"/>
      <point x="511.03" y="395.424"/>
      <point x="447" y="424.424" type="curve"/>
      <point x="495.03" y="457.407"/>
      <point x="541" y="504.707"/>
      <point x="541" y="565.37" type="curve" smooth="yes"/>
      <point x="541" y="586.32" type="line" smooth="yes"/>
      <point x="541" y="673.123"/>
      <point x="463.088" y="736"/>
    </contour>
  </outline>
</glyph>
<glyph name="uni0404" format="2">
  <advance width="715"/>
  <unicode hex="0404"/>
  <outline>
    <contour>
      <point x="36" y="361" type="curve" smooth="yes"/>
      <point x="36" y="143"/>
      <point x="148" y="-14"/>
      <point x="378" y="-14" type="curve"/>
      <point x="378" y="100" type="line"/>
      <point x="238" y="100"/>
      <point x="187" y="191"/>
      <point x="187" y="361" type="curve" smooth="yes"/>
      <point x="187" y="531"/>
      <point x="238" y="622"/>
      <point x="378" y="622" type="curve"/>
      <point x="378" y="736" type="line"/>
      <point x="148" y="736"/>
      <point x="36" y="579"/>
    </contour>
    <contour>
      <point x="113" y="308" type="line"/>
      <point x="451" y="308" type="line"/>
      <point x="451" y="428" type="line"/>
      <point x="113" y="428" type="line"/>
    </contour>
    <contour>
      <point x="375" y="735" type="curve"/>
      <point x="381" y="622" type="line"/>
      <point x="466" y="622"/>
      <point x="519" y="561"/>
      <point x="519" y="493" type="curve"/>
      <point x="664" y="493" type="line"/>
      <point x="664" y="635"/>
      <point x="552" y="735"/>
    </contour>
    <contour>
      <point x="372" y="100" type="curve"/>
      <point x="378" y="-13" type="line"/>
      <point x="560" y="-13"/>
      <point x="667" y="106"/>
      <point x="667" y="244" type="curve"/>
      <point x="516" y="244" type="line"/>
      <point x="516" y="159"/>
      <point x="468" y="100"/>
    </contour>
  </outline>
</glyph>
<glyph name="Tshecyr" format="2">
  <advance width="835"/>
  <unicode hex="040B"/>
  <outline>
    <contour>
      <point x="784.591" y="0" type="line"/>
      <point x="634.591" y="-0.178" type="line"/>
      <point x="634.591" y="167.535" type="line" smooth="yes"/>
      <point x="634.591" y="251.598"/>
      <point x="626.8" y="317.055"/>
      <point x="488.18" y="317.055" type="curve" smooth="yes"/>
      <point x="451.212" y="317.055"/>
      <point x="382.3" y="309.955"/>
      <point x="316" y="289.255" type="curve"/>
      <point x="316" y="426.93" type="line"/>
      <point x="382.3" y="447.63"/>
      <point x="436.027" y="456.986"/>
      <point x="503" y="456.986" type="curve" smooth="yes"/>
      <point x="693.158" y="456.986"/>
      <point x="784.591" y="383.742"/>
      <point x="784.591" y="231.567" type="curve" smooth="yes"/>
    </contour>
    <contour>
      <point x="243" y="712" type="line"/>
      <point x="393" y="712" type="line"/>
      <point x="393" y="0" type="line"/>
      <point x="243" y="0" type="line"/>
    </contour>
    <contour>
      <point x="606" y="607" type="line"/>
      <point x="30" y="607" type="line"/>
      <point x="30" y="722" type="line"/>
      <point x="606" y="722" type="line"/>
    </contour>
  </outline>
</glyph>
<glyph name="Dzhecyr" format="2">
  <advance width="694"/>
  <unicode hex="040F"/>
  <outline>
    <component base="uni041F" yScale="-1" yOffset="722"/>
    <contour>
      <point x="272" y="-160" type="line"/>
      <point x="422" y="-160" type="line"/>
      <point x="422" y="0" type="line"/>
      <point x="272" y="0" type="line"/>
    </contour>
  </outline>
  <guideline angle="90" x="347" y="0"/>
</glyph>
<glyph name="uni0414" format="2">
  <advance width="787"/>
  <unicode hex="0414"/>
  <outline>
    <contour>
      <point x="174.157" y="89.9383" type="line"/>
      <point x="258.01" y="89.9383"/>
      <point x="316.627" y="252.907"/>
      <point x="331" y="526" type="curve" smooth="yes"/>
      <point x="335" y="602" type="line"/>
      <point x="523" y="602" type="line"/>
      <point x="523" y="80" type="line"/>
      <point x="678" y="80" type="line"/>
      <point x="678" y="722" type="line"/>
      <point x="190" y="722" type="line"/>
      <point x="184" y="587" type="line" smooth="yes"/>
      <point x="171.175" y="277.063"/>
      <point x="123.142" y="90.0076"/>
      <point x="55.574" y="89.8116" type="curve"/>
      <point x="55.5709" y="79.8664" type="line"/>
      <point x="173.714" y="79.9049" type="line"/>
    </contour>
    <contour>
      <point x="777" y="-160" type="line"/>
      <point x="777" y="120" type="line"/>
      <point x="10" y="120" type="line"/>
      <point x="10" y="-160" type="line"/>
      <point x="157" y="-160" type="line"/>
      <point x="157" y="0" type="line"/>
      <point x="641" y="0" type="line"/>
      <point x="641" y="-160" type="line"/>
    </contour>
  </outline>
</glyph>
<glyph name="uni0416" format="2">
  <advance width="975"/>
  <unicode hex="0416"/>
  <outline>
    <contour>
      <point x="390.118" y="412" type="line"/>
      <point x="145.118" y="722" type="line"/>
      <point x="-24.8823" y="722" type="line"/>
      <point x="236.535" y="389.567" type="line"/>
      <point x="236.076" y="408.776" type="line"/>
      <point x="196.126" y="408.813"/>
      <point x="166.574" y="389.654"/>
      <point x="143.233" y="348.585" type="curve" smooth="yes"/>
      <point x="-54.8823" y="0" type="line"/>
      <point x="125.118" y="0" type="line"/>
      <point x="287.42" y="277.788" type="line" smooth="yes"/>
      <point x="307.764" y="312.609"/>
      <point x="329.998" y="322.002"/>
      <point x="390.118" y="321.99" type="curve"/>
    </contour>
    <contour>
      <point x="410" y="452" type="line"/>
      <point x="346.118" y="452" type="line"/>
      <point x="346.118" y="322" type="line"/>
      <point x="410" y="322" type="line"/>
    </contour>
    <contour>
      <point x="410" y="0" type="line"/>
      <point x="560" y="0" type="line"/>
      <point x="560" y="722" type="line"/>
      <point x="410" y="722" type="line"/>
    </contour>
    <contour>
      <point x="580" y="412" type="line"/>
      <point x="580" y="321.99" type="line"/>
      <point x="640.119" y="322.002"/>
      <point x="662.353" y="312.609"/>
      <point x="682.698" y="277.788" type="curve" smooth="yes"/>
      <point x="845" y="0" type="line"/>
      <point x="1025" y="0" type="line"/>
      <point x="826.885" y="348.585" type="line" smooth="yes"/>
      <point x="803.543" y="389.654"/>
      <point x="773.991" y="408.813"/>
      <point x="734.041" y="408.776" type="curve"/>
      <point x="733.582" y="389.567" type="line"/>
      <point x="995" y="722" type="line"/>
      <point x="825" y="722" type="line"/>
    </contour>
    <contour>
      <point x="560.118" y="452" type="line"/>
      <point x="560.118" y="322" type="line"/>
      <point x="624" y="322" type="line"/>
      <point x="624" y="452" type="line"/>
    </contour>
  </outline>
</glyph>
<glyph name="uni0417" format="2">
  <advance width="567"/>
  <unicode hex="0417"/>
  <outline>
    <contour>
      <point x="34" y="218" type="line"/>
      <point x="34" y="79.9754"/>
      <point x="127.982" y="-13"/>
      <point x="267.5" y="-13" type="curve" smooth="yes"/>
      <point x="435.83" y="-13"/>
      <point x="532" y="66.199"/>
      <point x="532" y="206.268" type="curve" smooth="yes"/>
      <point x="532" y="297.77"/>
      <point x="490.959" y="354.904"/>
      <point x="407" y="381" type="curve"/>
      <point x="407" y="377" type="line"/>
      <point x="478.813" y="403.01"/>
      <point x="520" y="466.452"/>
      <point x="520" y="535.254" type="curve" smooth="yes"/>
      <point x="520" y="660.186"/>
      <point x="432.392" y="736"/>
      <point x="293.805" y="736" type="curve" smooth="yes"/>
      <point x="151.717" y="736"/>
      <point x="68.4419" y="656.307"/>
      <point x="45" y="505" type="curve"/>
      <point x="190" y="505" type="line"/>
      <point x="205.245" y="585.97"/>
      <point x="236.835" y="624"/>
      <point x="288.849" y="624" type="curve" smooth="yes"/>
      <point x="338.807" y="624"/>
      <point x="370" y="590.46"/>
      <point x="370" y="536.742" type="curve" smooth="yes"/>
      <point x="370" y="469.835"/>
      <point x="321.958" y="432"/>
      <point x="237" y="432" type="curve" smooth="yes"/>
      <point x="190" y="432" type="line"/>
      <point x="190" y="318" type="line"/>
      <point x="244" y="318" type="line" smooth="yes"/>
      <point x="331.474" y="318"/>
      <point x="382" y="276.261"/>
      <point x="382" y="204" type="curve" smooth="yes"/>
      <point x="382" y="139.109"/>
      <point x="341.17" y="98"/>
      <point x="275.419" y="98" type="curve" smooth="yes"/>
      <point x="215.379" y="98"/>
      <point x="187.466" y="132.277"/>
      <point x="179" y="218" type="curve"/>
    </contour>
  </outline>
</glyph>
<glyph name="uni0418" format="2">
  <advance width="698"/>
  <unicode hex="0418"/>
  <outline>
    <contour>
      <point x="60" y="0" type="line"/>
      <point x="217" y="0" type="line"/>
      <point x="513.991" y="515.397" type="line"/>
      <point x="510.846" y="519.79" type="line"/>
      <point x="501.947" y="473.729"/>
      <point x="498" y="453.276"/>
      <point x="498" y="412.206" type="curve" smooth="yes"/>
      <point x="498" y="0" type="line"/>
      <point x="638" y="0" type="line"/>
      <point x="638" y="722" type="line"/>
      <point x="475" y="722" type="line"/>
      <point x="184.093" y="207.554" type="line"/>
      <point x="187.145" y="203.208" type="line"/>
      <point x="196.051" y="249.157"/>
      <point x="200" y="269.543"/>
      <point x="200" y="310.498" type="curve" smooth="yes"/>
      <point x="200" y="722" type="line"/>
      <point x="60" y="722" type="line"/>
    </contour>
  </outline>
</glyph>
<glyph name="uni041A" format="2">
  <advance width="674"/>
  <unicode hex="041A"/>
  <outline>
    <component base="I" xOffset="-10"/>
    <contour>
      <point x="230" y="412" type="line"/>
      <point x="475" y="722" type="line"/>
      <point x="645" y="722" type="line"/>
      <point x="383.582" y="389.567" type="line"/>
      <point x="384.041" y="408.776" type="line"/>
      <point x="423.991" y="408.813"/>
      <point x="453.543" y="389.654"/>
      <point x="476.885" y="348.585" type="curve" smooth="yes"/>
      <point x="675" y="0" type="line"/>
      <point x="495" y="0" type="line"/>
      <point x="332.698" y="277.788" type="line" smooth="yes"/>
      <point x="312.353" y="312.609"/>
      <point x="290.119" y="322.002"/>
      <point x="230" y="321.99" type="curve"/>
    </contour>
    <contour>
      <point x="210.118" y="452" type="line"/>
      <point x="274" y="452" type="line"/>
      <point x="274" y="322" type="line"/>
      <point x="210.118" y="322" type="line"/>
    </contour>
  </outline>
  <guideline angle="51.6799" x="230" y="412"/>
  <guideline angle="231.819" x="645" y="722"/>
  <guideline angle="305.442" x="391" y="399"/>
  <guideline angle="126.206" x="495" y="0"/>
</glyph>
<glyph name="uni041B" format="2">
  <advance width="723"/>
  <unicode hex="041B"/>
  <outline>
    <contour>
      <point x="15" y="2" type="line"/>
      <point x="29" y="-4"/>
      <point x="49" y="-7"/>
      <point x="72.3919" y="-7" type="curve" smooth="yes"/>
      <point x="230" y="-7"/>
      <point x="290.499" y="129.17"/>
      <point x="300" y="394" type="curve" smooth="yes"/>
      <point x="311.767" y="722" type="line"/>
      <point x="165" y="722" type="line"/>
      <point x="153" y="418" type="line" smooth="yes"/>
      <point x="146.058" y="242.137"/>
      <point x="124.619" y="122"/>
      <point x="49.8239" y="122" type="curve" smooth="yes"/>
      <point x="43" y="122"/>
      <point x="26" y="123"/>
      <point x="15" y="128" type="curve"/>
    </contour>
    <contour>
      <point x="516" y="722.015" type="line"/>
      <point x="516" y="0" type="line"/>
      <point x="663" y="0" type="line"/>
      <point x="663" y="722" type="line"/>
    </contour>
    <contour>
      <point x="170.18" y="602" type="line"/>
      <point x="516.009" y="602" type="line"/>
      <point x="516" y="722" type="line"/>
      <point x="175" y="722" type="line"/>
    </contour>
  </outline>
  <guideline angle="87.9454" x="300" y="394"/>
  <guideline angle="87.9047" x="300" y="394"/>
  <guideline angle="267.739" x="165" y="722"/>
</glyph>
<glyph name="uni041F" format="2">
  <advance width="694"/>
  <unicode hex="041F"/>
  <outline>
    <component base="I" xOffset="-10"/>
    <contour>
      <point x="488.948" y="722" type="line"/>
      <point x="210" y="722" type="line"/>
      <point x="209.904" y="602" type="line"/>
      <point x="488.989" y="602" type="line"/>
    </contour>
    <contour>
      <point x="634" y="0" type="line"/>
      <point x="634" y="722" type="line"/>
      <point x="489" y="722.109" type="line"/>
      <point x="489" y="0" type="line"/>
    </contour>
  </outline>
</glyph>
<glyph name="uni0423" format="2">
  <advance width="655"/>
  <unicode hex="0423"/>
  <outline>
    <contour>
      <point x="645" y="722" type="line"/>
      <point x="494" y="722" type="line"/>
      <point x="317.926" y="318.802" type="line"/>
      <point x="310.126" y="291.782" type="line"/>
      <point x="256.271" y="168.458" type="line" smooth="yes"/>
      <point x="236.742" y="123.739"/>
      <point x="208.801" y="101.731"/>
      <point x="179.681" y="101.731" type="curve" smooth="yes"/>
      <point x="137.309" y="101.731"/>
      <point x="107.392" y="107.09"/>
      <point x="80.2891" y="123.351" type="curve"/>
      <point x="73.8966" y="120.255" type="line"/>
      <point x="85.0321" y="9.1824" type="line"/>
      <point x="116.079" y="-2.51982"/>
      <point x="162.003" y="-9"/>
      <point x="212.789" y="-9" type="curve" smooth="yes"/>
      <point x="290.581" y="-9"/>
      <point x="332.949" y="28.5533"/>
      <point x="384.756" y="143.681" type="curve" smooth="yes"/>
    </contour>
    <contour>
      <point x="365.878" y="344.753" type="line"/>
      <point x="170" y="722" type="line"/>
      <point x="10" y="722" type="line"/>
      <point x="298.526" y="200.092" type="line"/>
    </contour>
  </outline>
  <guideline angle="65.7723" x="357" y="82"/>
  <guideline angle="247.45" x="494" y="722"/>
  <guideline angle="117.44" x="359" y="358"/>
  <guideline angle="299.696" x="10" y="722"/>
</glyph>
